G04 #@! TF.GenerationSoftware,KiCad,Pcbnew,5.1.2*
G04 #@! TF.CreationDate,2019-05-22T09:14:52+02:00*
G04 #@! TF.ProjectId,polythene_sensor,706f6c79-7468-4656-9e65-5f73656e736f,rev?*
G04 #@! TF.SameCoordinates,Original*
G04 #@! TF.FileFunction,Legend,Top*
G04 #@! TF.FilePolarity,Positive*
%FSLAX46Y46*%
G04 Gerber Fmt 4.6, Leading zero omitted, Abs format (unit mm)*
G04 Created by KiCad (PCBNEW 5.1.2) date 2019-05-22 09:14:52*
%MOMM*%
%LPD*%
G04 APERTURE LIST*
%ADD10C,0.120000*%
%ADD11C,0.150000*%
G04 APERTURE END LIST*
D10*
X166424300Y-72342700D02*
X171624300Y-72342700D01*
X166424300Y-118182700D02*
X171624300Y-118182700D01*
X164984300Y-72912700D02*
X166424300Y-72912700D01*
X166424300Y-72342700D02*
X166424300Y-72912700D01*
X171624300Y-72342700D02*
X171624300Y-72912700D01*
X166424300Y-117612700D02*
X166424300Y-118182700D01*
X171624300Y-117612700D02*
X171624300Y-118182700D01*
X166424300Y-74432700D02*
X166424300Y-75452700D01*
X171624300Y-74432700D02*
X171624300Y-75452700D01*
X166424300Y-76972700D02*
X166424300Y-77992700D01*
X171624300Y-76972700D02*
X171624300Y-77992700D01*
X166424300Y-79512700D02*
X166424300Y-80532700D01*
X171624300Y-79512700D02*
X171624300Y-80532700D01*
X166424300Y-82052700D02*
X166424300Y-83072700D01*
X171624300Y-82052700D02*
X171624300Y-83072700D01*
X166424300Y-84592700D02*
X166424300Y-85612700D01*
X171624300Y-84592700D02*
X171624300Y-85612700D01*
X166424300Y-87132700D02*
X166424300Y-88152700D01*
X171624300Y-87132700D02*
X171624300Y-88152700D01*
X166424300Y-89672700D02*
X166424300Y-90692700D01*
X171624300Y-89672700D02*
X171624300Y-90692700D01*
X166424300Y-92212700D02*
X166424300Y-93232700D01*
X171624300Y-92212700D02*
X171624300Y-93232700D01*
X166424300Y-94752700D02*
X166424300Y-95772700D01*
X171624300Y-94752700D02*
X171624300Y-95772700D01*
X166424300Y-97292700D02*
X166424300Y-98312700D01*
X171624300Y-97292700D02*
X171624300Y-98312700D01*
X166424300Y-99832700D02*
X166424300Y-100852700D01*
X171624300Y-99832700D02*
X171624300Y-100852700D01*
X166424300Y-102372700D02*
X166424300Y-103392700D01*
X171624300Y-102372700D02*
X171624300Y-103392700D01*
X166424300Y-104912700D02*
X166424300Y-105932700D01*
X171624300Y-104912700D02*
X171624300Y-105932700D01*
X166424300Y-107452700D02*
X166424300Y-108472700D01*
X171624300Y-107452700D02*
X171624300Y-108472700D01*
X166424300Y-109992700D02*
X166424300Y-111012700D01*
X171624300Y-109992700D02*
X171624300Y-111012700D01*
X166424300Y-112532700D02*
X166424300Y-113552700D01*
X171624300Y-112532700D02*
X171624300Y-113552700D01*
X166424300Y-115072700D02*
X166424300Y-116092700D01*
X171624300Y-115072700D02*
X171624300Y-116092700D01*
X142633800Y-59588400D02*
X143256000Y-60198000D01*
X143256000Y-60198000D02*
X143256000Y-74523600D01*
X143250800Y-74523600D02*
X136250800Y-74523600D01*
X136250800Y-74523600D02*
X136250800Y-59588400D01*
X136245600Y-59588400D02*
X142573800Y-59588400D01*
X133160000Y-92964000D02*
X133160000Y-96824000D01*
X133160000Y-96824000D02*
X133425000Y-96824000D01*
X133160000Y-92964000D02*
X133160000Y-89104000D01*
X133160000Y-89104000D02*
X133425000Y-89104000D01*
X148780000Y-92964000D02*
X148780000Y-96824000D01*
X148780000Y-96824000D02*
X148515000Y-96824000D01*
X148780000Y-92964000D02*
X148780000Y-89104000D01*
X148780000Y-89104000D02*
X148515000Y-89104000D01*
X148515000Y-89104000D02*
X148515000Y-87289000D01*
X189457400Y-96100100D02*
X189457400Y-97915100D01*
X189192400Y-96100100D02*
X189457400Y-96100100D01*
X189192400Y-92240100D02*
X189192400Y-96100100D01*
X189192400Y-88380100D02*
X189457400Y-88380100D01*
X189192400Y-92240100D02*
X189192400Y-88380100D01*
X204812400Y-96100100D02*
X204547400Y-96100100D01*
X204812400Y-92240100D02*
X204812400Y-96100100D01*
X204812400Y-88380100D02*
X204547400Y-88380100D01*
X204812400Y-92240100D02*
X204812400Y-88380100D01*
X192040000Y-61050000D02*
X194040000Y-61050000D01*
X194040000Y-61050000D02*
X194040000Y-57150000D01*
X192040000Y-61050000D02*
X192040000Y-57150000D01*
X167580000Y-61040000D02*
X167580000Y-55840000D01*
X167580000Y-55840000D02*
X168150000Y-55840000D01*
X169670000Y-55840000D02*
X170690000Y-55840000D01*
X172210000Y-55840000D02*
X173230000Y-55840000D01*
X174750000Y-55840000D02*
X175770000Y-55840000D01*
X177290000Y-55840000D02*
X178310000Y-55840000D01*
X179830000Y-55840000D02*
X180850000Y-55840000D01*
X182370000Y-55840000D02*
X183390000Y-55840000D01*
X184910000Y-55840000D02*
X185930000Y-55840000D01*
X187450000Y-55840000D02*
X188020000Y-55840000D01*
X188020000Y-61040000D02*
X188020000Y-55840000D01*
X167580000Y-61040000D02*
X168150000Y-61040000D01*
X169670000Y-61040000D02*
X170690000Y-61040000D01*
X172210000Y-61040000D02*
X173230000Y-61040000D01*
X174750000Y-61040000D02*
X175770000Y-61040000D01*
X177290000Y-61040000D02*
X178310000Y-61040000D01*
X179830000Y-61040000D02*
X180850000Y-61040000D01*
X182370000Y-61040000D02*
X183390000Y-61040000D01*
X184910000Y-61040000D02*
X185930000Y-61040000D01*
X187450000Y-61040000D02*
X188020000Y-61040000D01*
X168150000Y-55840000D02*
X168150000Y-54480000D01*
X197410000Y-59316252D02*
X197410000Y-58793748D01*
X198830000Y-59316252D02*
X198830000Y-58793748D01*
D11*
X168690966Y-70795080D02*
X168690966Y-71509366D01*
X168643347Y-71652223D01*
X168548109Y-71747461D01*
X168405252Y-71795080D01*
X168310014Y-71795080D01*
X169690966Y-71795080D02*
X169119538Y-71795080D01*
X169405252Y-71795080D02*
X169405252Y-70795080D01*
X169310014Y-70937938D01*
X169214776Y-71033176D01*
X169119538Y-71080795D01*
X143703180Y-69764019D02*
X144417466Y-69764019D01*
X144560323Y-69811638D01*
X144655561Y-69906876D01*
X144703180Y-70049733D01*
X144703180Y-70144971D01*
X144036514Y-69430685D02*
X144036514Y-69049733D01*
X144703180Y-69287828D02*
X143846038Y-69287828D01*
X143750800Y-69240209D01*
X143703180Y-69144971D01*
X143703180Y-69049733D01*
X144036514Y-68716400D02*
X145036514Y-68716400D01*
X144084133Y-68716400D02*
X144036514Y-68621161D01*
X144036514Y-68430685D01*
X144084133Y-68335447D01*
X144131752Y-68287828D01*
X144226990Y-68240209D01*
X144512704Y-68240209D01*
X144607942Y-68287828D01*
X144655561Y-68335447D01*
X144703180Y-68430685D01*
X144703180Y-68621161D01*
X144655561Y-68716400D01*
X144703180Y-67668780D02*
X144655561Y-67764019D01*
X144607942Y-67811638D01*
X144512704Y-67859257D01*
X144226990Y-67859257D01*
X144131752Y-67811638D01*
X144084133Y-67764019D01*
X144036514Y-67668780D01*
X144036514Y-67525923D01*
X144084133Y-67430685D01*
X144131752Y-67383066D01*
X144226990Y-67335447D01*
X144512704Y-67335447D01*
X144607942Y-67383066D01*
X144655561Y-67430685D01*
X144703180Y-67525923D01*
X144703180Y-67668780D01*
X144036514Y-67002114D02*
X144703180Y-66811638D01*
X144226990Y-66621161D01*
X144703180Y-66430685D01*
X144036514Y-66240209D01*
X144703180Y-65335447D02*
X144703180Y-65906876D01*
X144703180Y-65621161D02*
X143703180Y-65621161D01*
X143846038Y-65716400D01*
X143941276Y-65811638D01*
X143988895Y-65906876D01*
X149072380Y-94416380D02*
X149881904Y-94416380D01*
X149977142Y-94368761D01*
X150024761Y-94321142D01*
X150072380Y-94225904D01*
X150072380Y-94035428D01*
X150024761Y-93940190D01*
X149977142Y-93892571D01*
X149881904Y-93844952D01*
X149072380Y-93844952D01*
X150072380Y-93368761D02*
X149405714Y-93368761D01*
X149072380Y-93368761D02*
X149120000Y-93416380D01*
X149167619Y-93368761D01*
X149120000Y-93321142D01*
X149072380Y-93368761D01*
X149167619Y-93368761D01*
X149405714Y-92892571D02*
X150072380Y-92892571D01*
X149500952Y-92892571D02*
X149453333Y-92844952D01*
X149405714Y-92749714D01*
X149405714Y-92606857D01*
X149453333Y-92511619D01*
X149548571Y-92464000D01*
X150072380Y-92464000D01*
X150072380Y-91464000D02*
X150072380Y-92035428D01*
X150072380Y-91749714D02*
X149072380Y-91749714D01*
X149215238Y-91844952D01*
X149310476Y-91940190D01*
X149358095Y-92035428D01*
X187804780Y-94192480D02*
X188614304Y-94192480D01*
X188709542Y-94144861D01*
X188757161Y-94097242D01*
X188804780Y-94002004D01*
X188804780Y-93811528D01*
X188757161Y-93716290D01*
X188709542Y-93668671D01*
X188614304Y-93621052D01*
X187804780Y-93621052D01*
X188804780Y-93002004D02*
X188757161Y-93097242D01*
X188709542Y-93144861D01*
X188614304Y-93192480D01*
X188328590Y-93192480D01*
X188233352Y-93144861D01*
X188185733Y-93097242D01*
X188138114Y-93002004D01*
X188138114Y-92859147D01*
X188185733Y-92763909D01*
X188233352Y-92716290D01*
X188328590Y-92668671D01*
X188614304Y-92668671D01*
X188709542Y-92716290D01*
X188757161Y-92763909D01*
X188804780Y-92859147D01*
X188804780Y-93002004D01*
X188138114Y-91811528D02*
X188804780Y-91811528D01*
X188138114Y-92240100D02*
X188661923Y-92240100D01*
X188757161Y-92192480D01*
X188804780Y-92097242D01*
X188804780Y-91954385D01*
X188757161Y-91859147D01*
X188709542Y-91811528D01*
X188138114Y-91478195D02*
X188138114Y-91097242D01*
X187804780Y-91335338D02*
X188661923Y-91335338D01*
X188757161Y-91287719D01*
X188804780Y-91192480D01*
X188804780Y-91097242D01*
X188804780Y-90240100D02*
X188804780Y-90811528D01*
X188804780Y-90525814D02*
X187804780Y-90525814D01*
X187947638Y-90621052D01*
X188042876Y-90716290D01*
X188090495Y-90811528D01*
X191492380Y-61038095D02*
X190492380Y-61038095D01*
X190492380Y-60800000D01*
X190540000Y-60657142D01*
X190635238Y-60561904D01*
X190730476Y-60514285D01*
X190920952Y-60466666D01*
X191063809Y-60466666D01*
X191254285Y-60514285D01*
X191349523Y-60561904D01*
X191444761Y-60657142D01*
X191492380Y-60800000D01*
X191492380Y-61038095D01*
X190825714Y-60038095D02*
X191825714Y-60038095D01*
X190873333Y-60038095D02*
X190825714Y-59942857D01*
X190825714Y-59752380D01*
X190873333Y-59657142D01*
X190920952Y-59609523D01*
X191016190Y-59561904D01*
X191301904Y-59561904D01*
X191397142Y-59609523D01*
X191444761Y-59657142D01*
X191492380Y-59752380D01*
X191492380Y-59942857D01*
X191444761Y-60038095D01*
X191492380Y-59133333D02*
X190825714Y-59133333D01*
X191016190Y-59133333D02*
X190920952Y-59085714D01*
X190873333Y-59038095D01*
X190825714Y-58942857D01*
X190825714Y-58847619D01*
X191492380Y-58371428D02*
X191444761Y-58466666D01*
X191397142Y-58514285D01*
X191301904Y-58561904D01*
X191016190Y-58561904D01*
X190920952Y-58514285D01*
X190873333Y-58466666D01*
X190825714Y-58371428D01*
X190825714Y-58228571D01*
X190873333Y-58133333D01*
X190920952Y-58085714D01*
X191016190Y-58038095D01*
X191301904Y-58038095D01*
X191397142Y-58085714D01*
X191444761Y-58133333D01*
X191492380Y-58228571D01*
X191492380Y-58371428D01*
X190825714Y-57752380D02*
X190825714Y-57371428D01*
X190492380Y-57609523D02*
X191349523Y-57609523D01*
X191444761Y-57561904D01*
X191492380Y-57466666D01*
X191492380Y-57371428D01*
X191492380Y-56514285D02*
X191492380Y-57085714D01*
X191492380Y-56800000D02*
X190492380Y-56800000D01*
X190635238Y-56895238D01*
X190730476Y-56990476D01*
X190778095Y-57085714D01*
X165592380Y-58773333D02*
X166306666Y-58773333D01*
X166449523Y-58820952D01*
X166544761Y-58916190D01*
X166592380Y-59059047D01*
X166592380Y-59154285D01*
X165687619Y-58344761D02*
X165640000Y-58297142D01*
X165592380Y-58201904D01*
X165592380Y-57963809D01*
X165640000Y-57868571D01*
X165687619Y-57820952D01*
X165782857Y-57773333D01*
X165878095Y-57773333D01*
X166020952Y-57820952D01*
X166592380Y-58392380D01*
X166592380Y-57773333D01*
X196922380Y-60245476D02*
X196446190Y-60578809D01*
X196922380Y-60816904D02*
X195922380Y-60816904D01*
X195922380Y-60435952D01*
X195970000Y-60340714D01*
X196017619Y-60293095D01*
X196112857Y-60245476D01*
X196255714Y-60245476D01*
X196350952Y-60293095D01*
X196398571Y-60340714D01*
X196446190Y-60435952D01*
X196446190Y-60816904D01*
X196922380Y-59816904D02*
X196255714Y-59816904D01*
X196446190Y-59816904D02*
X196350952Y-59769285D01*
X196303333Y-59721666D01*
X196255714Y-59626428D01*
X196255714Y-59531190D01*
X196874761Y-58816904D02*
X196922380Y-58912142D01*
X196922380Y-59102619D01*
X196874761Y-59197857D01*
X196779523Y-59245476D01*
X196398571Y-59245476D01*
X196303333Y-59197857D01*
X196255714Y-59102619D01*
X196255714Y-58912142D01*
X196303333Y-58816904D01*
X196398571Y-58769285D01*
X196493809Y-58769285D01*
X196589047Y-59245476D01*
X196255714Y-58483571D02*
X196255714Y-58102619D01*
X196922380Y-58340714D02*
X196065238Y-58340714D01*
X195970000Y-58293095D01*
X195922380Y-58197857D01*
X195922380Y-58102619D01*
X196922380Y-57245476D02*
X196922380Y-57816904D01*
X196922380Y-57531190D02*
X195922380Y-57531190D01*
X196065238Y-57626428D01*
X196160476Y-57721666D01*
X196208095Y-57816904D01*
M02*
