G04 #@! TF.GenerationSoftware,KiCad,Pcbnew,5.1.2*
G04 #@! TF.CreationDate,2019-05-22T09:14:52+02:00*
G04 #@! TF.ProjectId,polythene_sensor,706f6c79-7468-4656-9e65-5f73656e736f,rev?*
G04 #@! TF.SameCoordinates,Original*
G04 #@! TF.FileFunction,Soldermask,Top*
G04 #@! TF.FilePolarity,Negative*
%FSLAX46Y46*%
G04 Gerber Fmt 4.6, Leading zero omitted, Abs format (unit mm)*
G04 Created by KiCad (PCBNEW 5.1.2) date 2019-05-22 09:14:52*
%MOMM*%
%LPD*%
G04 APERTURE LIST*
%ADD10C,0.100000*%
G04 APERTURE END LIST*
D10*
G36*
X173175300Y-117403700D02*
G01*
X169923300Y-117403700D01*
X169923300Y-116301700D01*
X173175300Y-116301700D01*
X173175300Y-117403700D01*
X173175300Y-117403700D01*
G37*
G36*
X168125300Y-117403700D02*
G01*
X164873300Y-117403700D01*
X164873300Y-116301700D01*
X168125300Y-116301700D01*
X168125300Y-117403700D01*
X168125300Y-117403700D01*
G37*
G36*
X168125300Y-114863700D02*
G01*
X164873300Y-114863700D01*
X164873300Y-113761700D01*
X168125300Y-113761700D01*
X168125300Y-114863700D01*
X168125300Y-114863700D01*
G37*
G36*
X173175300Y-114863700D02*
G01*
X169923300Y-114863700D01*
X169923300Y-113761700D01*
X173175300Y-113761700D01*
X173175300Y-114863700D01*
X173175300Y-114863700D01*
G37*
G36*
X168125300Y-112323700D02*
G01*
X164873300Y-112323700D01*
X164873300Y-111221700D01*
X168125300Y-111221700D01*
X168125300Y-112323700D01*
X168125300Y-112323700D01*
G37*
G36*
X173175300Y-112323700D02*
G01*
X169923300Y-112323700D01*
X169923300Y-111221700D01*
X173175300Y-111221700D01*
X173175300Y-112323700D01*
X173175300Y-112323700D01*
G37*
G36*
X168125300Y-109783700D02*
G01*
X164873300Y-109783700D01*
X164873300Y-108681700D01*
X168125300Y-108681700D01*
X168125300Y-109783700D01*
X168125300Y-109783700D01*
G37*
G36*
X173175300Y-109783700D02*
G01*
X169923300Y-109783700D01*
X169923300Y-108681700D01*
X173175300Y-108681700D01*
X173175300Y-109783700D01*
X173175300Y-109783700D01*
G37*
G36*
X168125300Y-107243700D02*
G01*
X164873300Y-107243700D01*
X164873300Y-106141700D01*
X168125300Y-106141700D01*
X168125300Y-107243700D01*
X168125300Y-107243700D01*
G37*
G36*
X173175300Y-107243700D02*
G01*
X169923300Y-107243700D01*
X169923300Y-106141700D01*
X173175300Y-106141700D01*
X173175300Y-107243700D01*
X173175300Y-107243700D01*
G37*
G36*
X173175300Y-104703700D02*
G01*
X169923300Y-104703700D01*
X169923300Y-103601700D01*
X173175300Y-103601700D01*
X173175300Y-104703700D01*
X173175300Y-104703700D01*
G37*
G36*
X168125300Y-104703700D02*
G01*
X164873300Y-104703700D01*
X164873300Y-103601700D01*
X168125300Y-103601700D01*
X168125300Y-104703700D01*
X168125300Y-104703700D01*
G37*
G36*
X168125300Y-102163700D02*
G01*
X164873300Y-102163700D01*
X164873300Y-101061700D01*
X168125300Y-101061700D01*
X168125300Y-102163700D01*
X168125300Y-102163700D01*
G37*
G36*
X173175300Y-102163700D02*
G01*
X169923300Y-102163700D01*
X169923300Y-101061700D01*
X173175300Y-101061700D01*
X173175300Y-102163700D01*
X173175300Y-102163700D01*
G37*
G36*
X173175300Y-99623700D02*
G01*
X169923300Y-99623700D01*
X169923300Y-98521700D01*
X173175300Y-98521700D01*
X173175300Y-99623700D01*
X173175300Y-99623700D01*
G37*
G36*
X168125300Y-99623700D02*
G01*
X164873300Y-99623700D01*
X164873300Y-98521700D01*
X168125300Y-98521700D01*
X168125300Y-99623700D01*
X168125300Y-99623700D01*
G37*
G36*
X146944928Y-96540764D02*
G01*
X146966009Y-96547160D01*
X146985445Y-96557548D01*
X147002476Y-96571524D01*
X147016452Y-96588555D01*
X147026840Y-96607991D01*
X147033236Y-96629072D01*
X147036000Y-96657140D01*
X147036000Y-98570860D01*
X147033236Y-98598928D01*
X147026840Y-98620009D01*
X147016452Y-98639445D01*
X147002476Y-98656476D01*
X146985445Y-98670452D01*
X146966009Y-98680840D01*
X146944928Y-98687236D01*
X146916860Y-98690000D01*
X146453140Y-98690000D01*
X146425072Y-98687236D01*
X146403991Y-98680840D01*
X146384555Y-98670452D01*
X146367524Y-98656476D01*
X146353548Y-98639445D01*
X146343160Y-98620009D01*
X146336764Y-98598928D01*
X146334000Y-98570860D01*
X146334000Y-96657140D01*
X146336764Y-96629072D01*
X146343160Y-96607991D01*
X146353548Y-96588555D01*
X146367524Y-96571524D01*
X146384555Y-96557548D01*
X146403991Y-96547160D01*
X146425072Y-96540764D01*
X146453140Y-96538000D01*
X146916860Y-96538000D01*
X146944928Y-96540764D01*
X146944928Y-96540764D01*
G37*
G36*
X138054928Y-96540764D02*
G01*
X138076009Y-96547160D01*
X138095445Y-96557548D01*
X138112476Y-96571524D01*
X138126452Y-96588555D01*
X138136840Y-96607991D01*
X138143236Y-96629072D01*
X138146000Y-96657140D01*
X138146000Y-98570860D01*
X138143236Y-98598928D01*
X138136840Y-98620009D01*
X138126452Y-98639445D01*
X138112476Y-98656476D01*
X138095445Y-98670452D01*
X138076009Y-98680840D01*
X138054928Y-98687236D01*
X138026860Y-98690000D01*
X137563140Y-98690000D01*
X137535072Y-98687236D01*
X137513991Y-98680840D01*
X137494555Y-98670452D01*
X137477524Y-98656476D01*
X137463548Y-98639445D01*
X137453160Y-98620009D01*
X137446764Y-98598928D01*
X137444000Y-98570860D01*
X137444000Y-96657140D01*
X137446764Y-96629072D01*
X137453160Y-96607991D01*
X137463548Y-96588555D01*
X137477524Y-96571524D01*
X137494555Y-96557548D01*
X137513991Y-96547160D01*
X137535072Y-96540764D01*
X137563140Y-96538000D01*
X138026860Y-96538000D01*
X138054928Y-96540764D01*
X138054928Y-96540764D01*
G37*
G36*
X136784928Y-96540764D02*
G01*
X136806009Y-96547160D01*
X136825445Y-96557548D01*
X136842476Y-96571524D01*
X136856452Y-96588555D01*
X136866840Y-96607991D01*
X136873236Y-96629072D01*
X136876000Y-96657140D01*
X136876000Y-98570860D01*
X136873236Y-98598928D01*
X136866840Y-98620009D01*
X136856452Y-98639445D01*
X136842476Y-98656476D01*
X136825445Y-98670452D01*
X136806009Y-98680840D01*
X136784928Y-98687236D01*
X136756860Y-98690000D01*
X136293140Y-98690000D01*
X136265072Y-98687236D01*
X136243991Y-98680840D01*
X136224555Y-98670452D01*
X136207524Y-98656476D01*
X136193548Y-98639445D01*
X136183160Y-98620009D01*
X136176764Y-98598928D01*
X136174000Y-98570860D01*
X136174000Y-96657140D01*
X136176764Y-96629072D01*
X136183160Y-96607991D01*
X136193548Y-96588555D01*
X136207524Y-96571524D01*
X136224555Y-96557548D01*
X136243991Y-96547160D01*
X136265072Y-96540764D01*
X136293140Y-96538000D01*
X136756860Y-96538000D01*
X136784928Y-96540764D01*
X136784928Y-96540764D01*
G37*
G36*
X135514928Y-96540764D02*
G01*
X135536009Y-96547160D01*
X135555445Y-96557548D01*
X135572476Y-96571524D01*
X135586452Y-96588555D01*
X135596840Y-96607991D01*
X135603236Y-96629072D01*
X135606000Y-96657140D01*
X135606000Y-98570860D01*
X135603236Y-98598928D01*
X135596840Y-98620009D01*
X135586452Y-98639445D01*
X135572476Y-98656476D01*
X135555445Y-98670452D01*
X135536009Y-98680840D01*
X135514928Y-98687236D01*
X135486860Y-98690000D01*
X135023140Y-98690000D01*
X134995072Y-98687236D01*
X134973991Y-98680840D01*
X134954555Y-98670452D01*
X134937524Y-98656476D01*
X134923548Y-98639445D01*
X134913160Y-98620009D01*
X134906764Y-98598928D01*
X134904000Y-98570860D01*
X134904000Y-96657140D01*
X134906764Y-96629072D01*
X134913160Y-96607991D01*
X134923548Y-96588555D01*
X134937524Y-96571524D01*
X134954555Y-96557548D01*
X134973991Y-96547160D01*
X134995072Y-96540764D01*
X135023140Y-96538000D01*
X135486860Y-96538000D01*
X135514928Y-96540764D01*
X135514928Y-96540764D01*
G37*
G36*
X134244928Y-96540764D02*
G01*
X134266009Y-96547160D01*
X134285445Y-96557548D01*
X134302476Y-96571524D01*
X134316452Y-96588555D01*
X134326840Y-96607991D01*
X134333236Y-96629072D01*
X134336000Y-96657140D01*
X134336000Y-98570860D01*
X134333236Y-98598928D01*
X134326840Y-98620009D01*
X134316452Y-98639445D01*
X134302476Y-98656476D01*
X134285445Y-98670452D01*
X134266009Y-98680840D01*
X134244928Y-98687236D01*
X134216860Y-98690000D01*
X133753140Y-98690000D01*
X133725072Y-98687236D01*
X133703991Y-98680840D01*
X133684555Y-98670452D01*
X133667524Y-98656476D01*
X133653548Y-98639445D01*
X133643160Y-98620009D01*
X133636764Y-98598928D01*
X133634000Y-98570860D01*
X133634000Y-96657140D01*
X133636764Y-96629072D01*
X133643160Y-96607991D01*
X133653548Y-96588555D01*
X133667524Y-96571524D01*
X133684555Y-96557548D01*
X133703991Y-96547160D01*
X133725072Y-96540764D01*
X133753140Y-96538000D01*
X134216860Y-96538000D01*
X134244928Y-96540764D01*
X134244928Y-96540764D01*
G37*
G36*
X140594928Y-96540764D02*
G01*
X140616009Y-96547160D01*
X140635445Y-96557548D01*
X140652476Y-96571524D01*
X140666452Y-96588555D01*
X140676840Y-96607991D01*
X140683236Y-96629072D01*
X140686000Y-96657140D01*
X140686000Y-98570860D01*
X140683236Y-98598928D01*
X140676840Y-98620009D01*
X140666452Y-98639445D01*
X140652476Y-98656476D01*
X140635445Y-98670452D01*
X140616009Y-98680840D01*
X140594928Y-98687236D01*
X140566860Y-98690000D01*
X140103140Y-98690000D01*
X140075072Y-98687236D01*
X140053991Y-98680840D01*
X140034555Y-98670452D01*
X140017524Y-98656476D01*
X140003548Y-98639445D01*
X139993160Y-98620009D01*
X139986764Y-98598928D01*
X139984000Y-98570860D01*
X139984000Y-96657140D01*
X139986764Y-96629072D01*
X139993160Y-96607991D01*
X140003548Y-96588555D01*
X140017524Y-96571524D01*
X140034555Y-96557548D01*
X140053991Y-96547160D01*
X140075072Y-96540764D01*
X140103140Y-96538000D01*
X140566860Y-96538000D01*
X140594928Y-96540764D01*
X140594928Y-96540764D01*
G37*
G36*
X141864928Y-96540764D02*
G01*
X141886009Y-96547160D01*
X141905445Y-96557548D01*
X141922476Y-96571524D01*
X141936452Y-96588555D01*
X141946840Y-96607991D01*
X141953236Y-96629072D01*
X141956000Y-96657140D01*
X141956000Y-98570860D01*
X141953236Y-98598928D01*
X141946840Y-98620009D01*
X141936452Y-98639445D01*
X141922476Y-98656476D01*
X141905445Y-98670452D01*
X141886009Y-98680840D01*
X141864928Y-98687236D01*
X141836860Y-98690000D01*
X141373140Y-98690000D01*
X141345072Y-98687236D01*
X141323991Y-98680840D01*
X141304555Y-98670452D01*
X141287524Y-98656476D01*
X141273548Y-98639445D01*
X141263160Y-98620009D01*
X141256764Y-98598928D01*
X141254000Y-98570860D01*
X141254000Y-96657140D01*
X141256764Y-96629072D01*
X141263160Y-96607991D01*
X141273548Y-96588555D01*
X141287524Y-96571524D01*
X141304555Y-96557548D01*
X141323991Y-96547160D01*
X141345072Y-96540764D01*
X141373140Y-96538000D01*
X141836860Y-96538000D01*
X141864928Y-96540764D01*
X141864928Y-96540764D01*
G37*
G36*
X143134928Y-96540764D02*
G01*
X143156009Y-96547160D01*
X143175445Y-96557548D01*
X143192476Y-96571524D01*
X143206452Y-96588555D01*
X143216840Y-96607991D01*
X143223236Y-96629072D01*
X143226000Y-96657140D01*
X143226000Y-98570860D01*
X143223236Y-98598928D01*
X143216840Y-98620009D01*
X143206452Y-98639445D01*
X143192476Y-98656476D01*
X143175445Y-98670452D01*
X143156009Y-98680840D01*
X143134928Y-98687236D01*
X143106860Y-98690000D01*
X142643140Y-98690000D01*
X142615072Y-98687236D01*
X142593991Y-98680840D01*
X142574555Y-98670452D01*
X142557524Y-98656476D01*
X142543548Y-98639445D01*
X142533160Y-98620009D01*
X142526764Y-98598928D01*
X142524000Y-98570860D01*
X142524000Y-96657140D01*
X142526764Y-96629072D01*
X142533160Y-96607991D01*
X142543548Y-96588555D01*
X142557524Y-96571524D01*
X142574555Y-96557548D01*
X142593991Y-96547160D01*
X142615072Y-96540764D01*
X142643140Y-96538000D01*
X143106860Y-96538000D01*
X143134928Y-96540764D01*
X143134928Y-96540764D01*
G37*
G36*
X144404928Y-96540764D02*
G01*
X144426009Y-96547160D01*
X144445445Y-96557548D01*
X144462476Y-96571524D01*
X144476452Y-96588555D01*
X144486840Y-96607991D01*
X144493236Y-96629072D01*
X144496000Y-96657140D01*
X144496000Y-98570860D01*
X144493236Y-98598928D01*
X144486840Y-98620009D01*
X144476452Y-98639445D01*
X144462476Y-98656476D01*
X144445445Y-98670452D01*
X144426009Y-98680840D01*
X144404928Y-98687236D01*
X144376860Y-98690000D01*
X143913140Y-98690000D01*
X143885072Y-98687236D01*
X143863991Y-98680840D01*
X143844555Y-98670452D01*
X143827524Y-98656476D01*
X143813548Y-98639445D01*
X143803160Y-98620009D01*
X143796764Y-98598928D01*
X143794000Y-98570860D01*
X143794000Y-96657140D01*
X143796764Y-96629072D01*
X143803160Y-96607991D01*
X143813548Y-96588555D01*
X143827524Y-96571524D01*
X143844555Y-96557548D01*
X143863991Y-96547160D01*
X143885072Y-96540764D01*
X143913140Y-96538000D01*
X144376860Y-96538000D01*
X144404928Y-96540764D01*
X144404928Y-96540764D01*
G37*
G36*
X139324928Y-96540764D02*
G01*
X139346009Y-96547160D01*
X139365445Y-96557548D01*
X139382476Y-96571524D01*
X139396452Y-96588555D01*
X139406840Y-96607991D01*
X139413236Y-96629072D01*
X139416000Y-96657140D01*
X139416000Y-98570860D01*
X139413236Y-98598928D01*
X139406840Y-98620009D01*
X139396452Y-98639445D01*
X139382476Y-98656476D01*
X139365445Y-98670452D01*
X139346009Y-98680840D01*
X139324928Y-98687236D01*
X139296860Y-98690000D01*
X138833140Y-98690000D01*
X138805072Y-98687236D01*
X138783991Y-98680840D01*
X138764555Y-98670452D01*
X138747524Y-98656476D01*
X138733548Y-98639445D01*
X138723160Y-98620009D01*
X138716764Y-98598928D01*
X138714000Y-98570860D01*
X138714000Y-96657140D01*
X138716764Y-96629072D01*
X138723160Y-96607991D01*
X138733548Y-96588555D01*
X138747524Y-96571524D01*
X138764555Y-96557548D01*
X138783991Y-96547160D01*
X138805072Y-96540764D01*
X138833140Y-96538000D01*
X139296860Y-96538000D01*
X139324928Y-96540764D01*
X139324928Y-96540764D01*
G37*
G36*
X145674928Y-96540764D02*
G01*
X145696009Y-96547160D01*
X145715445Y-96557548D01*
X145732476Y-96571524D01*
X145746452Y-96588555D01*
X145756840Y-96607991D01*
X145763236Y-96629072D01*
X145766000Y-96657140D01*
X145766000Y-98570860D01*
X145763236Y-98598928D01*
X145756840Y-98620009D01*
X145746452Y-98639445D01*
X145732476Y-98656476D01*
X145715445Y-98670452D01*
X145696009Y-98680840D01*
X145674928Y-98687236D01*
X145646860Y-98690000D01*
X145183140Y-98690000D01*
X145155072Y-98687236D01*
X145133991Y-98680840D01*
X145114555Y-98670452D01*
X145097524Y-98656476D01*
X145083548Y-98639445D01*
X145073160Y-98620009D01*
X145066764Y-98598928D01*
X145064000Y-98570860D01*
X145064000Y-96657140D01*
X145066764Y-96629072D01*
X145073160Y-96607991D01*
X145083548Y-96588555D01*
X145097524Y-96571524D01*
X145114555Y-96557548D01*
X145133991Y-96547160D01*
X145155072Y-96540764D01*
X145183140Y-96538000D01*
X145646860Y-96538000D01*
X145674928Y-96540764D01*
X145674928Y-96540764D01*
G37*
G36*
X148214928Y-96540764D02*
G01*
X148236009Y-96547160D01*
X148255445Y-96557548D01*
X148272476Y-96571524D01*
X148286452Y-96588555D01*
X148296840Y-96607991D01*
X148303236Y-96629072D01*
X148306000Y-96657140D01*
X148306000Y-98570860D01*
X148303236Y-98598928D01*
X148296840Y-98620009D01*
X148286452Y-98639445D01*
X148272476Y-98656476D01*
X148255445Y-98670452D01*
X148236009Y-98680840D01*
X148214928Y-98687236D01*
X148186860Y-98690000D01*
X147723140Y-98690000D01*
X147695072Y-98687236D01*
X147673991Y-98680840D01*
X147654555Y-98670452D01*
X147637524Y-98656476D01*
X147623548Y-98639445D01*
X147613160Y-98620009D01*
X147606764Y-98598928D01*
X147604000Y-98570860D01*
X147604000Y-96657140D01*
X147606764Y-96629072D01*
X147613160Y-96607991D01*
X147623548Y-96588555D01*
X147637524Y-96571524D01*
X147654555Y-96557548D01*
X147673991Y-96547160D01*
X147695072Y-96540764D01*
X147723140Y-96538000D01*
X148186860Y-96538000D01*
X148214928Y-96540764D01*
X148214928Y-96540764D01*
G37*
G36*
X204247328Y-95816864D02*
G01*
X204268409Y-95823260D01*
X204287845Y-95833648D01*
X204304876Y-95847624D01*
X204318852Y-95864655D01*
X204329240Y-95884091D01*
X204335636Y-95905172D01*
X204338400Y-95933240D01*
X204338400Y-97846960D01*
X204335636Y-97875028D01*
X204329240Y-97896109D01*
X204318852Y-97915545D01*
X204304876Y-97932576D01*
X204287845Y-97946552D01*
X204268409Y-97956940D01*
X204247328Y-97963336D01*
X204219260Y-97966100D01*
X203755540Y-97966100D01*
X203727472Y-97963336D01*
X203706391Y-97956940D01*
X203686955Y-97946552D01*
X203669924Y-97932576D01*
X203655948Y-97915545D01*
X203645560Y-97896109D01*
X203639164Y-97875028D01*
X203636400Y-97846960D01*
X203636400Y-95933240D01*
X203639164Y-95905172D01*
X203645560Y-95884091D01*
X203655948Y-95864655D01*
X203669924Y-95847624D01*
X203686955Y-95833648D01*
X203706391Y-95823260D01*
X203727472Y-95816864D01*
X203755540Y-95814100D01*
X204219260Y-95814100D01*
X204247328Y-95816864D01*
X204247328Y-95816864D01*
G37*
G36*
X201707328Y-95816864D02*
G01*
X201728409Y-95823260D01*
X201747845Y-95833648D01*
X201764876Y-95847624D01*
X201778852Y-95864655D01*
X201789240Y-95884091D01*
X201795636Y-95905172D01*
X201798400Y-95933240D01*
X201798400Y-97846960D01*
X201795636Y-97875028D01*
X201789240Y-97896109D01*
X201778852Y-97915545D01*
X201764876Y-97932576D01*
X201747845Y-97946552D01*
X201728409Y-97956940D01*
X201707328Y-97963336D01*
X201679260Y-97966100D01*
X201215540Y-97966100D01*
X201187472Y-97963336D01*
X201166391Y-97956940D01*
X201146955Y-97946552D01*
X201129924Y-97932576D01*
X201115948Y-97915545D01*
X201105560Y-97896109D01*
X201099164Y-97875028D01*
X201096400Y-97846960D01*
X201096400Y-95933240D01*
X201099164Y-95905172D01*
X201105560Y-95884091D01*
X201115948Y-95864655D01*
X201129924Y-95847624D01*
X201146955Y-95833648D01*
X201166391Y-95823260D01*
X201187472Y-95816864D01*
X201215540Y-95814100D01*
X201679260Y-95814100D01*
X201707328Y-95816864D01*
X201707328Y-95816864D01*
G37*
G36*
X199167328Y-95816864D02*
G01*
X199188409Y-95823260D01*
X199207845Y-95833648D01*
X199224876Y-95847624D01*
X199238852Y-95864655D01*
X199249240Y-95884091D01*
X199255636Y-95905172D01*
X199258400Y-95933240D01*
X199258400Y-97846960D01*
X199255636Y-97875028D01*
X199249240Y-97896109D01*
X199238852Y-97915545D01*
X199224876Y-97932576D01*
X199207845Y-97946552D01*
X199188409Y-97956940D01*
X199167328Y-97963336D01*
X199139260Y-97966100D01*
X198675540Y-97966100D01*
X198647472Y-97963336D01*
X198626391Y-97956940D01*
X198606955Y-97946552D01*
X198589924Y-97932576D01*
X198575948Y-97915545D01*
X198565560Y-97896109D01*
X198559164Y-97875028D01*
X198556400Y-97846960D01*
X198556400Y-95933240D01*
X198559164Y-95905172D01*
X198565560Y-95884091D01*
X198575948Y-95864655D01*
X198589924Y-95847624D01*
X198606955Y-95833648D01*
X198626391Y-95823260D01*
X198647472Y-95816864D01*
X198675540Y-95814100D01*
X199139260Y-95814100D01*
X199167328Y-95816864D01*
X199167328Y-95816864D01*
G37*
G36*
X197897328Y-95816864D02*
G01*
X197918409Y-95823260D01*
X197937845Y-95833648D01*
X197954876Y-95847624D01*
X197968852Y-95864655D01*
X197979240Y-95884091D01*
X197985636Y-95905172D01*
X197988400Y-95933240D01*
X197988400Y-97846960D01*
X197985636Y-97875028D01*
X197979240Y-97896109D01*
X197968852Y-97915545D01*
X197954876Y-97932576D01*
X197937845Y-97946552D01*
X197918409Y-97956940D01*
X197897328Y-97963336D01*
X197869260Y-97966100D01*
X197405540Y-97966100D01*
X197377472Y-97963336D01*
X197356391Y-97956940D01*
X197336955Y-97946552D01*
X197319924Y-97932576D01*
X197305948Y-97915545D01*
X197295560Y-97896109D01*
X197289164Y-97875028D01*
X197286400Y-97846960D01*
X197286400Y-95933240D01*
X197289164Y-95905172D01*
X197295560Y-95884091D01*
X197305948Y-95864655D01*
X197319924Y-95847624D01*
X197336955Y-95833648D01*
X197356391Y-95823260D01*
X197377472Y-95816864D01*
X197405540Y-95814100D01*
X197869260Y-95814100D01*
X197897328Y-95816864D01*
X197897328Y-95816864D01*
G37*
G36*
X196627328Y-95816864D02*
G01*
X196648409Y-95823260D01*
X196667845Y-95833648D01*
X196684876Y-95847624D01*
X196698852Y-95864655D01*
X196709240Y-95884091D01*
X196715636Y-95905172D01*
X196718400Y-95933240D01*
X196718400Y-97846960D01*
X196715636Y-97875028D01*
X196709240Y-97896109D01*
X196698852Y-97915545D01*
X196684876Y-97932576D01*
X196667845Y-97946552D01*
X196648409Y-97956940D01*
X196627328Y-97963336D01*
X196599260Y-97966100D01*
X196135540Y-97966100D01*
X196107472Y-97963336D01*
X196086391Y-97956940D01*
X196066955Y-97946552D01*
X196049924Y-97932576D01*
X196035948Y-97915545D01*
X196025560Y-97896109D01*
X196019164Y-97875028D01*
X196016400Y-97846960D01*
X196016400Y-95933240D01*
X196019164Y-95905172D01*
X196025560Y-95884091D01*
X196035948Y-95864655D01*
X196049924Y-95847624D01*
X196066955Y-95833648D01*
X196086391Y-95823260D01*
X196107472Y-95816864D01*
X196135540Y-95814100D01*
X196599260Y-95814100D01*
X196627328Y-95816864D01*
X196627328Y-95816864D01*
G37*
G36*
X195357328Y-95816864D02*
G01*
X195378409Y-95823260D01*
X195397845Y-95833648D01*
X195414876Y-95847624D01*
X195428852Y-95864655D01*
X195439240Y-95884091D01*
X195445636Y-95905172D01*
X195448400Y-95933240D01*
X195448400Y-97846960D01*
X195445636Y-97875028D01*
X195439240Y-97896109D01*
X195428852Y-97915545D01*
X195414876Y-97932576D01*
X195397845Y-97946552D01*
X195378409Y-97956940D01*
X195357328Y-97963336D01*
X195329260Y-97966100D01*
X194865540Y-97966100D01*
X194837472Y-97963336D01*
X194816391Y-97956940D01*
X194796955Y-97946552D01*
X194779924Y-97932576D01*
X194765948Y-97915545D01*
X194755560Y-97896109D01*
X194749164Y-97875028D01*
X194746400Y-97846960D01*
X194746400Y-95933240D01*
X194749164Y-95905172D01*
X194755560Y-95884091D01*
X194765948Y-95864655D01*
X194779924Y-95847624D01*
X194796955Y-95833648D01*
X194816391Y-95823260D01*
X194837472Y-95816864D01*
X194865540Y-95814100D01*
X195329260Y-95814100D01*
X195357328Y-95816864D01*
X195357328Y-95816864D01*
G37*
G36*
X192817328Y-95816864D02*
G01*
X192838409Y-95823260D01*
X192857845Y-95833648D01*
X192874876Y-95847624D01*
X192888852Y-95864655D01*
X192899240Y-95884091D01*
X192905636Y-95905172D01*
X192908400Y-95933240D01*
X192908400Y-97846960D01*
X192905636Y-97875028D01*
X192899240Y-97896109D01*
X192888852Y-97915545D01*
X192874876Y-97932576D01*
X192857845Y-97946552D01*
X192838409Y-97956940D01*
X192817328Y-97963336D01*
X192789260Y-97966100D01*
X192325540Y-97966100D01*
X192297472Y-97963336D01*
X192276391Y-97956940D01*
X192256955Y-97946552D01*
X192239924Y-97932576D01*
X192225948Y-97915545D01*
X192215560Y-97896109D01*
X192209164Y-97875028D01*
X192206400Y-97846960D01*
X192206400Y-95933240D01*
X192209164Y-95905172D01*
X192215560Y-95884091D01*
X192225948Y-95864655D01*
X192239924Y-95847624D01*
X192256955Y-95833648D01*
X192276391Y-95823260D01*
X192297472Y-95816864D01*
X192325540Y-95814100D01*
X192789260Y-95814100D01*
X192817328Y-95816864D01*
X192817328Y-95816864D01*
G37*
G36*
X191547328Y-95816864D02*
G01*
X191568409Y-95823260D01*
X191587845Y-95833648D01*
X191604876Y-95847624D01*
X191618852Y-95864655D01*
X191629240Y-95884091D01*
X191635636Y-95905172D01*
X191638400Y-95933240D01*
X191638400Y-97846960D01*
X191635636Y-97875028D01*
X191629240Y-97896109D01*
X191618852Y-97915545D01*
X191604876Y-97932576D01*
X191587845Y-97946552D01*
X191568409Y-97956940D01*
X191547328Y-97963336D01*
X191519260Y-97966100D01*
X191055540Y-97966100D01*
X191027472Y-97963336D01*
X191006391Y-97956940D01*
X190986955Y-97946552D01*
X190969924Y-97932576D01*
X190955948Y-97915545D01*
X190945560Y-97896109D01*
X190939164Y-97875028D01*
X190936400Y-97846960D01*
X190936400Y-95933240D01*
X190939164Y-95905172D01*
X190945560Y-95884091D01*
X190955948Y-95864655D01*
X190969924Y-95847624D01*
X190986955Y-95833648D01*
X191006391Y-95823260D01*
X191027472Y-95816864D01*
X191055540Y-95814100D01*
X191519260Y-95814100D01*
X191547328Y-95816864D01*
X191547328Y-95816864D01*
G37*
G36*
X190277328Y-95816864D02*
G01*
X190298409Y-95823260D01*
X190317845Y-95833648D01*
X190334876Y-95847624D01*
X190348852Y-95864655D01*
X190359240Y-95884091D01*
X190365636Y-95905172D01*
X190368400Y-95933240D01*
X190368400Y-97846960D01*
X190365636Y-97875028D01*
X190359240Y-97896109D01*
X190348852Y-97915545D01*
X190334876Y-97932576D01*
X190317845Y-97946552D01*
X190298409Y-97956940D01*
X190277328Y-97963336D01*
X190249260Y-97966100D01*
X189785540Y-97966100D01*
X189757472Y-97963336D01*
X189736391Y-97956940D01*
X189716955Y-97946552D01*
X189699924Y-97932576D01*
X189685948Y-97915545D01*
X189675560Y-97896109D01*
X189669164Y-97875028D01*
X189666400Y-97846960D01*
X189666400Y-95933240D01*
X189669164Y-95905172D01*
X189675560Y-95884091D01*
X189685948Y-95864655D01*
X189699924Y-95847624D01*
X189716955Y-95833648D01*
X189736391Y-95823260D01*
X189757472Y-95816864D01*
X189785540Y-95814100D01*
X190249260Y-95814100D01*
X190277328Y-95816864D01*
X190277328Y-95816864D01*
G37*
G36*
X202977328Y-95816864D02*
G01*
X202998409Y-95823260D01*
X203017845Y-95833648D01*
X203034876Y-95847624D01*
X203048852Y-95864655D01*
X203059240Y-95884091D01*
X203065636Y-95905172D01*
X203068400Y-95933240D01*
X203068400Y-97846960D01*
X203065636Y-97875028D01*
X203059240Y-97896109D01*
X203048852Y-97915545D01*
X203034876Y-97932576D01*
X203017845Y-97946552D01*
X202998409Y-97956940D01*
X202977328Y-97963336D01*
X202949260Y-97966100D01*
X202485540Y-97966100D01*
X202457472Y-97963336D01*
X202436391Y-97956940D01*
X202416955Y-97946552D01*
X202399924Y-97932576D01*
X202385948Y-97915545D01*
X202375560Y-97896109D01*
X202369164Y-97875028D01*
X202366400Y-97846960D01*
X202366400Y-95933240D01*
X202369164Y-95905172D01*
X202375560Y-95884091D01*
X202385948Y-95864655D01*
X202399924Y-95847624D01*
X202416955Y-95833648D01*
X202436391Y-95823260D01*
X202457472Y-95816864D01*
X202485540Y-95814100D01*
X202949260Y-95814100D01*
X202977328Y-95816864D01*
X202977328Y-95816864D01*
G37*
G36*
X200437328Y-95816864D02*
G01*
X200458409Y-95823260D01*
X200477845Y-95833648D01*
X200494876Y-95847624D01*
X200508852Y-95864655D01*
X200519240Y-95884091D01*
X200525636Y-95905172D01*
X200528400Y-95933240D01*
X200528400Y-97846960D01*
X200525636Y-97875028D01*
X200519240Y-97896109D01*
X200508852Y-97915545D01*
X200494876Y-97932576D01*
X200477845Y-97946552D01*
X200458409Y-97956940D01*
X200437328Y-97963336D01*
X200409260Y-97966100D01*
X199945540Y-97966100D01*
X199917472Y-97963336D01*
X199896391Y-97956940D01*
X199876955Y-97946552D01*
X199859924Y-97932576D01*
X199845948Y-97915545D01*
X199835560Y-97896109D01*
X199829164Y-97875028D01*
X199826400Y-97846960D01*
X199826400Y-95933240D01*
X199829164Y-95905172D01*
X199835560Y-95884091D01*
X199845948Y-95864655D01*
X199859924Y-95847624D01*
X199876955Y-95833648D01*
X199896391Y-95823260D01*
X199917472Y-95816864D01*
X199945540Y-95814100D01*
X200409260Y-95814100D01*
X200437328Y-95816864D01*
X200437328Y-95816864D01*
G37*
G36*
X194087328Y-95816864D02*
G01*
X194108409Y-95823260D01*
X194127845Y-95833648D01*
X194144876Y-95847624D01*
X194158852Y-95864655D01*
X194169240Y-95884091D01*
X194175636Y-95905172D01*
X194178400Y-95933240D01*
X194178400Y-97846960D01*
X194175636Y-97875028D01*
X194169240Y-97896109D01*
X194158852Y-97915545D01*
X194144876Y-97932576D01*
X194127845Y-97946552D01*
X194108409Y-97956940D01*
X194087328Y-97963336D01*
X194059260Y-97966100D01*
X193595540Y-97966100D01*
X193567472Y-97963336D01*
X193546391Y-97956940D01*
X193526955Y-97946552D01*
X193509924Y-97932576D01*
X193495948Y-97915545D01*
X193485560Y-97896109D01*
X193479164Y-97875028D01*
X193476400Y-97846960D01*
X193476400Y-95933240D01*
X193479164Y-95905172D01*
X193485560Y-95884091D01*
X193495948Y-95864655D01*
X193509924Y-95847624D01*
X193526955Y-95833648D01*
X193546391Y-95823260D01*
X193567472Y-95816864D01*
X193595540Y-95814100D01*
X194059260Y-95814100D01*
X194087328Y-95816864D01*
X194087328Y-95816864D01*
G37*
G36*
X168125300Y-97083700D02*
G01*
X164873300Y-97083700D01*
X164873300Y-95981700D01*
X168125300Y-95981700D01*
X168125300Y-97083700D01*
X168125300Y-97083700D01*
G37*
G36*
X173175300Y-97083700D02*
G01*
X169923300Y-97083700D01*
X169923300Y-95981700D01*
X173175300Y-95981700D01*
X173175300Y-97083700D01*
X173175300Y-97083700D01*
G37*
G36*
X173175300Y-94543700D02*
G01*
X169923300Y-94543700D01*
X169923300Y-93441700D01*
X173175300Y-93441700D01*
X173175300Y-94543700D01*
X173175300Y-94543700D01*
G37*
G36*
X168125300Y-94543700D02*
G01*
X164873300Y-94543700D01*
X164873300Y-93441700D01*
X168125300Y-93441700D01*
X168125300Y-94543700D01*
X168125300Y-94543700D01*
G37*
G36*
X173175300Y-92003700D02*
G01*
X169923300Y-92003700D01*
X169923300Y-90901700D01*
X173175300Y-90901700D01*
X173175300Y-92003700D01*
X173175300Y-92003700D01*
G37*
G36*
X168125300Y-92003700D02*
G01*
X164873300Y-92003700D01*
X164873300Y-90901700D01*
X168125300Y-90901700D01*
X168125300Y-92003700D01*
X168125300Y-92003700D01*
G37*
G36*
X168125300Y-89463700D02*
G01*
X164873300Y-89463700D01*
X164873300Y-88361700D01*
X168125300Y-88361700D01*
X168125300Y-89463700D01*
X168125300Y-89463700D01*
G37*
G36*
X173175300Y-89463700D02*
G01*
X169923300Y-89463700D01*
X169923300Y-88361700D01*
X173175300Y-88361700D01*
X173175300Y-89463700D01*
X173175300Y-89463700D01*
G37*
G36*
X134244928Y-87240764D02*
G01*
X134266009Y-87247160D01*
X134285445Y-87257548D01*
X134302476Y-87271524D01*
X134316452Y-87288555D01*
X134326840Y-87307991D01*
X134333236Y-87329072D01*
X134336000Y-87357140D01*
X134336000Y-89270860D01*
X134333236Y-89298928D01*
X134326840Y-89320009D01*
X134316452Y-89339445D01*
X134302476Y-89356476D01*
X134285445Y-89370452D01*
X134266009Y-89380840D01*
X134244928Y-89387236D01*
X134216860Y-89390000D01*
X133753140Y-89390000D01*
X133725072Y-89387236D01*
X133703991Y-89380840D01*
X133684555Y-89370452D01*
X133667524Y-89356476D01*
X133653548Y-89339445D01*
X133643160Y-89320009D01*
X133636764Y-89298928D01*
X133634000Y-89270860D01*
X133634000Y-87357140D01*
X133636764Y-87329072D01*
X133643160Y-87307991D01*
X133653548Y-87288555D01*
X133667524Y-87271524D01*
X133684555Y-87257548D01*
X133703991Y-87247160D01*
X133725072Y-87240764D01*
X133753140Y-87238000D01*
X134216860Y-87238000D01*
X134244928Y-87240764D01*
X134244928Y-87240764D01*
G37*
G36*
X135514928Y-87240764D02*
G01*
X135536009Y-87247160D01*
X135555445Y-87257548D01*
X135572476Y-87271524D01*
X135586452Y-87288555D01*
X135596840Y-87307991D01*
X135603236Y-87329072D01*
X135606000Y-87357140D01*
X135606000Y-89270860D01*
X135603236Y-89298928D01*
X135596840Y-89320009D01*
X135586452Y-89339445D01*
X135572476Y-89356476D01*
X135555445Y-89370452D01*
X135536009Y-89380840D01*
X135514928Y-89387236D01*
X135486860Y-89390000D01*
X135023140Y-89390000D01*
X134995072Y-89387236D01*
X134973991Y-89380840D01*
X134954555Y-89370452D01*
X134937524Y-89356476D01*
X134923548Y-89339445D01*
X134913160Y-89320009D01*
X134906764Y-89298928D01*
X134904000Y-89270860D01*
X134904000Y-87357140D01*
X134906764Y-87329072D01*
X134913160Y-87307991D01*
X134923548Y-87288555D01*
X134937524Y-87271524D01*
X134954555Y-87257548D01*
X134973991Y-87247160D01*
X134995072Y-87240764D01*
X135023140Y-87238000D01*
X135486860Y-87238000D01*
X135514928Y-87240764D01*
X135514928Y-87240764D01*
G37*
G36*
X138054928Y-87240764D02*
G01*
X138076009Y-87247160D01*
X138095445Y-87257548D01*
X138112476Y-87271524D01*
X138126452Y-87288555D01*
X138136840Y-87307991D01*
X138143236Y-87329072D01*
X138146000Y-87357140D01*
X138146000Y-89270860D01*
X138143236Y-89298928D01*
X138136840Y-89320009D01*
X138126452Y-89339445D01*
X138112476Y-89356476D01*
X138095445Y-89370452D01*
X138076009Y-89380840D01*
X138054928Y-89387236D01*
X138026860Y-89390000D01*
X137563140Y-89390000D01*
X137535072Y-89387236D01*
X137513991Y-89380840D01*
X137494555Y-89370452D01*
X137477524Y-89356476D01*
X137463548Y-89339445D01*
X137453160Y-89320009D01*
X137446764Y-89298928D01*
X137444000Y-89270860D01*
X137444000Y-87357140D01*
X137446764Y-87329072D01*
X137453160Y-87307991D01*
X137463548Y-87288555D01*
X137477524Y-87271524D01*
X137494555Y-87257548D01*
X137513991Y-87247160D01*
X137535072Y-87240764D01*
X137563140Y-87238000D01*
X138026860Y-87238000D01*
X138054928Y-87240764D01*
X138054928Y-87240764D01*
G37*
G36*
X139324928Y-87240764D02*
G01*
X139346009Y-87247160D01*
X139365445Y-87257548D01*
X139382476Y-87271524D01*
X139396452Y-87288555D01*
X139406840Y-87307991D01*
X139413236Y-87329072D01*
X139416000Y-87357140D01*
X139416000Y-89270860D01*
X139413236Y-89298928D01*
X139406840Y-89320009D01*
X139396452Y-89339445D01*
X139382476Y-89356476D01*
X139365445Y-89370452D01*
X139346009Y-89380840D01*
X139324928Y-89387236D01*
X139296860Y-89390000D01*
X138833140Y-89390000D01*
X138805072Y-89387236D01*
X138783991Y-89380840D01*
X138764555Y-89370452D01*
X138747524Y-89356476D01*
X138733548Y-89339445D01*
X138723160Y-89320009D01*
X138716764Y-89298928D01*
X138714000Y-89270860D01*
X138714000Y-87357140D01*
X138716764Y-87329072D01*
X138723160Y-87307991D01*
X138733548Y-87288555D01*
X138747524Y-87271524D01*
X138764555Y-87257548D01*
X138783991Y-87247160D01*
X138805072Y-87240764D01*
X138833140Y-87238000D01*
X139296860Y-87238000D01*
X139324928Y-87240764D01*
X139324928Y-87240764D01*
G37*
G36*
X140594928Y-87240764D02*
G01*
X140616009Y-87247160D01*
X140635445Y-87257548D01*
X140652476Y-87271524D01*
X140666452Y-87288555D01*
X140676840Y-87307991D01*
X140683236Y-87329072D01*
X140686000Y-87357140D01*
X140686000Y-89270860D01*
X140683236Y-89298928D01*
X140676840Y-89320009D01*
X140666452Y-89339445D01*
X140652476Y-89356476D01*
X140635445Y-89370452D01*
X140616009Y-89380840D01*
X140594928Y-89387236D01*
X140566860Y-89390000D01*
X140103140Y-89390000D01*
X140075072Y-89387236D01*
X140053991Y-89380840D01*
X140034555Y-89370452D01*
X140017524Y-89356476D01*
X140003548Y-89339445D01*
X139993160Y-89320009D01*
X139986764Y-89298928D01*
X139984000Y-89270860D01*
X139984000Y-87357140D01*
X139986764Y-87329072D01*
X139993160Y-87307991D01*
X140003548Y-87288555D01*
X140017524Y-87271524D01*
X140034555Y-87257548D01*
X140053991Y-87247160D01*
X140075072Y-87240764D01*
X140103140Y-87238000D01*
X140566860Y-87238000D01*
X140594928Y-87240764D01*
X140594928Y-87240764D01*
G37*
G36*
X141864928Y-87240764D02*
G01*
X141886009Y-87247160D01*
X141905445Y-87257548D01*
X141922476Y-87271524D01*
X141936452Y-87288555D01*
X141946840Y-87307991D01*
X141953236Y-87329072D01*
X141956000Y-87357140D01*
X141956000Y-89270860D01*
X141953236Y-89298928D01*
X141946840Y-89320009D01*
X141936452Y-89339445D01*
X141922476Y-89356476D01*
X141905445Y-89370452D01*
X141886009Y-89380840D01*
X141864928Y-89387236D01*
X141836860Y-89390000D01*
X141373140Y-89390000D01*
X141345072Y-89387236D01*
X141323991Y-89380840D01*
X141304555Y-89370452D01*
X141287524Y-89356476D01*
X141273548Y-89339445D01*
X141263160Y-89320009D01*
X141256764Y-89298928D01*
X141254000Y-89270860D01*
X141254000Y-87357140D01*
X141256764Y-87329072D01*
X141263160Y-87307991D01*
X141273548Y-87288555D01*
X141287524Y-87271524D01*
X141304555Y-87257548D01*
X141323991Y-87247160D01*
X141345072Y-87240764D01*
X141373140Y-87238000D01*
X141836860Y-87238000D01*
X141864928Y-87240764D01*
X141864928Y-87240764D01*
G37*
G36*
X144404928Y-87240764D02*
G01*
X144426009Y-87247160D01*
X144445445Y-87257548D01*
X144462476Y-87271524D01*
X144476452Y-87288555D01*
X144486840Y-87307991D01*
X144493236Y-87329072D01*
X144496000Y-87357140D01*
X144496000Y-89270860D01*
X144493236Y-89298928D01*
X144486840Y-89320009D01*
X144476452Y-89339445D01*
X144462476Y-89356476D01*
X144445445Y-89370452D01*
X144426009Y-89380840D01*
X144404928Y-89387236D01*
X144376860Y-89390000D01*
X143913140Y-89390000D01*
X143885072Y-89387236D01*
X143863991Y-89380840D01*
X143844555Y-89370452D01*
X143827524Y-89356476D01*
X143813548Y-89339445D01*
X143803160Y-89320009D01*
X143796764Y-89298928D01*
X143794000Y-89270860D01*
X143794000Y-87357140D01*
X143796764Y-87329072D01*
X143803160Y-87307991D01*
X143813548Y-87288555D01*
X143827524Y-87271524D01*
X143844555Y-87257548D01*
X143863991Y-87247160D01*
X143885072Y-87240764D01*
X143913140Y-87238000D01*
X144376860Y-87238000D01*
X144404928Y-87240764D01*
X144404928Y-87240764D01*
G37*
G36*
X143134928Y-87240764D02*
G01*
X143156009Y-87247160D01*
X143175445Y-87257548D01*
X143192476Y-87271524D01*
X143206452Y-87288555D01*
X143216840Y-87307991D01*
X143223236Y-87329072D01*
X143226000Y-87357140D01*
X143226000Y-89270860D01*
X143223236Y-89298928D01*
X143216840Y-89320009D01*
X143206452Y-89339445D01*
X143192476Y-89356476D01*
X143175445Y-89370452D01*
X143156009Y-89380840D01*
X143134928Y-89387236D01*
X143106860Y-89390000D01*
X142643140Y-89390000D01*
X142615072Y-89387236D01*
X142593991Y-89380840D01*
X142574555Y-89370452D01*
X142557524Y-89356476D01*
X142543548Y-89339445D01*
X142533160Y-89320009D01*
X142526764Y-89298928D01*
X142524000Y-89270860D01*
X142524000Y-87357140D01*
X142526764Y-87329072D01*
X142533160Y-87307991D01*
X142543548Y-87288555D01*
X142557524Y-87271524D01*
X142574555Y-87257548D01*
X142593991Y-87247160D01*
X142615072Y-87240764D01*
X142643140Y-87238000D01*
X143106860Y-87238000D01*
X143134928Y-87240764D01*
X143134928Y-87240764D01*
G37*
G36*
X136784928Y-87240764D02*
G01*
X136806009Y-87247160D01*
X136825445Y-87257548D01*
X136842476Y-87271524D01*
X136856452Y-87288555D01*
X136866840Y-87307991D01*
X136873236Y-87329072D01*
X136876000Y-87357140D01*
X136876000Y-89270860D01*
X136873236Y-89298928D01*
X136866840Y-89320009D01*
X136856452Y-89339445D01*
X136842476Y-89356476D01*
X136825445Y-89370452D01*
X136806009Y-89380840D01*
X136784928Y-89387236D01*
X136756860Y-89390000D01*
X136293140Y-89390000D01*
X136265072Y-89387236D01*
X136243991Y-89380840D01*
X136224555Y-89370452D01*
X136207524Y-89356476D01*
X136193548Y-89339445D01*
X136183160Y-89320009D01*
X136176764Y-89298928D01*
X136174000Y-89270860D01*
X136174000Y-87357140D01*
X136176764Y-87329072D01*
X136183160Y-87307991D01*
X136193548Y-87288555D01*
X136207524Y-87271524D01*
X136224555Y-87257548D01*
X136243991Y-87247160D01*
X136265072Y-87240764D01*
X136293140Y-87238000D01*
X136756860Y-87238000D01*
X136784928Y-87240764D01*
X136784928Y-87240764D01*
G37*
G36*
X148214928Y-87240764D02*
G01*
X148236009Y-87247160D01*
X148255445Y-87257548D01*
X148272476Y-87271524D01*
X148286452Y-87288555D01*
X148296840Y-87307991D01*
X148303236Y-87329072D01*
X148306000Y-87357140D01*
X148306000Y-89270860D01*
X148303236Y-89298928D01*
X148296840Y-89320009D01*
X148286452Y-89339445D01*
X148272476Y-89356476D01*
X148255445Y-89370452D01*
X148236009Y-89380840D01*
X148214928Y-89387236D01*
X148186860Y-89390000D01*
X147723140Y-89390000D01*
X147695072Y-89387236D01*
X147673991Y-89380840D01*
X147654555Y-89370452D01*
X147637524Y-89356476D01*
X147623548Y-89339445D01*
X147613160Y-89320009D01*
X147606764Y-89298928D01*
X147604000Y-89270860D01*
X147604000Y-87357140D01*
X147606764Y-87329072D01*
X147613160Y-87307991D01*
X147623548Y-87288555D01*
X147637524Y-87271524D01*
X147654555Y-87257548D01*
X147673991Y-87247160D01*
X147695072Y-87240764D01*
X147723140Y-87238000D01*
X148186860Y-87238000D01*
X148214928Y-87240764D01*
X148214928Y-87240764D01*
G37*
G36*
X145674928Y-87240764D02*
G01*
X145696009Y-87247160D01*
X145715445Y-87257548D01*
X145732476Y-87271524D01*
X145746452Y-87288555D01*
X145756840Y-87307991D01*
X145763236Y-87329072D01*
X145766000Y-87357140D01*
X145766000Y-89270860D01*
X145763236Y-89298928D01*
X145756840Y-89320009D01*
X145746452Y-89339445D01*
X145732476Y-89356476D01*
X145715445Y-89370452D01*
X145696009Y-89380840D01*
X145674928Y-89387236D01*
X145646860Y-89390000D01*
X145183140Y-89390000D01*
X145155072Y-89387236D01*
X145133991Y-89380840D01*
X145114555Y-89370452D01*
X145097524Y-89356476D01*
X145083548Y-89339445D01*
X145073160Y-89320009D01*
X145066764Y-89298928D01*
X145064000Y-89270860D01*
X145064000Y-87357140D01*
X145066764Y-87329072D01*
X145073160Y-87307991D01*
X145083548Y-87288555D01*
X145097524Y-87271524D01*
X145114555Y-87257548D01*
X145133991Y-87247160D01*
X145155072Y-87240764D01*
X145183140Y-87238000D01*
X145646860Y-87238000D01*
X145674928Y-87240764D01*
X145674928Y-87240764D01*
G37*
G36*
X146944928Y-87240764D02*
G01*
X146966009Y-87247160D01*
X146985445Y-87257548D01*
X147002476Y-87271524D01*
X147016452Y-87288555D01*
X147026840Y-87307991D01*
X147033236Y-87329072D01*
X147036000Y-87357140D01*
X147036000Y-89270860D01*
X147033236Y-89298928D01*
X147026840Y-89320009D01*
X147016452Y-89339445D01*
X147002476Y-89356476D01*
X146985445Y-89370452D01*
X146966009Y-89380840D01*
X146944928Y-89387236D01*
X146916860Y-89390000D01*
X146453140Y-89390000D01*
X146425072Y-89387236D01*
X146403991Y-89380840D01*
X146384555Y-89370452D01*
X146367524Y-89356476D01*
X146353548Y-89339445D01*
X146343160Y-89320009D01*
X146336764Y-89298928D01*
X146334000Y-89270860D01*
X146334000Y-87357140D01*
X146336764Y-87329072D01*
X146343160Y-87307991D01*
X146353548Y-87288555D01*
X146367524Y-87271524D01*
X146384555Y-87257548D01*
X146403991Y-87247160D01*
X146425072Y-87240764D01*
X146453140Y-87238000D01*
X146916860Y-87238000D01*
X146944928Y-87240764D01*
X146944928Y-87240764D01*
G37*
G36*
X190277328Y-86516864D02*
G01*
X190298409Y-86523260D01*
X190317845Y-86533648D01*
X190334876Y-86547624D01*
X190348852Y-86564655D01*
X190359240Y-86584091D01*
X190365636Y-86605172D01*
X190368400Y-86633240D01*
X190368400Y-88546960D01*
X190365636Y-88575028D01*
X190359240Y-88596109D01*
X190348852Y-88615545D01*
X190334876Y-88632576D01*
X190317845Y-88646552D01*
X190298409Y-88656940D01*
X190277328Y-88663336D01*
X190249260Y-88666100D01*
X189785540Y-88666100D01*
X189757472Y-88663336D01*
X189736391Y-88656940D01*
X189716955Y-88646552D01*
X189699924Y-88632576D01*
X189685948Y-88615545D01*
X189675560Y-88596109D01*
X189669164Y-88575028D01*
X189666400Y-88546960D01*
X189666400Y-86633240D01*
X189669164Y-86605172D01*
X189675560Y-86584091D01*
X189685948Y-86564655D01*
X189699924Y-86547624D01*
X189716955Y-86533648D01*
X189736391Y-86523260D01*
X189757472Y-86516864D01*
X189785540Y-86514100D01*
X190249260Y-86514100D01*
X190277328Y-86516864D01*
X190277328Y-86516864D01*
G37*
G36*
X202977328Y-86516864D02*
G01*
X202998409Y-86523260D01*
X203017845Y-86533648D01*
X203034876Y-86547624D01*
X203048852Y-86564655D01*
X203059240Y-86584091D01*
X203065636Y-86605172D01*
X203068400Y-86633240D01*
X203068400Y-88546960D01*
X203065636Y-88575028D01*
X203059240Y-88596109D01*
X203048852Y-88615545D01*
X203034876Y-88632576D01*
X203017845Y-88646552D01*
X202998409Y-88656940D01*
X202977328Y-88663336D01*
X202949260Y-88666100D01*
X202485540Y-88666100D01*
X202457472Y-88663336D01*
X202436391Y-88656940D01*
X202416955Y-88646552D01*
X202399924Y-88632576D01*
X202385948Y-88615545D01*
X202375560Y-88596109D01*
X202369164Y-88575028D01*
X202366400Y-88546960D01*
X202366400Y-86633240D01*
X202369164Y-86605172D01*
X202375560Y-86584091D01*
X202385948Y-86564655D01*
X202399924Y-86547624D01*
X202416955Y-86533648D01*
X202436391Y-86523260D01*
X202457472Y-86516864D01*
X202485540Y-86514100D01*
X202949260Y-86514100D01*
X202977328Y-86516864D01*
X202977328Y-86516864D01*
G37*
G36*
X201707328Y-86516864D02*
G01*
X201728409Y-86523260D01*
X201747845Y-86533648D01*
X201764876Y-86547624D01*
X201778852Y-86564655D01*
X201789240Y-86584091D01*
X201795636Y-86605172D01*
X201798400Y-86633240D01*
X201798400Y-88546960D01*
X201795636Y-88575028D01*
X201789240Y-88596109D01*
X201778852Y-88615545D01*
X201764876Y-88632576D01*
X201747845Y-88646552D01*
X201728409Y-88656940D01*
X201707328Y-88663336D01*
X201679260Y-88666100D01*
X201215540Y-88666100D01*
X201187472Y-88663336D01*
X201166391Y-88656940D01*
X201146955Y-88646552D01*
X201129924Y-88632576D01*
X201115948Y-88615545D01*
X201105560Y-88596109D01*
X201099164Y-88575028D01*
X201096400Y-88546960D01*
X201096400Y-86633240D01*
X201099164Y-86605172D01*
X201105560Y-86584091D01*
X201115948Y-86564655D01*
X201129924Y-86547624D01*
X201146955Y-86533648D01*
X201166391Y-86523260D01*
X201187472Y-86516864D01*
X201215540Y-86514100D01*
X201679260Y-86514100D01*
X201707328Y-86516864D01*
X201707328Y-86516864D01*
G37*
G36*
X192817328Y-86516864D02*
G01*
X192838409Y-86523260D01*
X192857845Y-86533648D01*
X192874876Y-86547624D01*
X192888852Y-86564655D01*
X192899240Y-86584091D01*
X192905636Y-86605172D01*
X192908400Y-86633240D01*
X192908400Y-88546960D01*
X192905636Y-88575028D01*
X192899240Y-88596109D01*
X192888852Y-88615545D01*
X192874876Y-88632576D01*
X192857845Y-88646552D01*
X192838409Y-88656940D01*
X192817328Y-88663336D01*
X192789260Y-88666100D01*
X192325540Y-88666100D01*
X192297472Y-88663336D01*
X192276391Y-88656940D01*
X192256955Y-88646552D01*
X192239924Y-88632576D01*
X192225948Y-88615545D01*
X192215560Y-88596109D01*
X192209164Y-88575028D01*
X192206400Y-88546960D01*
X192206400Y-86633240D01*
X192209164Y-86605172D01*
X192215560Y-86584091D01*
X192225948Y-86564655D01*
X192239924Y-86547624D01*
X192256955Y-86533648D01*
X192276391Y-86523260D01*
X192297472Y-86516864D01*
X192325540Y-86514100D01*
X192789260Y-86514100D01*
X192817328Y-86516864D01*
X192817328Y-86516864D01*
G37*
G36*
X194087328Y-86516864D02*
G01*
X194108409Y-86523260D01*
X194127845Y-86533648D01*
X194144876Y-86547624D01*
X194158852Y-86564655D01*
X194169240Y-86584091D01*
X194175636Y-86605172D01*
X194178400Y-86633240D01*
X194178400Y-88546960D01*
X194175636Y-88575028D01*
X194169240Y-88596109D01*
X194158852Y-88615545D01*
X194144876Y-88632576D01*
X194127845Y-88646552D01*
X194108409Y-88656940D01*
X194087328Y-88663336D01*
X194059260Y-88666100D01*
X193595540Y-88666100D01*
X193567472Y-88663336D01*
X193546391Y-88656940D01*
X193526955Y-88646552D01*
X193509924Y-88632576D01*
X193495948Y-88615545D01*
X193485560Y-88596109D01*
X193479164Y-88575028D01*
X193476400Y-88546960D01*
X193476400Y-86633240D01*
X193479164Y-86605172D01*
X193485560Y-86584091D01*
X193495948Y-86564655D01*
X193509924Y-86547624D01*
X193526955Y-86533648D01*
X193546391Y-86523260D01*
X193567472Y-86516864D01*
X193595540Y-86514100D01*
X194059260Y-86514100D01*
X194087328Y-86516864D01*
X194087328Y-86516864D01*
G37*
G36*
X195357328Y-86516864D02*
G01*
X195378409Y-86523260D01*
X195397845Y-86533648D01*
X195414876Y-86547624D01*
X195428852Y-86564655D01*
X195439240Y-86584091D01*
X195445636Y-86605172D01*
X195448400Y-86633240D01*
X195448400Y-88546960D01*
X195445636Y-88575028D01*
X195439240Y-88596109D01*
X195428852Y-88615545D01*
X195414876Y-88632576D01*
X195397845Y-88646552D01*
X195378409Y-88656940D01*
X195357328Y-88663336D01*
X195329260Y-88666100D01*
X194865540Y-88666100D01*
X194837472Y-88663336D01*
X194816391Y-88656940D01*
X194796955Y-88646552D01*
X194779924Y-88632576D01*
X194765948Y-88615545D01*
X194755560Y-88596109D01*
X194749164Y-88575028D01*
X194746400Y-88546960D01*
X194746400Y-86633240D01*
X194749164Y-86605172D01*
X194755560Y-86584091D01*
X194765948Y-86564655D01*
X194779924Y-86547624D01*
X194796955Y-86533648D01*
X194816391Y-86523260D01*
X194837472Y-86516864D01*
X194865540Y-86514100D01*
X195329260Y-86514100D01*
X195357328Y-86516864D01*
X195357328Y-86516864D01*
G37*
G36*
X196627328Y-86516864D02*
G01*
X196648409Y-86523260D01*
X196667845Y-86533648D01*
X196684876Y-86547624D01*
X196698852Y-86564655D01*
X196709240Y-86584091D01*
X196715636Y-86605172D01*
X196718400Y-86633240D01*
X196718400Y-88546960D01*
X196715636Y-88575028D01*
X196709240Y-88596109D01*
X196698852Y-88615545D01*
X196684876Y-88632576D01*
X196667845Y-88646552D01*
X196648409Y-88656940D01*
X196627328Y-88663336D01*
X196599260Y-88666100D01*
X196135540Y-88666100D01*
X196107472Y-88663336D01*
X196086391Y-88656940D01*
X196066955Y-88646552D01*
X196049924Y-88632576D01*
X196035948Y-88615545D01*
X196025560Y-88596109D01*
X196019164Y-88575028D01*
X196016400Y-88546960D01*
X196016400Y-86633240D01*
X196019164Y-86605172D01*
X196025560Y-86584091D01*
X196035948Y-86564655D01*
X196049924Y-86547624D01*
X196066955Y-86533648D01*
X196086391Y-86523260D01*
X196107472Y-86516864D01*
X196135540Y-86514100D01*
X196599260Y-86514100D01*
X196627328Y-86516864D01*
X196627328Y-86516864D01*
G37*
G36*
X197897328Y-86516864D02*
G01*
X197918409Y-86523260D01*
X197937845Y-86533648D01*
X197954876Y-86547624D01*
X197968852Y-86564655D01*
X197979240Y-86584091D01*
X197985636Y-86605172D01*
X197988400Y-86633240D01*
X197988400Y-88546960D01*
X197985636Y-88575028D01*
X197979240Y-88596109D01*
X197968852Y-88615545D01*
X197954876Y-88632576D01*
X197937845Y-88646552D01*
X197918409Y-88656940D01*
X197897328Y-88663336D01*
X197869260Y-88666100D01*
X197405540Y-88666100D01*
X197377472Y-88663336D01*
X197356391Y-88656940D01*
X197336955Y-88646552D01*
X197319924Y-88632576D01*
X197305948Y-88615545D01*
X197295560Y-88596109D01*
X197289164Y-88575028D01*
X197286400Y-88546960D01*
X197286400Y-86633240D01*
X197289164Y-86605172D01*
X197295560Y-86584091D01*
X197305948Y-86564655D01*
X197319924Y-86547624D01*
X197336955Y-86533648D01*
X197356391Y-86523260D01*
X197377472Y-86516864D01*
X197405540Y-86514100D01*
X197869260Y-86514100D01*
X197897328Y-86516864D01*
X197897328Y-86516864D01*
G37*
G36*
X199167328Y-86516864D02*
G01*
X199188409Y-86523260D01*
X199207845Y-86533648D01*
X199224876Y-86547624D01*
X199238852Y-86564655D01*
X199249240Y-86584091D01*
X199255636Y-86605172D01*
X199258400Y-86633240D01*
X199258400Y-88546960D01*
X199255636Y-88575028D01*
X199249240Y-88596109D01*
X199238852Y-88615545D01*
X199224876Y-88632576D01*
X199207845Y-88646552D01*
X199188409Y-88656940D01*
X199167328Y-88663336D01*
X199139260Y-88666100D01*
X198675540Y-88666100D01*
X198647472Y-88663336D01*
X198626391Y-88656940D01*
X198606955Y-88646552D01*
X198589924Y-88632576D01*
X198575948Y-88615545D01*
X198565560Y-88596109D01*
X198559164Y-88575028D01*
X198556400Y-88546960D01*
X198556400Y-86633240D01*
X198559164Y-86605172D01*
X198565560Y-86584091D01*
X198575948Y-86564655D01*
X198589924Y-86547624D01*
X198606955Y-86533648D01*
X198626391Y-86523260D01*
X198647472Y-86516864D01*
X198675540Y-86514100D01*
X199139260Y-86514100D01*
X199167328Y-86516864D01*
X199167328Y-86516864D01*
G37*
G36*
X200437328Y-86516864D02*
G01*
X200458409Y-86523260D01*
X200477845Y-86533648D01*
X200494876Y-86547624D01*
X200508852Y-86564655D01*
X200519240Y-86584091D01*
X200525636Y-86605172D01*
X200528400Y-86633240D01*
X200528400Y-88546960D01*
X200525636Y-88575028D01*
X200519240Y-88596109D01*
X200508852Y-88615545D01*
X200494876Y-88632576D01*
X200477845Y-88646552D01*
X200458409Y-88656940D01*
X200437328Y-88663336D01*
X200409260Y-88666100D01*
X199945540Y-88666100D01*
X199917472Y-88663336D01*
X199896391Y-88656940D01*
X199876955Y-88646552D01*
X199859924Y-88632576D01*
X199845948Y-88615545D01*
X199835560Y-88596109D01*
X199829164Y-88575028D01*
X199826400Y-88546960D01*
X199826400Y-86633240D01*
X199829164Y-86605172D01*
X199835560Y-86584091D01*
X199845948Y-86564655D01*
X199859924Y-86547624D01*
X199876955Y-86533648D01*
X199896391Y-86523260D01*
X199917472Y-86516864D01*
X199945540Y-86514100D01*
X200409260Y-86514100D01*
X200437328Y-86516864D01*
X200437328Y-86516864D01*
G37*
G36*
X204247328Y-86516864D02*
G01*
X204268409Y-86523260D01*
X204287845Y-86533648D01*
X204304876Y-86547624D01*
X204318852Y-86564655D01*
X204329240Y-86584091D01*
X204335636Y-86605172D01*
X204338400Y-86633240D01*
X204338400Y-88546960D01*
X204335636Y-88575028D01*
X204329240Y-88596109D01*
X204318852Y-88615545D01*
X204304876Y-88632576D01*
X204287845Y-88646552D01*
X204268409Y-88656940D01*
X204247328Y-88663336D01*
X204219260Y-88666100D01*
X203755540Y-88666100D01*
X203727472Y-88663336D01*
X203706391Y-88656940D01*
X203686955Y-88646552D01*
X203669924Y-88632576D01*
X203655948Y-88615545D01*
X203645560Y-88596109D01*
X203639164Y-88575028D01*
X203636400Y-88546960D01*
X203636400Y-86633240D01*
X203639164Y-86605172D01*
X203645560Y-86584091D01*
X203655948Y-86564655D01*
X203669924Y-86547624D01*
X203686955Y-86533648D01*
X203706391Y-86523260D01*
X203727472Y-86516864D01*
X203755540Y-86514100D01*
X204219260Y-86514100D01*
X204247328Y-86516864D01*
X204247328Y-86516864D01*
G37*
G36*
X191547328Y-86516864D02*
G01*
X191568409Y-86523260D01*
X191587845Y-86533648D01*
X191604876Y-86547624D01*
X191618852Y-86564655D01*
X191629240Y-86584091D01*
X191635636Y-86605172D01*
X191638400Y-86633240D01*
X191638400Y-88546960D01*
X191635636Y-88575028D01*
X191629240Y-88596109D01*
X191618852Y-88615545D01*
X191604876Y-88632576D01*
X191587845Y-88646552D01*
X191568409Y-88656940D01*
X191547328Y-88663336D01*
X191519260Y-88666100D01*
X191055540Y-88666100D01*
X191027472Y-88663336D01*
X191006391Y-88656940D01*
X190986955Y-88646552D01*
X190969924Y-88632576D01*
X190955948Y-88615545D01*
X190945560Y-88596109D01*
X190939164Y-88575028D01*
X190936400Y-88546960D01*
X190936400Y-86633240D01*
X190939164Y-86605172D01*
X190945560Y-86584091D01*
X190955948Y-86564655D01*
X190969924Y-86547624D01*
X190986955Y-86533648D01*
X191006391Y-86523260D01*
X191027472Y-86516864D01*
X191055540Y-86514100D01*
X191519260Y-86514100D01*
X191547328Y-86516864D01*
X191547328Y-86516864D01*
G37*
G36*
X168125300Y-86923700D02*
G01*
X164873300Y-86923700D01*
X164873300Y-85821700D01*
X168125300Y-85821700D01*
X168125300Y-86923700D01*
X168125300Y-86923700D01*
G37*
G36*
X173175300Y-86923700D02*
G01*
X169923300Y-86923700D01*
X169923300Y-85821700D01*
X173175300Y-85821700D01*
X173175300Y-86923700D01*
X173175300Y-86923700D01*
G37*
G36*
X168125300Y-84383700D02*
G01*
X164873300Y-84383700D01*
X164873300Y-83281700D01*
X168125300Y-83281700D01*
X168125300Y-84383700D01*
X168125300Y-84383700D01*
G37*
G36*
X173175300Y-84383700D02*
G01*
X169923300Y-84383700D01*
X169923300Y-83281700D01*
X173175300Y-83281700D01*
X173175300Y-84383700D01*
X173175300Y-84383700D01*
G37*
G36*
X173175300Y-81843700D02*
G01*
X169923300Y-81843700D01*
X169923300Y-80741700D01*
X173175300Y-80741700D01*
X173175300Y-81843700D01*
X173175300Y-81843700D01*
G37*
G36*
X168125300Y-81843700D02*
G01*
X164873300Y-81843700D01*
X164873300Y-80741700D01*
X168125300Y-80741700D01*
X168125300Y-81843700D01*
X168125300Y-81843700D01*
G37*
G36*
X173175300Y-79303700D02*
G01*
X169923300Y-79303700D01*
X169923300Y-78201700D01*
X173175300Y-78201700D01*
X173175300Y-79303700D01*
X173175300Y-79303700D01*
G37*
G36*
X168125300Y-79303700D02*
G01*
X164873300Y-79303700D01*
X164873300Y-78201700D01*
X168125300Y-78201700D01*
X168125300Y-79303700D01*
X168125300Y-79303700D01*
G37*
G36*
X168125300Y-76763700D02*
G01*
X164873300Y-76763700D01*
X164873300Y-75661700D01*
X168125300Y-75661700D01*
X168125300Y-76763700D01*
X168125300Y-76763700D01*
G37*
G36*
X173175300Y-76763700D02*
G01*
X169923300Y-76763700D01*
X169923300Y-75661700D01*
X173175300Y-75661700D01*
X173175300Y-76763700D01*
X173175300Y-76763700D01*
G37*
G36*
X168125300Y-74223700D02*
G01*
X164873300Y-74223700D01*
X164873300Y-73121700D01*
X168125300Y-73121700D01*
X168125300Y-74223700D01*
X168125300Y-74223700D01*
G37*
G36*
X173175300Y-74223700D02*
G01*
X169923300Y-74223700D01*
X169923300Y-73121700D01*
X173175300Y-73121700D01*
X173175300Y-74223700D01*
X173175300Y-74223700D01*
G37*
G36*
X138801800Y-74013200D02*
G01*
X136699800Y-74013200D01*
X136699800Y-70411200D01*
X138801800Y-70411200D01*
X138801800Y-74013200D01*
X138801800Y-74013200D01*
G37*
G36*
X142808400Y-73987800D02*
G01*
X140706400Y-73987800D01*
X140706400Y-70385800D01*
X142808400Y-70385800D01*
X142808400Y-73987800D01*
X142808400Y-73987800D01*
G37*
G36*
X138801800Y-66017400D02*
G01*
X136699800Y-66017400D01*
X136699800Y-59915400D01*
X138801800Y-59915400D01*
X138801800Y-66017400D01*
X138801800Y-66017400D01*
G37*
G36*
X142801800Y-66017400D02*
G01*
X140699800Y-66017400D01*
X140699800Y-59915400D01*
X142801800Y-59915400D01*
X142801800Y-66017400D01*
X142801800Y-66017400D01*
G37*
G36*
X172001000Y-62511000D02*
G01*
X170899000Y-62511000D01*
X170899000Y-59409000D01*
X172001000Y-59409000D01*
X172001000Y-62511000D01*
X172001000Y-62511000D01*
G37*
G36*
X169461000Y-62511000D02*
G01*
X168359000Y-62511000D01*
X168359000Y-59409000D01*
X169461000Y-59409000D01*
X169461000Y-62511000D01*
X169461000Y-62511000D01*
G37*
G36*
X182161000Y-62511000D02*
G01*
X181059000Y-62511000D01*
X181059000Y-59409000D01*
X182161000Y-59409000D01*
X182161000Y-62511000D01*
X182161000Y-62511000D01*
G37*
G36*
X184701000Y-62511000D02*
G01*
X183599000Y-62511000D01*
X183599000Y-59409000D01*
X184701000Y-59409000D01*
X184701000Y-62511000D01*
X184701000Y-62511000D01*
G37*
G36*
X187241000Y-62511000D02*
G01*
X186139000Y-62511000D01*
X186139000Y-59409000D01*
X187241000Y-59409000D01*
X187241000Y-62511000D01*
X187241000Y-62511000D01*
G37*
G36*
X179621000Y-62511000D02*
G01*
X178519000Y-62511000D01*
X178519000Y-59409000D01*
X179621000Y-59409000D01*
X179621000Y-62511000D01*
X179621000Y-62511000D01*
G37*
G36*
X177081000Y-62511000D02*
G01*
X175979000Y-62511000D01*
X175979000Y-59409000D01*
X177081000Y-59409000D01*
X177081000Y-62511000D01*
X177081000Y-62511000D01*
G37*
G36*
X174541000Y-62511000D02*
G01*
X173439000Y-62511000D01*
X173439000Y-59409000D01*
X174541000Y-59409000D01*
X174541000Y-62511000D01*
X174541000Y-62511000D01*
G37*
G36*
X193691000Y-60951000D02*
G01*
X192389000Y-60951000D01*
X192389000Y-59949000D01*
X193691000Y-59949000D01*
X193691000Y-60951000D01*
X193691000Y-60951000D01*
G37*
G36*
X198708674Y-59458465D02*
G01*
X198746367Y-59469899D01*
X198781103Y-59488466D01*
X198811548Y-59513452D01*
X198836534Y-59543897D01*
X198855101Y-59578633D01*
X198866535Y-59616326D01*
X198871000Y-59661661D01*
X198871000Y-60498339D01*
X198866535Y-60543674D01*
X198855101Y-60581367D01*
X198836534Y-60616103D01*
X198811548Y-60646548D01*
X198781103Y-60671534D01*
X198746367Y-60690101D01*
X198708674Y-60701535D01*
X198663339Y-60706000D01*
X197576661Y-60706000D01*
X197531326Y-60701535D01*
X197493633Y-60690101D01*
X197458897Y-60671534D01*
X197428452Y-60646548D01*
X197403466Y-60616103D01*
X197384899Y-60581367D01*
X197373465Y-60543674D01*
X197369000Y-60498339D01*
X197369000Y-59661661D01*
X197373465Y-59616326D01*
X197384899Y-59578633D01*
X197403466Y-59543897D01*
X197428452Y-59513452D01*
X197458897Y-59488466D01*
X197493633Y-59469899D01*
X197531326Y-59458465D01*
X197576661Y-59454000D01*
X198663339Y-59454000D01*
X198708674Y-59458465D01*
X198708674Y-59458465D01*
G37*
G36*
X198708674Y-57408465D02*
G01*
X198746367Y-57419899D01*
X198781103Y-57438466D01*
X198811548Y-57463452D01*
X198836534Y-57493897D01*
X198855101Y-57528633D01*
X198866535Y-57566326D01*
X198871000Y-57611661D01*
X198871000Y-58448339D01*
X198866535Y-58493674D01*
X198855101Y-58531367D01*
X198836534Y-58566103D01*
X198811548Y-58596548D01*
X198781103Y-58621534D01*
X198746367Y-58640101D01*
X198708674Y-58651535D01*
X198663339Y-58656000D01*
X197576661Y-58656000D01*
X197531326Y-58651535D01*
X197493633Y-58640101D01*
X197458897Y-58621534D01*
X197428452Y-58596548D01*
X197403466Y-58566103D01*
X197384899Y-58531367D01*
X197373465Y-58493674D01*
X197369000Y-58448339D01*
X197369000Y-57611661D01*
X197373465Y-57566326D01*
X197384899Y-57528633D01*
X197403466Y-57493897D01*
X197428452Y-57463452D01*
X197458897Y-57438466D01*
X197493633Y-57419899D01*
X197531326Y-57408465D01*
X197576661Y-57404000D01*
X198663339Y-57404000D01*
X198708674Y-57408465D01*
X198708674Y-57408465D01*
G37*
G36*
X193691000Y-57651000D02*
G01*
X192389000Y-57651000D01*
X192389000Y-56649000D01*
X193691000Y-56649000D01*
X193691000Y-57651000D01*
X193691000Y-57651000D01*
G37*
G36*
X179621000Y-57471000D02*
G01*
X178519000Y-57471000D01*
X178519000Y-54369000D01*
X179621000Y-54369000D01*
X179621000Y-57471000D01*
X179621000Y-57471000D01*
G37*
G36*
X182161000Y-57471000D02*
G01*
X181059000Y-57471000D01*
X181059000Y-54369000D01*
X182161000Y-54369000D01*
X182161000Y-57471000D01*
X182161000Y-57471000D01*
G37*
G36*
X184701000Y-57471000D02*
G01*
X183599000Y-57471000D01*
X183599000Y-54369000D01*
X184701000Y-54369000D01*
X184701000Y-57471000D01*
X184701000Y-57471000D01*
G37*
G36*
X187241000Y-57471000D02*
G01*
X186139000Y-57471000D01*
X186139000Y-54369000D01*
X187241000Y-54369000D01*
X187241000Y-57471000D01*
X187241000Y-57471000D01*
G37*
G36*
X177081000Y-57471000D02*
G01*
X175979000Y-57471000D01*
X175979000Y-54369000D01*
X177081000Y-54369000D01*
X177081000Y-57471000D01*
X177081000Y-57471000D01*
G37*
G36*
X174541000Y-57471000D02*
G01*
X173439000Y-57471000D01*
X173439000Y-54369000D01*
X174541000Y-54369000D01*
X174541000Y-57471000D01*
X174541000Y-57471000D01*
G37*
G36*
X172001000Y-57471000D02*
G01*
X170899000Y-57471000D01*
X170899000Y-54369000D01*
X172001000Y-54369000D01*
X172001000Y-57471000D01*
X172001000Y-57471000D01*
G37*
G36*
X169461000Y-57471000D02*
G01*
X168359000Y-57471000D01*
X168359000Y-54369000D01*
X169461000Y-54369000D01*
X169461000Y-57471000D01*
X169461000Y-57471000D01*
G37*
M02*
