G04 #@! TF.GenerationSoftware,KiCad,Pcbnew,5.1.2*
G04 #@! TF.CreationDate,2019-05-22T09:14:52+02:00*
G04 #@! TF.ProjectId,polythene_sensor,706f6c79-7468-4656-9e65-5f73656e736f,rev?*
G04 #@! TF.SameCoordinates,Original*
G04 #@! TF.FileFunction,Copper,L1,Top*
G04 #@! TF.FilePolarity,Positive*
%FSLAX46Y46*%
G04 Gerber Fmt 4.6, Leading zero omitted, Abs format (unit mm)*
G04 Created by KiCad (PCBNEW 5.1.2) date 2019-05-22 09:14:52*
%MOMM*%
%LPD*%
G04 APERTURE LIST*
%ADD10R,3.150000X1.000000*%
%ADD11R,2.000000X3.500000*%
%ADD12R,2.000000X6.000000*%
%ADD13C,0.100000*%
%ADD14C,0.600000*%
%ADD15R,1.200000X0.900000*%
%ADD16R,1.000000X3.000000*%
%ADD17C,1.150000*%
%ADD18C,1.500000*%
%ADD19C,0.600000*%
G04 APERTURE END LIST*
D10*
X166499300Y-73672700D03*
X171549300Y-73672700D03*
X166499300Y-76212700D03*
X171549300Y-76212700D03*
X166499300Y-78752700D03*
X171549300Y-78752700D03*
X166499300Y-81292700D03*
X171549300Y-81292700D03*
X166499300Y-83832700D03*
X171549300Y-83832700D03*
X166499300Y-86372700D03*
X171549300Y-86372700D03*
X166499300Y-88912700D03*
X171549300Y-88912700D03*
X166499300Y-91452700D03*
X171549300Y-91452700D03*
X166499300Y-93992700D03*
X171549300Y-93992700D03*
X166499300Y-96532700D03*
X171549300Y-96532700D03*
X166499300Y-99072700D03*
X171549300Y-99072700D03*
X166499300Y-101612700D03*
X171549300Y-101612700D03*
X166499300Y-104152700D03*
X171549300Y-104152700D03*
X166499300Y-106692700D03*
X171549300Y-106692700D03*
X166499300Y-109232700D03*
X171549300Y-109232700D03*
X166499300Y-111772700D03*
X171549300Y-111772700D03*
X166499300Y-114312700D03*
X171549300Y-114312700D03*
X166499300Y-116852700D03*
X171549300Y-116852700D03*
D11*
X141757400Y-72186800D03*
D12*
X141750800Y-62966400D03*
D11*
X137750800Y-72212200D03*
D12*
X137750800Y-62966400D03*
D13*
G36*
X148119703Y-87289722D02*
G01*
X148134264Y-87291882D01*
X148148543Y-87295459D01*
X148162403Y-87300418D01*
X148175710Y-87306712D01*
X148188336Y-87314280D01*
X148200159Y-87323048D01*
X148211066Y-87332934D01*
X148220952Y-87343841D01*
X148229720Y-87355664D01*
X148237288Y-87368290D01*
X148243582Y-87381597D01*
X148248541Y-87395457D01*
X148252118Y-87409736D01*
X148254278Y-87424297D01*
X148255000Y-87439000D01*
X148255000Y-89189000D01*
X148254278Y-89203703D01*
X148252118Y-89218264D01*
X148248541Y-89232543D01*
X148243582Y-89246403D01*
X148237288Y-89259710D01*
X148229720Y-89272336D01*
X148220952Y-89284159D01*
X148211066Y-89295066D01*
X148200159Y-89304952D01*
X148188336Y-89313720D01*
X148175710Y-89321288D01*
X148162403Y-89327582D01*
X148148543Y-89332541D01*
X148134264Y-89336118D01*
X148119703Y-89338278D01*
X148105000Y-89339000D01*
X147805000Y-89339000D01*
X147790297Y-89338278D01*
X147775736Y-89336118D01*
X147761457Y-89332541D01*
X147747597Y-89327582D01*
X147734290Y-89321288D01*
X147721664Y-89313720D01*
X147709841Y-89304952D01*
X147698934Y-89295066D01*
X147689048Y-89284159D01*
X147680280Y-89272336D01*
X147672712Y-89259710D01*
X147666418Y-89246403D01*
X147661459Y-89232543D01*
X147657882Y-89218264D01*
X147655722Y-89203703D01*
X147655000Y-89189000D01*
X147655000Y-87439000D01*
X147655722Y-87424297D01*
X147657882Y-87409736D01*
X147661459Y-87395457D01*
X147666418Y-87381597D01*
X147672712Y-87368290D01*
X147680280Y-87355664D01*
X147689048Y-87343841D01*
X147698934Y-87332934D01*
X147709841Y-87323048D01*
X147721664Y-87314280D01*
X147734290Y-87306712D01*
X147747597Y-87300418D01*
X147761457Y-87295459D01*
X147775736Y-87291882D01*
X147790297Y-87289722D01*
X147805000Y-87289000D01*
X148105000Y-87289000D01*
X148119703Y-87289722D01*
X148119703Y-87289722D01*
G37*
D14*
X147955000Y-88314000D03*
D13*
G36*
X146849703Y-87289722D02*
G01*
X146864264Y-87291882D01*
X146878543Y-87295459D01*
X146892403Y-87300418D01*
X146905710Y-87306712D01*
X146918336Y-87314280D01*
X146930159Y-87323048D01*
X146941066Y-87332934D01*
X146950952Y-87343841D01*
X146959720Y-87355664D01*
X146967288Y-87368290D01*
X146973582Y-87381597D01*
X146978541Y-87395457D01*
X146982118Y-87409736D01*
X146984278Y-87424297D01*
X146985000Y-87439000D01*
X146985000Y-89189000D01*
X146984278Y-89203703D01*
X146982118Y-89218264D01*
X146978541Y-89232543D01*
X146973582Y-89246403D01*
X146967288Y-89259710D01*
X146959720Y-89272336D01*
X146950952Y-89284159D01*
X146941066Y-89295066D01*
X146930159Y-89304952D01*
X146918336Y-89313720D01*
X146905710Y-89321288D01*
X146892403Y-89327582D01*
X146878543Y-89332541D01*
X146864264Y-89336118D01*
X146849703Y-89338278D01*
X146835000Y-89339000D01*
X146535000Y-89339000D01*
X146520297Y-89338278D01*
X146505736Y-89336118D01*
X146491457Y-89332541D01*
X146477597Y-89327582D01*
X146464290Y-89321288D01*
X146451664Y-89313720D01*
X146439841Y-89304952D01*
X146428934Y-89295066D01*
X146419048Y-89284159D01*
X146410280Y-89272336D01*
X146402712Y-89259710D01*
X146396418Y-89246403D01*
X146391459Y-89232543D01*
X146387882Y-89218264D01*
X146385722Y-89203703D01*
X146385000Y-89189000D01*
X146385000Y-87439000D01*
X146385722Y-87424297D01*
X146387882Y-87409736D01*
X146391459Y-87395457D01*
X146396418Y-87381597D01*
X146402712Y-87368290D01*
X146410280Y-87355664D01*
X146419048Y-87343841D01*
X146428934Y-87332934D01*
X146439841Y-87323048D01*
X146451664Y-87314280D01*
X146464290Y-87306712D01*
X146477597Y-87300418D01*
X146491457Y-87295459D01*
X146505736Y-87291882D01*
X146520297Y-87289722D01*
X146535000Y-87289000D01*
X146835000Y-87289000D01*
X146849703Y-87289722D01*
X146849703Y-87289722D01*
G37*
D14*
X146685000Y-88314000D03*
D13*
G36*
X145579703Y-87289722D02*
G01*
X145594264Y-87291882D01*
X145608543Y-87295459D01*
X145622403Y-87300418D01*
X145635710Y-87306712D01*
X145648336Y-87314280D01*
X145660159Y-87323048D01*
X145671066Y-87332934D01*
X145680952Y-87343841D01*
X145689720Y-87355664D01*
X145697288Y-87368290D01*
X145703582Y-87381597D01*
X145708541Y-87395457D01*
X145712118Y-87409736D01*
X145714278Y-87424297D01*
X145715000Y-87439000D01*
X145715000Y-89189000D01*
X145714278Y-89203703D01*
X145712118Y-89218264D01*
X145708541Y-89232543D01*
X145703582Y-89246403D01*
X145697288Y-89259710D01*
X145689720Y-89272336D01*
X145680952Y-89284159D01*
X145671066Y-89295066D01*
X145660159Y-89304952D01*
X145648336Y-89313720D01*
X145635710Y-89321288D01*
X145622403Y-89327582D01*
X145608543Y-89332541D01*
X145594264Y-89336118D01*
X145579703Y-89338278D01*
X145565000Y-89339000D01*
X145265000Y-89339000D01*
X145250297Y-89338278D01*
X145235736Y-89336118D01*
X145221457Y-89332541D01*
X145207597Y-89327582D01*
X145194290Y-89321288D01*
X145181664Y-89313720D01*
X145169841Y-89304952D01*
X145158934Y-89295066D01*
X145149048Y-89284159D01*
X145140280Y-89272336D01*
X145132712Y-89259710D01*
X145126418Y-89246403D01*
X145121459Y-89232543D01*
X145117882Y-89218264D01*
X145115722Y-89203703D01*
X145115000Y-89189000D01*
X145115000Y-87439000D01*
X145115722Y-87424297D01*
X145117882Y-87409736D01*
X145121459Y-87395457D01*
X145126418Y-87381597D01*
X145132712Y-87368290D01*
X145140280Y-87355664D01*
X145149048Y-87343841D01*
X145158934Y-87332934D01*
X145169841Y-87323048D01*
X145181664Y-87314280D01*
X145194290Y-87306712D01*
X145207597Y-87300418D01*
X145221457Y-87295459D01*
X145235736Y-87291882D01*
X145250297Y-87289722D01*
X145265000Y-87289000D01*
X145565000Y-87289000D01*
X145579703Y-87289722D01*
X145579703Y-87289722D01*
G37*
D14*
X145415000Y-88314000D03*
D13*
G36*
X144309703Y-87289722D02*
G01*
X144324264Y-87291882D01*
X144338543Y-87295459D01*
X144352403Y-87300418D01*
X144365710Y-87306712D01*
X144378336Y-87314280D01*
X144390159Y-87323048D01*
X144401066Y-87332934D01*
X144410952Y-87343841D01*
X144419720Y-87355664D01*
X144427288Y-87368290D01*
X144433582Y-87381597D01*
X144438541Y-87395457D01*
X144442118Y-87409736D01*
X144444278Y-87424297D01*
X144445000Y-87439000D01*
X144445000Y-89189000D01*
X144444278Y-89203703D01*
X144442118Y-89218264D01*
X144438541Y-89232543D01*
X144433582Y-89246403D01*
X144427288Y-89259710D01*
X144419720Y-89272336D01*
X144410952Y-89284159D01*
X144401066Y-89295066D01*
X144390159Y-89304952D01*
X144378336Y-89313720D01*
X144365710Y-89321288D01*
X144352403Y-89327582D01*
X144338543Y-89332541D01*
X144324264Y-89336118D01*
X144309703Y-89338278D01*
X144295000Y-89339000D01*
X143995000Y-89339000D01*
X143980297Y-89338278D01*
X143965736Y-89336118D01*
X143951457Y-89332541D01*
X143937597Y-89327582D01*
X143924290Y-89321288D01*
X143911664Y-89313720D01*
X143899841Y-89304952D01*
X143888934Y-89295066D01*
X143879048Y-89284159D01*
X143870280Y-89272336D01*
X143862712Y-89259710D01*
X143856418Y-89246403D01*
X143851459Y-89232543D01*
X143847882Y-89218264D01*
X143845722Y-89203703D01*
X143845000Y-89189000D01*
X143845000Y-87439000D01*
X143845722Y-87424297D01*
X143847882Y-87409736D01*
X143851459Y-87395457D01*
X143856418Y-87381597D01*
X143862712Y-87368290D01*
X143870280Y-87355664D01*
X143879048Y-87343841D01*
X143888934Y-87332934D01*
X143899841Y-87323048D01*
X143911664Y-87314280D01*
X143924290Y-87306712D01*
X143937597Y-87300418D01*
X143951457Y-87295459D01*
X143965736Y-87291882D01*
X143980297Y-87289722D01*
X143995000Y-87289000D01*
X144295000Y-87289000D01*
X144309703Y-87289722D01*
X144309703Y-87289722D01*
G37*
D14*
X144145000Y-88314000D03*
D13*
G36*
X143039703Y-87289722D02*
G01*
X143054264Y-87291882D01*
X143068543Y-87295459D01*
X143082403Y-87300418D01*
X143095710Y-87306712D01*
X143108336Y-87314280D01*
X143120159Y-87323048D01*
X143131066Y-87332934D01*
X143140952Y-87343841D01*
X143149720Y-87355664D01*
X143157288Y-87368290D01*
X143163582Y-87381597D01*
X143168541Y-87395457D01*
X143172118Y-87409736D01*
X143174278Y-87424297D01*
X143175000Y-87439000D01*
X143175000Y-89189000D01*
X143174278Y-89203703D01*
X143172118Y-89218264D01*
X143168541Y-89232543D01*
X143163582Y-89246403D01*
X143157288Y-89259710D01*
X143149720Y-89272336D01*
X143140952Y-89284159D01*
X143131066Y-89295066D01*
X143120159Y-89304952D01*
X143108336Y-89313720D01*
X143095710Y-89321288D01*
X143082403Y-89327582D01*
X143068543Y-89332541D01*
X143054264Y-89336118D01*
X143039703Y-89338278D01*
X143025000Y-89339000D01*
X142725000Y-89339000D01*
X142710297Y-89338278D01*
X142695736Y-89336118D01*
X142681457Y-89332541D01*
X142667597Y-89327582D01*
X142654290Y-89321288D01*
X142641664Y-89313720D01*
X142629841Y-89304952D01*
X142618934Y-89295066D01*
X142609048Y-89284159D01*
X142600280Y-89272336D01*
X142592712Y-89259710D01*
X142586418Y-89246403D01*
X142581459Y-89232543D01*
X142577882Y-89218264D01*
X142575722Y-89203703D01*
X142575000Y-89189000D01*
X142575000Y-87439000D01*
X142575722Y-87424297D01*
X142577882Y-87409736D01*
X142581459Y-87395457D01*
X142586418Y-87381597D01*
X142592712Y-87368290D01*
X142600280Y-87355664D01*
X142609048Y-87343841D01*
X142618934Y-87332934D01*
X142629841Y-87323048D01*
X142641664Y-87314280D01*
X142654290Y-87306712D01*
X142667597Y-87300418D01*
X142681457Y-87295459D01*
X142695736Y-87291882D01*
X142710297Y-87289722D01*
X142725000Y-87289000D01*
X143025000Y-87289000D01*
X143039703Y-87289722D01*
X143039703Y-87289722D01*
G37*
D14*
X142875000Y-88314000D03*
D13*
G36*
X141769703Y-87289722D02*
G01*
X141784264Y-87291882D01*
X141798543Y-87295459D01*
X141812403Y-87300418D01*
X141825710Y-87306712D01*
X141838336Y-87314280D01*
X141850159Y-87323048D01*
X141861066Y-87332934D01*
X141870952Y-87343841D01*
X141879720Y-87355664D01*
X141887288Y-87368290D01*
X141893582Y-87381597D01*
X141898541Y-87395457D01*
X141902118Y-87409736D01*
X141904278Y-87424297D01*
X141905000Y-87439000D01*
X141905000Y-89189000D01*
X141904278Y-89203703D01*
X141902118Y-89218264D01*
X141898541Y-89232543D01*
X141893582Y-89246403D01*
X141887288Y-89259710D01*
X141879720Y-89272336D01*
X141870952Y-89284159D01*
X141861066Y-89295066D01*
X141850159Y-89304952D01*
X141838336Y-89313720D01*
X141825710Y-89321288D01*
X141812403Y-89327582D01*
X141798543Y-89332541D01*
X141784264Y-89336118D01*
X141769703Y-89338278D01*
X141755000Y-89339000D01*
X141455000Y-89339000D01*
X141440297Y-89338278D01*
X141425736Y-89336118D01*
X141411457Y-89332541D01*
X141397597Y-89327582D01*
X141384290Y-89321288D01*
X141371664Y-89313720D01*
X141359841Y-89304952D01*
X141348934Y-89295066D01*
X141339048Y-89284159D01*
X141330280Y-89272336D01*
X141322712Y-89259710D01*
X141316418Y-89246403D01*
X141311459Y-89232543D01*
X141307882Y-89218264D01*
X141305722Y-89203703D01*
X141305000Y-89189000D01*
X141305000Y-87439000D01*
X141305722Y-87424297D01*
X141307882Y-87409736D01*
X141311459Y-87395457D01*
X141316418Y-87381597D01*
X141322712Y-87368290D01*
X141330280Y-87355664D01*
X141339048Y-87343841D01*
X141348934Y-87332934D01*
X141359841Y-87323048D01*
X141371664Y-87314280D01*
X141384290Y-87306712D01*
X141397597Y-87300418D01*
X141411457Y-87295459D01*
X141425736Y-87291882D01*
X141440297Y-87289722D01*
X141455000Y-87289000D01*
X141755000Y-87289000D01*
X141769703Y-87289722D01*
X141769703Y-87289722D01*
G37*
D14*
X141605000Y-88314000D03*
D13*
G36*
X140499703Y-87289722D02*
G01*
X140514264Y-87291882D01*
X140528543Y-87295459D01*
X140542403Y-87300418D01*
X140555710Y-87306712D01*
X140568336Y-87314280D01*
X140580159Y-87323048D01*
X140591066Y-87332934D01*
X140600952Y-87343841D01*
X140609720Y-87355664D01*
X140617288Y-87368290D01*
X140623582Y-87381597D01*
X140628541Y-87395457D01*
X140632118Y-87409736D01*
X140634278Y-87424297D01*
X140635000Y-87439000D01*
X140635000Y-89189000D01*
X140634278Y-89203703D01*
X140632118Y-89218264D01*
X140628541Y-89232543D01*
X140623582Y-89246403D01*
X140617288Y-89259710D01*
X140609720Y-89272336D01*
X140600952Y-89284159D01*
X140591066Y-89295066D01*
X140580159Y-89304952D01*
X140568336Y-89313720D01*
X140555710Y-89321288D01*
X140542403Y-89327582D01*
X140528543Y-89332541D01*
X140514264Y-89336118D01*
X140499703Y-89338278D01*
X140485000Y-89339000D01*
X140185000Y-89339000D01*
X140170297Y-89338278D01*
X140155736Y-89336118D01*
X140141457Y-89332541D01*
X140127597Y-89327582D01*
X140114290Y-89321288D01*
X140101664Y-89313720D01*
X140089841Y-89304952D01*
X140078934Y-89295066D01*
X140069048Y-89284159D01*
X140060280Y-89272336D01*
X140052712Y-89259710D01*
X140046418Y-89246403D01*
X140041459Y-89232543D01*
X140037882Y-89218264D01*
X140035722Y-89203703D01*
X140035000Y-89189000D01*
X140035000Y-87439000D01*
X140035722Y-87424297D01*
X140037882Y-87409736D01*
X140041459Y-87395457D01*
X140046418Y-87381597D01*
X140052712Y-87368290D01*
X140060280Y-87355664D01*
X140069048Y-87343841D01*
X140078934Y-87332934D01*
X140089841Y-87323048D01*
X140101664Y-87314280D01*
X140114290Y-87306712D01*
X140127597Y-87300418D01*
X140141457Y-87295459D01*
X140155736Y-87291882D01*
X140170297Y-87289722D01*
X140185000Y-87289000D01*
X140485000Y-87289000D01*
X140499703Y-87289722D01*
X140499703Y-87289722D01*
G37*
D14*
X140335000Y-88314000D03*
D13*
G36*
X139229703Y-87289722D02*
G01*
X139244264Y-87291882D01*
X139258543Y-87295459D01*
X139272403Y-87300418D01*
X139285710Y-87306712D01*
X139298336Y-87314280D01*
X139310159Y-87323048D01*
X139321066Y-87332934D01*
X139330952Y-87343841D01*
X139339720Y-87355664D01*
X139347288Y-87368290D01*
X139353582Y-87381597D01*
X139358541Y-87395457D01*
X139362118Y-87409736D01*
X139364278Y-87424297D01*
X139365000Y-87439000D01*
X139365000Y-89189000D01*
X139364278Y-89203703D01*
X139362118Y-89218264D01*
X139358541Y-89232543D01*
X139353582Y-89246403D01*
X139347288Y-89259710D01*
X139339720Y-89272336D01*
X139330952Y-89284159D01*
X139321066Y-89295066D01*
X139310159Y-89304952D01*
X139298336Y-89313720D01*
X139285710Y-89321288D01*
X139272403Y-89327582D01*
X139258543Y-89332541D01*
X139244264Y-89336118D01*
X139229703Y-89338278D01*
X139215000Y-89339000D01*
X138915000Y-89339000D01*
X138900297Y-89338278D01*
X138885736Y-89336118D01*
X138871457Y-89332541D01*
X138857597Y-89327582D01*
X138844290Y-89321288D01*
X138831664Y-89313720D01*
X138819841Y-89304952D01*
X138808934Y-89295066D01*
X138799048Y-89284159D01*
X138790280Y-89272336D01*
X138782712Y-89259710D01*
X138776418Y-89246403D01*
X138771459Y-89232543D01*
X138767882Y-89218264D01*
X138765722Y-89203703D01*
X138765000Y-89189000D01*
X138765000Y-87439000D01*
X138765722Y-87424297D01*
X138767882Y-87409736D01*
X138771459Y-87395457D01*
X138776418Y-87381597D01*
X138782712Y-87368290D01*
X138790280Y-87355664D01*
X138799048Y-87343841D01*
X138808934Y-87332934D01*
X138819841Y-87323048D01*
X138831664Y-87314280D01*
X138844290Y-87306712D01*
X138857597Y-87300418D01*
X138871457Y-87295459D01*
X138885736Y-87291882D01*
X138900297Y-87289722D01*
X138915000Y-87289000D01*
X139215000Y-87289000D01*
X139229703Y-87289722D01*
X139229703Y-87289722D01*
G37*
D14*
X139065000Y-88314000D03*
D13*
G36*
X137959703Y-87289722D02*
G01*
X137974264Y-87291882D01*
X137988543Y-87295459D01*
X138002403Y-87300418D01*
X138015710Y-87306712D01*
X138028336Y-87314280D01*
X138040159Y-87323048D01*
X138051066Y-87332934D01*
X138060952Y-87343841D01*
X138069720Y-87355664D01*
X138077288Y-87368290D01*
X138083582Y-87381597D01*
X138088541Y-87395457D01*
X138092118Y-87409736D01*
X138094278Y-87424297D01*
X138095000Y-87439000D01*
X138095000Y-89189000D01*
X138094278Y-89203703D01*
X138092118Y-89218264D01*
X138088541Y-89232543D01*
X138083582Y-89246403D01*
X138077288Y-89259710D01*
X138069720Y-89272336D01*
X138060952Y-89284159D01*
X138051066Y-89295066D01*
X138040159Y-89304952D01*
X138028336Y-89313720D01*
X138015710Y-89321288D01*
X138002403Y-89327582D01*
X137988543Y-89332541D01*
X137974264Y-89336118D01*
X137959703Y-89338278D01*
X137945000Y-89339000D01*
X137645000Y-89339000D01*
X137630297Y-89338278D01*
X137615736Y-89336118D01*
X137601457Y-89332541D01*
X137587597Y-89327582D01*
X137574290Y-89321288D01*
X137561664Y-89313720D01*
X137549841Y-89304952D01*
X137538934Y-89295066D01*
X137529048Y-89284159D01*
X137520280Y-89272336D01*
X137512712Y-89259710D01*
X137506418Y-89246403D01*
X137501459Y-89232543D01*
X137497882Y-89218264D01*
X137495722Y-89203703D01*
X137495000Y-89189000D01*
X137495000Y-87439000D01*
X137495722Y-87424297D01*
X137497882Y-87409736D01*
X137501459Y-87395457D01*
X137506418Y-87381597D01*
X137512712Y-87368290D01*
X137520280Y-87355664D01*
X137529048Y-87343841D01*
X137538934Y-87332934D01*
X137549841Y-87323048D01*
X137561664Y-87314280D01*
X137574290Y-87306712D01*
X137587597Y-87300418D01*
X137601457Y-87295459D01*
X137615736Y-87291882D01*
X137630297Y-87289722D01*
X137645000Y-87289000D01*
X137945000Y-87289000D01*
X137959703Y-87289722D01*
X137959703Y-87289722D01*
G37*
D14*
X137795000Y-88314000D03*
D13*
G36*
X136689703Y-87289722D02*
G01*
X136704264Y-87291882D01*
X136718543Y-87295459D01*
X136732403Y-87300418D01*
X136745710Y-87306712D01*
X136758336Y-87314280D01*
X136770159Y-87323048D01*
X136781066Y-87332934D01*
X136790952Y-87343841D01*
X136799720Y-87355664D01*
X136807288Y-87368290D01*
X136813582Y-87381597D01*
X136818541Y-87395457D01*
X136822118Y-87409736D01*
X136824278Y-87424297D01*
X136825000Y-87439000D01*
X136825000Y-89189000D01*
X136824278Y-89203703D01*
X136822118Y-89218264D01*
X136818541Y-89232543D01*
X136813582Y-89246403D01*
X136807288Y-89259710D01*
X136799720Y-89272336D01*
X136790952Y-89284159D01*
X136781066Y-89295066D01*
X136770159Y-89304952D01*
X136758336Y-89313720D01*
X136745710Y-89321288D01*
X136732403Y-89327582D01*
X136718543Y-89332541D01*
X136704264Y-89336118D01*
X136689703Y-89338278D01*
X136675000Y-89339000D01*
X136375000Y-89339000D01*
X136360297Y-89338278D01*
X136345736Y-89336118D01*
X136331457Y-89332541D01*
X136317597Y-89327582D01*
X136304290Y-89321288D01*
X136291664Y-89313720D01*
X136279841Y-89304952D01*
X136268934Y-89295066D01*
X136259048Y-89284159D01*
X136250280Y-89272336D01*
X136242712Y-89259710D01*
X136236418Y-89246403D01*
X136231459Y-89232543D01*
X136227882Y-89218264D01*
X136225722Y-89203703D01*
X136225000Y-89189000D01*
X136225000Y-87439000D01*
X136225722Y-87424297D01*
X136227882Y-87409736D01*
X136231459Y-87395457D01*
X136236418Y-87381597D01*
X136242712Y-87368290D01*
X136250280Y-87355664D01*
X136259048Y-87343841D01*
X136268934Y-87332934D01*
X136279841Y-87323048D01*
X136291664Y-87314280D01*
X136304290Y-87306712D01*
X136317597Y-87300418D01*
X136331457Y-87295459D01*
X136345736Y-87291882D01*
X136360297Y-87289722D01*
X136375000Y-87289000D01*
X136675000Y-87289000D01*
X136689703Y-87289722D01*
X136689703Y-87289722D01*
G37*
D14*
X136525000Y-88314000D03*
D13*
G36*
X135419703Y-87289722D02*
G01*
X135434264Y-87291882D01*
X135448543Y-87295459D01*
X135462403Y-87300418D01*
X135475710Y-87306712D01*
X135488336Y-87314280D01*
X135500159Y-87323048D01*
X135511066Y-87332934D01*
X135520952Y-87343841D01*
X135529720Y-87355664D01*
X135537288Y-87368290D01*
X135543582Y-87381597D01*
X135548541Y-87395457D01*
X135552118Y-87409736D01*
X135554278Y-87424297D01*
X135555000Y-87439000D01*
X135555000Y-89189000D01*
X135554278Y-89203703D01*
X135552118Y-89218264D01*
X135548541Y-89232543D01*
X135543582Y-89246403D01*
X135537288Y-89259710D01*
X135529720Y-89272336D01*
X135520952Y-89284159D01*
X135511066Y-89295066D01*
X135500159Y-89304952D01*
X135488336Y-89313720D01*
X135475710Y-89321288D01*
X135462403Y-89327582D01*
X135448543Y-89332541D01*
X135434264Y-89336118D01*
X135419703Y-89338278D01*
X135405000Y-89339000D01*
X135105000Y-89339000D01*
X135090297Y-89338278D01*
X135075736Y-89336118D01*
X135061457Y-89332541D01*
X135047597Y-89327582D01*
X135034290Y-89321288D01*
X135021664Y-89313720D01*
X135009841Y-89304952D01*
X134998934Y-89295066D01*
X134989048Y-89284159D01*
X134980280Y-89272336D01*
X134972712Y-89259710D01*
X134966418Y-89246403D01*
X134961459Y-89232543D01*
X134957882Y-89218264D01*
X134955722Y-89203703D01*
X134955000Y-89189000D01*
X134955000Y-87439000D01*
X134955722Y-87424297D01*
X134957882Y-87409736D01*
X134961459Y-87395457D01*
X134966418Y-87381597D01*
X134972712Y-87368290D01*
X134980280Y-87355664D01*
X134989048Y-87343841D01*
X134998934Y-87332934D01*
X135009841Y-87323048D01*
X135021664Y-87314280D01*
X135034290Y-87306712D01*
X135047597Y-87300418D01*
X135061457Y-87295459D01*
X135075736Y-87291882D01*
X135090297Y-87289722D01*
X135105000Y-87289000D01*
X135405000Y-87289000D01*
X135419703Y-87289722D01*
X135419703Y-87289722D01*
G37*
D14*
X135255000Y-88314000D03*
D13*
G36*
X134149703Y-87289722D02*
G01*
X134164264Y-87291882D01*
X134178543Y-87295459D01*
X134192403Y-87300418D01*
X134205710Y-87306712D01*
X134218336Y-87314280D01*
X134230159Y-87323048D01*
X134241066Y-87332934D01*
X134250952Y-87343841D01*
X134259720Y-87355664D01*
X134267288Y-87368290D01*
X134273582Y-87381597D01*
X134278541Y-87395457D01*
X134282118Y-87409736D01*
X134284278Y-87424297D01*
X134285000Y-87439000D01*
X134285000Y-89189000D01*
X134284278Y-89203703D01*
X134282118Y-89218264D01*
X134278541Y-89232543D01*
X134273582Y-89246403D01*
X134267288Y-89259710D01*
X134259720Y-89272336D01*
X134250952Y-89284159D01*
X134241066Y-89295066D01*
X134230159Y-89304952D01*
X134218336Y-89313720D01*
X134205710Y-89321288D01*
X134192403Y-89327582D01*
X134178543Y-89332541D01*
X134164264Y-89336118D01*
X134149703Y-89338278D01*
X134135000Y-89339000D01*
X133835000Y-89339000D01*
X133820297Y-89338278D01*
X133805736Y-89336118D01*
X133791457Y-89332541D01*
X133777597Y-89327582D01*
X133764290Y-89321288D01*
X133751664Y-89313720D01*
X133739841Y-89304952D01*
X133728934Y-89295066D01*
X133719048Y-89284159D01*
X133710280Y-89272336D01*
X133702712Y-89259710D01*
X133696418Y-89246403D01*
X133691459Y-89232543D01*
X133687882Y-89218264D01*
X133685722Y-89203703D01*
X133685000Y-89189000D01*
X133685000Y-87439000D01*
X133685722Y-87424297D01*
X133687882Y-87409736D01*
X133691459Y-87395457D01*
X133696418Y-87381597D01*
X133702712Y-87368290D01*
X133710280Y-87355664D01*
X133719048Y-87343841D01*
X133728934Y-87332934D01*
X133739841Y-87323048D01*
X133751664Y-87314280D01*
X133764290Y-87306712D01*
X133777597Y-87300418D01*
X133791457Y-87295459D01*
X133805736Y-87291882D01*
X133820297Y-87289722D01*
X133835000Y-87289000D01*
X134135000Y-87289000D01*
X134149703Y-87289722D01*
X134149703Y-87289722D01*
G37*
D14*
X133985000Y-88314000D03*
D13*
G36*
X134149703Y-96589722D02*
G01*
X134164264Y-96591882D01*
X134178543Y-96595459D01*
X134192403Y-96600418D01*
X134205710Y-96606712D01*
X134218336Y-96614280D01*
X134230159Y-96623048D01*
X134241066Y-96632934D01*
X134250952Y-96643841D01*
X134259720Y-96655664D01*
X134267288Y-96668290D01*
X134273582Y-96681597D01*
X134278541Y-96695457D01*
X134282118Y-96709736D01*
X134284278Y-96724297D01*
X134285000Y-96739000D01*
X134285000Y-98489000D01*
X134284278Y-98503703D01*
X134282118Y-98518264D01*
X134278541Y-98532543D01*
X134273582Y-98546403D01*
X134267288Y-98559710D01*
X134259720Y-98572336D01*
X134250952Y-98584159D01*
X134241066Y-98595066D01*
X134230159Y-98604952D01*
X134218336Y-98613720D01*
X134205710Y-98621288D01*
X134192403Y-98627582D01*
X134178543Y-98632541D01*
X134164264Y-98636118D01*
X134149703Y-98638278D01*
X134135000Y-98639000D01*
X133835000Y-98639000D01*
X133820297Y-98638278D01*
X133805736Y-98636118D01*
X133791457Y-98632541D01*
X133777597Y-98627582D01*
X133764290Y-98621288D01*
X133751664Y-98613720D01*
X133739841Y-98604952D01*
X133728934Y-98595066D01*
X133719048Y-98584159D01*
X133710280Y-98572336D01*
X133702712Y-98559710D01*
X133696418Y-98546403D01*
X133691459Y-98532543D01*
X133687882Y-98518264D01*
X133685722Y-98503703D01*
X133685000Y-98489000D01*
X133685000Y-96739000D01*
X133685722Y-96724297D01*
X133687882Y-96709736D01*
X133691459Y-96695457D01*
X133696418Y-96681597D01*
X133702712Y-96668290D01*
X133710280Y-96655664D01*
X133719048Y-96643841D01*
X133728934Y-96632934D01*
X133739841Y-96623048D01*
X133751664Y-96614280D01*
X133764290Y-96606712D01*
X133777597Y-96600418D01*
X133791457Y-96595459D01*
X133805736Y-96591882D01*
X133820297Y-96589722D01*
X133835000Y-96589000D01*
X134135000Y-96589000D01*
X134149703Y-96589722D01*
X134149703Y-96589722D01*
G37*
D14*
X133985000Y-97614000D03*
D13*
G36*
X135419703Y-96589722D02*
G01*
X135434264Y-96591882D01*
X135448543Y-96595459D01*
X135462403Y-96600418D01*
X135475710Y-96606712D01*
X135488336Y-96614280D01*
X135500159Y-96623048D01*
X135511066Y-96632934D01*
X135520952Y-96643841D01*
X135529720Y-96655664D01*
X135537288Y-96668290D01*
X135543582Y-96681597D01*
X135548541Y-96695457D01*
X135552118Y-96709736D01*
X135554278Y-96724297D01*
X135555000Y-96739000D01*
X135555000Y-98489000D01*
X135554278Y-98503703D01*
X135552118Y-98518264D01*
X135548541Y-98532543D01*
X135543582Y-98546403D01*
X135537288Y-98559710D01*
X135529720Y-98572336D01*
X135520952Y-98584159D01*
X135511066Y-98595066D01*
X135500159Y-98604952D01*
X135488336Y-98613720D01*
X135475710Y-98621288D01*
X135462403Y-98627582D01*
X135448543Y-98632541D01*
X135434264Y-98636118D01*
X135419703Y-98638278D01*
X135405000Y-98639000D01*
X135105000Y-98639000D01*
X135090297Y-98638278D01*
X135075736Y-98636118D01*
X135061457Y-98632541D01*
X135047597Y-98627582D01*
X135034290Y-98621288D01*
X135021664Y-98613720D01*
X135009841Y-98604952D01*
X134998934Y-98595066D01*
X134989048Y-98584159D01*
X134980280Y-98572336D01*
X134972712Y-98559710D01*
X134966418Y-98546403D01*
X134961459Y-98532543D01*
X134957882Y-98518264D01*
X134955722Y-98503703D01*
X134955000Y-98489000D01*
X134955000Y-96739000D01*
X134955722Y-96724297D01*
X134957882Y-96709736D01*
X134961459Y-96695457D01*
X134966418Y-96681597D01*
X134972712Y-96668290D01*
X134980280Y-96655664D01*
X134989048Y-96643841D01*
X134998934Y-96632934D01*
X135009841Y-96623048D01*
X135021664Y-96614280D01*
X135034290Y-96606712D01*
X135047597Y-96600418D01*
X135061457Y-96595459D01*
X135075736Y-96591882D01*
X135090297Y-96589722D01*
X135105000Y-96589000D01*
X135405000Y-96589000D01*
X135419703Y-96589722D01*
X135419703Y-96589722D01*
G37*
D14*
X135255000Y-97614000D03*
D13*
G36*
X136689703Y-96589722D02*
G01*
X136704264Y-96591882D01*
X136718543Y-96595459D01*
X136732403Y-96600418D01*
X136745710Y-96606712D01*
X136758336Y-96614280D01*
X136770159Y-96623048D01*
X136781066Y-96632934D01*
X136790952Y-96643841D01*
X136799720Y-96655664D01*
X136807288Y-96668290D01*
X136813582Y-96681597D01*
X136818541Y-96695457D01*
X136822118Y-96709736D01*
X136824278Y-96724297D01*
X136825000Y-96739000D01*
X136825000Y-98489000D01*
X136824278Y-98503703D01*
X136822118Y-98518264D01*
X136818541Y-98532543D01*
X136813582Y-98546403D01*
X136807288Y-98559710D01*
X136799720Y-98572336D01*
X136790952Y-98584159D01*
X136781066Y-98595066D01*
X136770159Y-98604952D01*
X136758336Y-98613720D01*
X136745710Y-98621288D01*
X136732403Y-98627582D01*
X136718543Y-98632541D01*
X136704264Y-98636118D01*
X136689703Y-98638278D01*
X136675000Y-98639000D01*
X136375000Y-98639000D01*
X136360297Y-98638278D01*
X136345736Y-98636118D01*
X136331457Y-98632541D01*
X136317597Y-98627582D01*
X136304290Y-98621288D01*
X136291664Y-98613720D01*
X136279841Y-98604952D01*
X136268934Y-98595066D01*
X136259048Y-98584159D01*
X136250280Y-98572336D01*
X136242712Y-98559710D01*
X136236418Y-98546403D01*
X136231459Y-98532543D01*
X136227882Y-98518264D01*
X136225722Y-98503703D01*
X136225000Y-98489000D01*
X136225000Y-96739000D01*
X136225722Y-96724297D01*
X136227882Y-96709736D01*
X136231459Y-96695457D01*
X136236418Y-96681597D01*
X136242712Y-96668290D01*
X136250280Y-96655664D01*
X136259048Y-96643841D01*
X136268934Y-96632934D01*
X136279841Y-96623048D01*
X136291664Y-96614280D01*
X136304290Y-96606712D01*
X136317597Y-96600418D01*
X136331457Y-96595459D01*
X136345736Y-96591882D01*
X136360297Y-96589722D01*
X136375000Y-96589000D01*
X136675000Y-96589000D01*
X136689703Y-96589722D01*
X136689703Y-96589722D01*
G37*
D14*
X136525000Y-97614000D03*
D13*
G36*
X137959703Y-96589722D02*
G01*
X137974264Y-96591882D01*
X137988543Y-96595459D01*
X138002403Y-96600418D01*
X138015710Y-96606712D01*
X138028336Y-96614280D01*
X138040159Y-96623048D01*
X138051066Y-96632934D01*
X138060952Y-96643841D01*
X138069720Y-96655664D01*
X138077288Y-96668290D01*
X138083582Y-96681597D01*
X138088541Y-96695457D01*
X138092118Y-96709736D01*
X138094278Y-96724297D01*
X138095000Y-96739000D01*
X138095000Y-98489000D01*
X138094278Y-98503703D01*
X138092118Y-98518264D01*
X138088541Y-98532543D01*
X138083582Y-98546403D01*
X138077288Y-98559710D01*
X138069720Y-98572336D01*
X138060952Y-98584159D01*
X138051066Y-98595066D01*
X138040159Y-98604952D01*
X138028336Y-98613720D01*
X138015710Y-98621288D01*
X138002403Y-98627582D01*
X137988543Y-98632541D01*
X137974264Y-98636118D01*
X137959703Y-98638278D01*
X137945000Y-98639000D01*
X137645000Y-98639000D01*
X137630297Y-98638278D01*
X137615736Y-98636118D01*
X137601457Y-98632541D01*
X137587597Y-98627582D01*
X137574290Y-98621288D01*
X137561664Y-98613720D01*
X137549841Y-98604952D01*
X137538934Y-98595066D01*
X137529048Y-98584159D01*
X137520280Y-98572336D01*
X137512712Y-98559710D01*
X137506418Y-98546403D01*
X137501459Y-98532543D01*
X137497882Y-98518264D01*
X137495722Y-98503703D01*
X137495000Y-98489000D01*
X137495000Y-96739000D01*
X137495722Y-96724297D01*
X137497882Y-96709736D01*
X137501459Y-96695457D01*
X137506418Y-96681597D01*
X137512712Y-96668290D01*
X137520280Y-96655664D01*
X137529048Y-96643841D01*
X137538934Y-96632934D01*
X137549841Y-96623048D01*
X137561664Y-96614280D01*
X137574290Y-96606712D01*
X137587597Y-96600418D01*
X137601457Y-96595459D01*
X137615736Y-96591882D01*
X137630297Y-96589722D01*
X137645000Y-96589000D01*
X137945000Y-96589000D01*
X137959703Y-96589722D01*
X137959703Y-96589722D01*
G37*
D14*
X137795000Y-97614000D03*
D13*
G36*
X139229703Y-96589722D02*
G01*
X139244264Y-96591882D01*
X139258543Y-96595459D01*
X139272403Y-96600418D01*
X139285710Y-96606712D01*
X139298336Y-96614280D01*
X139310159Y-96623048D01*
X139321066Y-96632934D01*
X139330952Y-96643841D01*
X139339720Y-96655664D01*
X139347288Y-96668290D01*
X139353582Y-96681597D01*
X139358541Y-96695457D01*
X139362118Y-96709736D01*
X139364278Y-96724297D01*
X139365000Y-96739000D01*
X139365000Y-98489000D01*
X139364278Y-98503703D01*
X139362118Y-98518264D01*
X139358541Y-98532543D01*
X139353582Y-98546403D01*
X139347288Y-98559710D01*
X139339720Y-98572336D01*
X139330952Y-98584159D01*
X139321066Y-98595066D01*
X139310159Y-98604952D01*
X139298336Y-98613720D01*
X139285710Y-98621288D01*
X139272403Y-98627582D01*
X139258543Y-98632541D01*
X139244264Y-98636118D01*
X139229703Y-98638278D01*
X139215000Y-98639000D01*
X138915000Y-98639000D01*
X138900297Y-98638278D01*
X138885736Y-98636118D01*
X138871457Y-98632541D01*
X138857597Y-98627582D01*
X138844290Y-98621288D01*
X138831664Y-98613720D01*
X138819841Y-98604952D01*
X138808934Y-98595066D01*
X138799048Y-98584159D01*
X138790280Y-98572336D01*
X138782712Y-98559710D01*
X138776418Y-98546403D01*
X138771459Y-98532543D01*
X138767882Y-98518264D01*
X138765722Y-98503703D01*
X138765000Y-98489000D01*
X138765000Y-96739000D01*
X138765722Y-96724297D01*
X138767882Y-96709736D01*
X138771459Y-96695457D01*
X138776418Y-96681597D01*
X138782712Y-96668290D01*
X138790280Y-96655664D01*
X138799048Y-96643841D01*
X138808934Y-96632934D01*
X138819841Y-96623048D01*
X138831664Y-96614280D01*
X138844290Y-96606712D01*
X138857597Y-96600418D01*
X138871457Y-96595459D01*
X138885736Y-96591882D01*
X138900297Y-96589722D01*
X138915000Y-96589000D01*
X139215000Y-96589000D01*
X139229703Y-96589722D01*
X139229703Y-96589722D01*
G37*
D14*
X139065000Y-97614000D03*
D13*
G36*
X140499703Y-96589722D02*
G01*
X140514264Y-96591882D01*
X140528543Y-96595459D01*
X140542403Y-96600418D01*
X140555710Y-96606712D01*
X140568336Y-96614280D01*
X140580159Y-96623048D01*
X140591066Y-96632934D01*
X140600952Y-96643841D01*
X140609720Y-96655664D01*
X140617288Y-96668290D01*
X140623582Y-96681597D01*
X140628541Y-96695457D01*
X140632118Y-96709736D01*
X140634278Y-96724297D01*
X140635000Y-96739000D01*
X140635000Y-98489000D01*
X140634278Y-98503703D01*
X140632118Y-98518264D01*
X140628541Y-98532543D01*
X140623582Y-98546403D01*
X140617288Y-98559710D01*
X140609720Y-98572336D01*
X140600952Y-98584159D01*
X140591066Y-98595066D01*
X140580159Y-98604952D01*
X140568336Y-98613720D01*
X140555710Y-98621288D01*
X140542403Y-98627582D01*
X140528543Y-98632541D01*
X140514264Y-98636118D01*
X140499703Y-98638278D01*
X140485000Y-98639000D01*
X140185000Y-98639000D01*
X140170297Y-98638278D01*
X140155736Y-98636118D01*
X140141457Y-98632541D01*
X140127597Y-98627582D01*
X140114290Y-98621288D01*
X140101664Y-98613720D01*
X140089841Y-98604952D01*
X140078934Y-98595066D01*
X140069048Y-98584159D01*
X140060280Y-98572336D01*
X140052712Y-98559710D01*
X140046418Y-98546403D01*
X140041459Y-98532543D01*
X140037882Y-98518264D01*
X140035722Y-98503703D01*
X140035000Y-98489000D01*
X140035000Y-96739000D01*
X140035722Y-96724297D01*
X140037882Y-96709736D01*
X140041459Y-96695457D01*
X140046418Y-96681597D01*
X140052712Y-96668290D01*
X140060280Y-96655664D01*
X140069048Y-96643841D01*
X140078934Y-96632934D01*
X140089841Y-96623048D01*
X140101664Y-96614280D01*
X140114290Y-96606712D01*
X140127597Y-96600418D01*
X140141457Y-96595459D01*
X140155736Y-96591882D01*
X140170297Y-96589722D01*
X140185000Y-96589000D01*
X140485000Y-96589000D01*
X140499703Y-96589722D01*
X140499703Y-96589722D01*
G37*
D14*
X140335000Y-97614000D03*
D13*
G36*
X141769703Y-96589722D02*
G01*
X141784264Y-96591882D01*
X141798543Y-96595459D01*
X141812403Y-96600418D01*
X141825710Y-96606712D01*
X141838336Y-96614280D01*
X141850159Y-96623048D01*
X141861066Y-96632934D01*
X141870952Y-96643841D01*
X141879720Y-96655664D01*
X141887288Y-96668290D01*
X141893582Y-96681597D01*
X141898541Y-96695457D01*
X141902118Y-96709736D01*
X141904278Y-96724297D01*
X141905000Y-96739000D01*
X141905000Y-98489000D01*
X141904278Y-98503703D01*
X141902118Y-98518264D01*
X141898541Y-98532543D01*
X141893582Y-98546403D01*
X141887288Y-98559710D01*
X141879720Y-98572336D01*
X141870952Y-98584159D01*
X141861066Y-98595066D01*
X141850159Y-98604952D01*
X141838336Y-98613720D01*
X141825710Y-98621288D01*
X141812403Y-98627582D01*
X141798543Y-98632541D01*
X141784264Y-98636118D01*
X141769703Y-98638278D01*
X141755000Y-98639000D01*
X141455000Y-98639000D01*
X141440297Y-98638278D01*
X141425736Y-98636118D01*
X141411457Y-98632541D01*
X141397597Y-98627582D01*
X141384290Y-98621288D01*
X141371664Y-98613720D01*
X141359841Y-98604952D01*
X141348934Y-98595066D01*
X141339048Y-98584159D01*
X141330280Y-98572336D01*
X141322712Y-98559710D01*
X141316418Y-98546403D01*
X141311459Y-98532543D01*
X141307882Y-98518264D01*
X141305722Y-98503703D01*
X141305000Y-98489000D01*
X141305000Y-96739000D01*
X141305722Y-96724297D01*
X141307882Y-96709736D01*
X141311459Y-96695457D01*
X141316418Y-96681597D01*
X141322712Y-96668290D01*
X141330280Y-96655664D01*
X141339048Y-96643841D01*
X141348934Y-96632934D01*
X141359841Y-96623048D01*
X141371664Y-96614280D01*
X141384290Y-96606712D01*
X141397597Y-96600418D01*
X141411457Y-96595459D01*
X141425736Y-96591882D01*
X141440297Y-96589722D01*
X141455000Y-96589000D01*
X141755000Y-96589000D01*
X141769703Y-96589722D01*
X141769703Y-96589722D01*
G37*
D14*
X141605000Y-97614000D03*
D13*
G36*
X143039703Y-96589722D02*
G01*
X143054264Y-96591882D01*
X143068543Y-96595459D01*
X143082403Y-96600418D01*
X143095710Y-96606712D01*
X143108336Y-96614280D01*
X143120159Y-96623048D01*
X143131066Y-96632934D01*
X143140952Y-96643841D01*
X143149720Y-96655664D01*
X143157288Y-96668290D01*
X143163582Y-96681597D01*
X143168541Y-96695457D01*
X143172118Y-96709736D01*
X143174278Y-96724297D01*
X143175000Y-96739000D01*
X143175000Y-98489000D01*
X143174278Y-98503703D01*
X143172118Y-98518264D01*
X143168541Y-98532543D01*
X143163582Y-98546403D01*
X143157288Y-98559710D01*
X143149720Y-98572336D01*
X143140952Y-98584159D01*
X143131066Y-98595066D01*
X143120159Y-98604952D01*
X143108336Y-98613720D01*
X143095710Y-98621288D01*
X143082403Y-98627582D01*
X143068543Y-98632541D01*
X143054264Y-98636118D01*
X143039703Y-98638278D01*
X143025000Y-98639000D01*
X142725000Y-98639000D01*
X142710297Y-98638278D01*
X142695736Y-98636118D01*
X142681457Y-98632541D01*
X142667597Y-98627582D01*
X142654290Y-98621288D01*
X142641664Y-98613720D01*
X142629841Y-98604952D01*
X142618934Y-98595066D01*
X142609048Y-98584159D01*
X142600280Y-98572336D01*
X142592712Y-98559710D01*
X142586418Y-98546403D01*
X142581459Y-98532543D01*
X142577882Y-98518264D01*
X142575722Y-98503703D01*
X142575000Y-98489000D01*
X142575000Y-96739000D01*
X142575722Y-96724297D01*
X142577882Y-96709736D01*
X142581459Y-96695457D01*
X142586418Y-96681597D01*
X142592712Y-96668290D01*
X142600280Y-96655664D01*
X142609048Y-96643841D01*
X142618934Y-96632934D01*
X142629841Y-96623048D01*
X142641664Y-96614280D01*
X142654290Y-96606712D01*
X142667597Y-96600418D01*
X142681457Y-96595459D01*
X142695736Y-96591882D01*
X142710297Y-96589722D01*
X142725000Y-96589000D01*
X143025000Y-96589000D01*
X143039703Y-96589722D01*
X143039703Y-96589722D01*
G37*
D14*
X142875000Y-97614000D03*
D13*
G36*
X144309703Y-96589722D02*
G01*
X144324264Y-96591882D01*
X144338543Y-96595459D01*
X144352403Y-96600418D01*
X144365710Y-96606712D01*
X144378336Y-96614280D01*
X144390159Y-96623048D01*
X144401066Y-96632934D01*
X144410952Y-96643841D01*
X144419720Y-96655664D01*
X144427288Y-96668290D01*
X144433582Y-96681597D01*
X144438541Y-96695457D01*
X144442118Y-96709736D01*
X144444278Y-96724297D01*
X144445000Y-96739000D01*
X144445000Y-98489000D01*
X144444278Y-98503703D01*
X144442118Y-98518264D01*
X144438541Y-98532543D01*
X144433582Y-98546403D01*
X144427288Y-98559710D01*
X144419720Y-98572336D01*
X144410952Y-98584159D01*
X144401066Y-98595066D01*
X144390159Y-98604952D01*
X144378336Y-98613720D01*
X144365710Y-98621288D01*
X144352403Y-98627582D01*
X144338543Y-98632541D01*
X144324264Y-98636118D01*
X144309703Y-98638278D01*
X144295000Y-98639000D01*
X143995000Y-98639000D01*
X143980297Y-98638278D01*
X143965736Y-98636118D01*
X143951457Y-98632541D01*
X143937597Y-98627582D01*
X143924290Y-98621288D01*
X143911664Y-98613720D01*
X143899841Y-98604952D01*
X143888934Y-98595066D01*
X143879048Y-98584159D01*
X143870280Y-98572336D01*
X143862712Y-98559710D01*
X143856418Y-98546403D01*
X143851459Y-98532543D01*
X143847882Y-98518264D01*
X143845722Y-98503703D01*
X143845000Y-98489000D01*
X143845000Y-96739000D01*
X143845722Y-96724297D01*
X143847882Y-96709736D01*
X143851459Y-96695457D01*
X143856418Y-96681597D01*
X143862712Y-96668290D01*
X143870280Y-96655664D01*
X143879048Y-96643841D01*
X143888934Y-96632934D01*
X143899841Y-96623048D01*
X143911664Y-96614280D01*
X143924290Y-96606712D01*
X143937597Y-96600418D01*
X143951457Y-96595459D01*
X143965736Y-96591882D01*
X143980297Y-96589722D01*
X143995000Y-96589000D01*
X144295000Y-96589000D01*
X144309703Y-96589722D01*
X144309703Y-96589722D01*
G37*
D14*
X144145000Y-97614000D03*
D13*
G36*
X145579703Y-96589722D02*
G01*
X145594264Y-96591882D01*
X145608543Y-96595459D01*
X145622403Y-96600418D01*
X145635710Y-96606712D01*
X145648336Y-96614280D01*
X145660159Y-96623048D01*
X145671066Y-96632934D01*
X145680952Y-96643841D01*
X145689720Y-96655664D01*
X145697288Y-96668290D01*
X145703582Y-96681597D01*
X145708541Y-96695457D01*
X145712118Y-96709736D01*
X145714278Y-96724297D01*
X145715000Y-96739000D01*
X145715000Y-98489000D01*
X145714278Y-98503703D01*
X145712118Y-98518264D01*
X145708541Y-98532543D01*
X145703582Y-98546403D01*
X145697288Y-98559710D01*
X145689720Y-98572336D01*
X145680952Y-98584159D01*
X145671066Y-98595066D01*
X145660159Y-98604952D01*
X145648336Y-98613720D01*
X145635710Y-98621288D01*
X145622403Y-98627582D01*
X145608543Y-98632541D01*
X145594264Y-98636118D01*
X145579703Y-98638278D01*
X145565000Y-98639000D01*
X145265000Y-98639000D01*
X145250297Y-98638278D01*
X145235736Y-98636118D01*
X145221457Y-98632541D01*
X145207597Y-98627582D01*
X145194290Y-98621288D01*
X145181664Y-98613720D01*
X145169841Y-98604952D01*
X145158934Y-98595066D01*
X145149048Y-98584159D01*
X145140280Y-98572336D01*
X145132712Y-98559710D01*
X145126418Y-98546403D01*
X145121459Y-98532543D01*
X145117882Y-98518264D01*
X145115722Y-98503703D01*
X145115000Y-98489000D01*
X145115000Y-96739000D01*
X145115722Y-96724297D01*
X145117882Y-96709736D01*
X145121459Y-96695457D01*
X145126418Y-96681597D01*
X145132712Y-96668290D01*
X145140280Y-96655664D01*
X145149048Y-96643841D01*
X145158934Y-96632934D01*
X145169841Y-96623048D01*
X145181664Y-96614280D01*
X145194290Y-96606712D01*
X145207597Y-96600418D01*
X145221457Y-96595459D01*
X145235736Y-96591882D01*
X145250297Y-96589722D01*
X145265000Y-96589000D01*
X145565000Y-96589000D01*
X145579703Y-96589722D01*
X145579703Y-96589722D01*
G37*
D14*
X145415000Y-97614000D03*
D13*
G36*
X146849703Y-96589722D02*
G01*
X146864264Y-96591882D01*
X146878543Y-96595459D01*
X146892403Y-96600418D01*
X146905710Y-96606712D01*
X146918336Y-96614280D01*
X146930159Y-96623048D01*
X146941066Y-96632934D01*
X146950952Y-96643841D01*
X146959720Y-96655664D01*
X146967288Y-96668290D01*
X146973582Y-96681597D01*
X146978541Y-96695457D01*
X146982118Y-96709736D01*
X146984278Y-96724297D01*
X146985000Y-96739000D01*
X146985000Y-98489000D01*
X146984278Y-98503703D01*
X146982118Y-98518264D01*
X146978541Y-98532543D01*
X146973582Y-98546403D01*
X146967288Y-98559710D01*
X146959720Y-98572336D01*
X146950952Y-98584159D01*
X146941066Y-98595066D01*
X146930159Y-98604952D01*
X146918336Y-98613720D01*
X146905710Y-98621288D01*
X146892403Y-98627582D01*
X146878543Y-98632541D01*
X146864264Y-98636118D01*
X146849703Y-98638278D01*
X146835000Y-98639000D01*
X146535000Y-98639000D01*
X146520297Y-98638278D01*
X146505736Y-98636118D01*
X146491457Y-98632541D01*
X146477597Y-98627582D01*
X146464290Y-98621288D01*
X146451664Y-98613720D01*
X146439841Y-98604952D01*
X146428934Y-98595066D01*
X146419048Y-98584159D01*
X146410280Y-98572336D01*
X146402712Y-98559710D01*
X146396418Y-98546403D01*
X146391459Y-98532543D01*
X146387882Y-98518264D01*
X146385722Y-98503703D01*
X146385000Y-98489000D01*
X146385000Y-96739000D01*
X146385722Y-96724297D01*
X146387882Y-96709736D01*
X146391459Y-96695457D01*
X146396418Y-96681597D01*
X146402712Y-96668290D01*
X146410280Y-96655664D01*
X146419048Y-96643841D01*
X146428934Y-96632934D01*
X146439841Y-96623048D01*
X146451664Y-96614280D01*
X146464290Y-96606712D01*
X146477597Y-96600418D01*
X146491457Y-96595459D01*
X146505736Y-96591882D01*
X146520297Y-96589722D01*
X146535000Y-96589000D01*
X146835000Y-96589000D01*
X146849703Y-96589722D01*
X146849703Y-96589722D01*
G37*
D14*
X146685000Y-97614000D03*
D13*
G36*
X148119703Y-96589722D02*
G01*
X148134264Y-96591882D01*
X148148543Y-96595459D01*
X148162403Y-96600418D01*
X148175710Y-96606712D01*
X148188336Y-96614280D01*
X148200159Y-96623048D01*
X148211066Y-96632934D01*
X148220952Y-96643841D01*
X148229720Y-96655664D01*
X148237288Y-96668290D01*
X148243582Y-96681597D01*
X148248541Y-96695457D01*
X148252118Y-96709736D01*
X148254278Y-96724297D01*
X148255000Y-96739000D01*
X148255000Y-98489000D01*
X148254278Y-98503703D01*
X148252118Y-98518264D01*
X148248541Y-98532543D01*
X148243582Y-98546403D01*
X148237288Y-98559710D01*
X148229720Y-98572336D01*
X148220952Y-98584159D01*
X148211066Y-98595066D01*
X148200159Y-98604952D01*
X148188336Y-98613720D01*
X148175710Y-98621288D01*
X148162403Y-98627582D01*
X148148543Y-98632541D01*
X148134264Y-98636118D01*
X148119703Y-98638278D01*
X148105000Y-98639000D01*
X147805000Y-98639000D01*
X147790297Y-98638278D01*
X147775736Y-98636118D01*
X147761457Y-98632541D01*
X147747597Y-98627582D01*
X147734290Y-98621288D01*
X147721664Y-98613720D01*
X147709841Y-98604952D01*
X147698934Y-98595066D01*
X147689048Y-98584159D01*
X147680280Y-98572336D01*
X147672712Y-98559710D01*
X147666418Y-98546403D01*
X147661459Y-98532543D01*
X147657882Y-98518264D01*
X147655722Y-98503703D01*
X147655000Y-98489000D01*
X147655000Y-96739000D01*
X147655722Y-96724297D01*
X147657882Y-96709736D01*
X147661459Y-96695457D01*
X147666418Y-96681597D01*
X147672712Y-96668290D01*
X147680280Y-96655664D01*
X147689048Y-96643841D01*
X147698934Y-96632934D01*
X147709841Y-96623048D01*
X147721664Y-96614280D01*
X147734290Y-96606712D01*
X147747597Y-96600418D01*
X147761457Y-96595459D01*
X147775736Y-96591882D01*
X147790297Y-96589722D01*
X147805000Y-96589000D01*
X148105000Y-96589000D01*
X148119703Y-96589722D01*
X148119703Y-96589722D01*
G37*
D14*
X147955000Y-97614000D03*
D13*
G36*
X190182103Y-86565822D02*
G01*
X190196664Y-86567982D01*
X190210943Y-86571559D01*
X190224803Y-86576518D01*
X190238110Y-86582812D01*
X190250736Y-86590380D01*
X190262559Y-86599148D01*
X190273466Y-86609034D01*
X190283352Y-86619941D01*
X190292120Y-86631764D01*
X190299688Y-86644390D01*
X190305982Y-86657697D01*
X190310941Y-86671557D01*
X190314518Y-86685836D01*
X190316678Y-86700397D01*
X190317400Y-86715100D01*
X190317400Y-88465100D01*
X190316678Y-88479803D01*
X190314518Y-88494364D01*
X190310941Y-88508643D01*
X190305982Y-88522503D01*
X190299688Y-88535810D01*
X190292120Y-88548436D01*
X190283352Y-88560259D01*
X190273466Y-88571166D01*
X190262559Y-88581052D01*
X190250736Y-88589820D01*
X190238110Y-88597388D01*
X190224803Y-88603682D01*
X190210943Y-88608641D01*
X190196664Y-88612218D01*
X190182103Y-88614378D01*
X190167400Y-88615100D01*
X189867400Y-88615100D01*
X189852697Y-88614378D01*
X189838136Y-88612218D01*
X189823857Y-88608641D01*
X189809997Y-88603682D01*
X189796690Y-88597388D01*
X189784064Y-88589820D01*
X189772241Y-88581052D01*
X189761334Y-88571166D01*
X189751448Y-88560259D01*
X189742680Y-88548436D01*
X189735112Y-88535810D01*
X189728818Y-88522503D01*
X189723859Y-88508643D01*
X189720282Y-88494364D01*
X189718122Y-88479803D01*
X189717400Y-88465100D01*
X189717400Y-86715100D01*
X189718122Y-86700397D01*
X189720282Y-86685836D01*
X189723859Y-86671557D01*
X189728818Y-86657697D01*
X189735112Y-86644390D01*
X189742680Y-86631764D01*
X189751448Y-86619941D01*
X189761334Y-86609034D01*
X189772241Y-86599148D01*
X189784064Y-86590380D01*
X189796690Y-86582812D01*
X189809997Y-86576518D01*
X189823857Y-86571559D01*
X189838136Y-86567982D01*
X189852697Y-86565822D01*
X189867400Y-86565100D01*
X190167400Y-86565100D01*
X190182103Y-86565822D01*
X190182103Y-86565822D01*
G37*
D14*
X190017400Y-87590100D03*
D13*
G36*
X191452103Y-86565822D02*
G01*
X191466664Y-86567982D01*
X191480943Y-86571559D01*
X191494803Y-86576518D01*
X191508110Y-86582812D01*
X191520736Y-86590380D01*
X191532559Y-86599148D01*
X191543466Y-86609034D01*
X191553352Y-86619941D01*
X191562120Y-86631764D01*
X191569688Y-86644390D01*
X191575982Y-86657697D01*
X191580941Y-86671557D01*
X191584518Y-86685836D01*
X191586678Y-86700397D01*
X191587400Y-86715100D01*
X191587400Y-88465100D01*
X191586678Y-88479803D01*
X191584518Y-88494364D01*
X191580941Y-88508643D01*
X191575982Y-88522503D01*
X191569688Y-88535810D01*
X191562120Y-88548436D01*
X191553352Y-88560259D01*
X191543466Y-88571166D01*
X191532559Y-88581052D01*
X191520736Y-88589820D01*
X191508110Y-88597388D01*
X191494803Y-88603682D01*
X191480943Y-88608641D01*
X191466664Y-88612218D01*
X191452103Y-88614378D01*
X191437400Y-88615100D01*
X191137400Y-88615100D01*
X191122697Y-88614378D01*
X191108136Y-88612218D01*
X191093857Y-88608641D01*
X191079997Y-88603682D01*
X191066690Y-88597388D01*
X191054064Y-88589820D01*
X191042241Y-88581052D01*
X191031334Y-88571166D01*
X191021448Y-88560259D01*
X191012680Y-88548436D01*
X191005112Y-88535810D01*
X190998818Y-88522503D01*
X190993859Y-88508643D01*
X190990282Y-88494364D01*
X190988122Y-88479803D01*
X190987400Y-88465100D01*
X190987400Y-86715100D01*
X190988122Y-86700397D01*
X190990282Y-86685836D01*
X190993859Y-86671557D01*
X190998818Y-86657697D01*
X191005112Y-86644390D01*
X191012680Y-86631764D01*
X191021448Y-86619941D01*
X191031334Y-86609034D01*
X191042241Y-86599148D01*
X191054064Y-86590380D01*
X191066690Y-86582812D01*
X191079997Y-86576518D01*
X191093857Y-86571559D01*
X191108136Y-86567982D01*
X191122697Y-86565822D01*
X191137400Y-86565100D01*
X191437400Y-86565100D01*
X191452103Y-86565822D01*
X191452103Y-86565822D01*
G37*
D14*
X191287400Y-87590100D03*
D13*
G36*
X192722103Y-86565822D02*
G01*
X192736664Y-86567982D01*
X192750943Y-86571559D01*
X192764803Y-86576518D01*
X192778110Y-86582812D01*
X192790736Y-86590380D01*
X192802559Y-86599148D01*
X192813466Y-86609034D01*
X192823352Y-86619941D01*
X192832120Y-86631764D01*
X192839688Y-86644390D01*
X192845982Y-86657697D01*
X192850941Y-86671557D01*
X192854518Y-86685836D01*
X192856678Y-86700397D01*
X192857400Y-86715100D01*
X192857400Y-88465100D01*
X192856678Y-88479803D01*
X192854518Y-88494364D01*
X192850941Y-88508643D01*
X192845982Y-88522503D01*
X192839688Y-88535810D01*
X192832120Y-88548436D01*
X192823352Y-88560259D01*
X192813466Y-88571166D01*
X192802559Y-88581052D01*
X192790736Y-88589820D01*
X192778110Y-88597388D01*
X192764803Y-88603682D01*
X192750943Y-88608641D01*
X192736664Y-88612218D01*
X192722103Y-88614378D01*
X192707400Y-88615100D01*
X192407400Y-88615100D01*
X192392697Y-88614378D01*
X192378136Y-88612218D01*
X192363857Y-88608641D01*
X192349997Y-88603682D01*
X192336690Y-88597388D01*
X192324064Y-88589820D01*
X192312241Y-88581052D01*
X192301334Y-88571166D01*
X192291448Y-88560259D01*
X192282680Y-88548436D01*
X192275112Y-88535810D01*
X192268818Y-88522503D01*
X192263859Y-88508643D01*
X192260282Y-88494364D01*
X192258122Y-88479803D01*
X192257400Y-88465100D01*
X192257400Y-86715100D01*
X192258122Y-86700397D01*
X192260282Y-86685836D01*
X192263859Y-86671557D01*
X192268818Y-86657697D01*
X192275112Y-86644390D01*
X192282680Y-86631764D01*
X192291448Y-86619941D01*
X192301334Y-86609034D01*
X192312241Y-86599148D01*
X192324064Y-86590380D01*
X192336690Y-86582812D01*
X192349997Y-86576518D01*
X192363857Y-86571559D01*
X192378136Y-86567982D01*
X192392697Y-86565822D01*
X192407400Y-86565100D01*
X192707400Y-86565100D01*
X192722103Y-86565822D01*
X192722103Y-86565822D01*
G37*
D14*
X192557400Y-87590100D03*
D13*
G36*
X193992103Y-86565822D02*
G01*
X194006664Y-86567982D01*
X194020943Y-86571559D01*
X194034803Y-86576518D01*
X194048110Y-86582812D01*
X194060736Y-86590380D01*
X194072559Y-86599148D01*
X194083466Y-86609034D01*
X194093352Y-86619941D01*
X194102120Y-86631764D01*
X194109688Y-86644390D01*
X194115982Y-86657697D01*
X194120941Y-86671557D01*
X194124518Y-86685836D01*
X194126678Y-86700397D01*
X194127400Y-86715100D01*
X194127400Y-88465100D01*
X194126678Y-88479803D01*
X194124518Y-88494364D01*
X194120941Y-88508643D01*
X194115982Y-88522503D01*
X194109688Y-88535810D01*
X194102120Y-88548436D01*
X194093352Y-88560259D01*
X194083466Y-88571166D01*
X194072559Y-88581052D01*
X194060736Y-88589820D01*
X194048110Y-88597388D01*
X194034803Y-88603682D01*
X194020943Y-88608641D01*
X194006664Y-88612218D01*
X193992103Y-88614378D01*
X193977400Y-88615100D01*
X193677400Y-88615100D01*
X193662697Y-88614378D01*
X193648136Y-88612218D01*
X193633857Y-88608641D01*
X193619997Y-88603682D01*
X193606690Y-88597388D01*
X193594064Y-88589820D01*
X193582241Y-88581052D01*
X193571334Y-88571166D01*
X193561448Y-88560259D01*
X193552680Y-88548436D01*
X193545112Y-88535810D01*
X193538818Y-88522503D01*
X193533859Y-88508643D01*
X193530282Y-88494364D01*
X193528122Y-88479803D01*
X193527400Y-88465100D01*
X193527400Y-86715100D01*
X193528122Y-86700397D01*
X193530282Y-86685836D01*
X193533859Y-86671557D01*
X193538818Y-86657697D01*
X193545112Y-86644390D01*
X193552680Y-86631764D01*
X193561448Y-86619941D01*
X193571334Y-86609034D01*
X193582241Y-86599148D01*
X193594064Y-86590380D01*
X193606690Y-86582812D01*
X193619997Y-86576518D01*
X193633857Y-86571559D01*
X193648136Y-86567982D01*
X193662697Y-86565822D01*
X193677400Y-86565100D01*
X193977400Y-86565100D01*
X193992103Y-86565822D01*
X193992103Y-86565822D01*
G37*
D14*
X193827400Y-87590100D03*
D13*
G36*
X195262103Y-86565822D02*
G01*
X195276664Y-86567982D01*
X195290943Y-86571559D01*
X195304803Y-86576518D01*
X195318110Y-86582812D01*
X195330736Y-86590380D01*
X195342559Y-86599148D01*
X195353466Y-86609034D01*
X195363352Y-86619941D01*
X195372120Y-86631764D01*
X195379688Y-86644390D01*
X195385982Y-86657697D01*
X195390941Y-86671557D01*
X195394518Y-86685836D01*
X195396678Y-86700397D01*
X195397400Y-86715100D01*
X195397400Y-88465100D01*
X195396678Y-88479803D01*
X195394518Y-88494364D01*
X195390941Y-88508643D01*
X195385982Y-88522503D01*
X195379688Y-88535810D01*
X195372120Y-88548436D01*
X195363352Y-88560259D01*
X195353466Y-88571166D01*
X195342559Y-88581052D01*
X195330736Y-88589820D01*
X195318110Y-88597388D01*
X195304803Y-88603682D01*
X195290943Y-88608641D01*
X195276664Y-88612218D01*
X195262103Y-88614378D01*
X195247400Y-88615100D01*
X194947400Y-88615100D01*
X194932697Y-88614378D01*
X194918136Y-88612218D01*
X194903857Y-88608641D01*
X194889997Y-88603682D01*
X194876690Y-88597388D01*
X194864064Y-88589820D01*
X194852241Y-88581052D01*
X194841334Y-88571166D01*
X194831448Y-88560259D01*
X194822680Y-88548436D01*
X194815112Y-88535810D01*
X194808818Y-88522503D01*
X194803859Y-88508643D01*
X194800282Y-88494364D01*
X194798122Y-88479803D01*
X194797400Y-88465100D01*
X194797400Y-86715100D01*
X194798122Y-86700397D01*
X194800282Y-86685836D01*
X194803859Y-86671557D01*
X194808818Y-86657697D01*
X194815112Y-86644390D01*
X194822680Y-86631764D01*
X194831448Y-86619941D01*
X194841334Y-86609034D01*
X194852241Y-86599148D01*
X194864064Y-86590380D01*
X194876690Y-86582812D01*
X194889997Y-86576518D01*
X194903857Y-86571559D01*
X194918136Y-86567982D01*
X194932697Y-86565822D01*
X194947400Y-86565100D01*
X195247400Y-86565100D01*
X195262103Y-86565822D01*
X195262103Y-86565822D01*
G37*
D14*
X195097400Y-87590100D03*
D13*
G36*
X196532103Y-86565822D02*
G01*
X196546664Y-86567982D01*
X196560943Y-86571559D01*
X196574803Y-86576518D01*
X196588110Y-86582812D01*
X196600736Y-86590380D01*
X196612559Y-86599148D01*
X196623466Y-86609034D01*
X196633352Y-86619941D01*
X196642120Y-86631764D01*
X196649688Y-86644390D01*
X196655982Y-86657697D01*
X196660941Y-86671557D01*
X196664518Y-86685836D01*
X196666678Y-86700397D01*
X196667400Y-86715100D01*
X196667400Y-88465100D01*
X196666678Y-88479803D01*
X196664518Y-88494364D01*
X196660941Y-88508643D01*
X196655982Y-88522503D01*
X196649688Y-88535810D01*
X196642120Y-88548436D01*
X196633352Y-88560259D01*
X196623466Y-88571166D01*
X196612559Y-88581052D01*
X196600736Y-88589820D01*
X196588110Y-88597388D01*
X196574803Y-88603682D01*
X196560943Y-88608641D01*
X196546664Y-88612218D01*
X196532103Y-88614378D01*
X196517400Y-88615100D01*
X196217400Y-88615100D01*
X196202697Y-88614378D01*
X196188136Y-88612218D01*
X196173857Y-88608641D01*
X196159997Y-88603682D01*
X196146690Y-88597388D01*
X196134064Y-88589820D01*
X196122241Y-88581052D01*
X196111334Y-88571166D01*
X196101448Y-88560259D01*
X196092680Y-88548436D01*
X196085112Y-88535810D01*
X196078818Y-88522503D01*
X196073859Y-88508643D01*
X196070282Y-88494364D01*
X196068122Y-88479803D01*
X196067400Y-88465100D01*
X196067400Y-86715100D01*
X196068122Y-86700397D01*
X196070282Y-86685836D01*
X196073859Y-86671557D01*
X196078818Y-86657697D01*
X196085112Y-86644390D01*
X196092680Y-86631764D01*
X196101448Y-86619941D01*
X196111334Y-86609034D01*
X196122241Y-86599148D01*
X196134064Y-86590380D01*
X196146690Y-86582812D01*
X196159997Y-86576518D01*
X196173857Y-86571559D01*
X196188136Y-86567982D01*
X196202697Y-86565822D01*
X196217400Y-86565100D01*
X196517400Y-86565100D01*
X196532103Y-86565822D01*
X196532103Y-86565822D01*
G37*
D14*
X196367400Y-87590100D03*
D13*
G36*
X197802103Y-86565822D02*
G01*
X197816664Y-86567982D01*
X197830943Y-86571559D01*
X197844803Y-86576518D01*
X197858110Y-86582812D01*
X197870736Y-86590380D01*
X197882559Y-86599148D01*
X197893466Y-86609034D01*
X197903352Y-86619941D01*
X197912120Y-86631764D01*
X197919688Y-86644390D01*
X197925982Y-86657697D01*
X197930941Y-86671557D01*
X197934518Y-86685836D01*
X197936678Y-86700397D01*
X197937400Y-86715100D01*
X197937400Y-88465100D01*
X197936678Y-88479803D01*
X197934518Y-88494364D01*
X197930941Y-88508643D01*
X197925982Y-88522503D01*
X197919688Y-88535810D01*
X197912120Y-88548436D01*
X197903352Y-88560259D01*
X197893466Y-88571166D01*
X197882559Y-88581052D01*
X197870736Y-88589820D01*
X197858110Y-88597388D01*
X197844803Y-88603682D01*
X197830943Y-88608641D01*
X197816664Y-88612218D01*
X197802103Y-88614378D01*
X197787400Y-88615100D01*
X197487400Y-88615100D01*
X197472697Y-88614378D01*
X197458136Y-88612218D01*
X197443857Y-88608641D01*
X197429997Y-88603682D01*
X197416690Y-88597388D01*
X197404064Y-88589820D01*
X197392241Y-88581052D01*
X197381334Y-88571166D01*
X197371448Y-88560259D01*
X197362680Y-88548436D01*
X197355112Y-88535810D01*
X197348818Y-88522503D01*
X197343859Y-88508643D01*
X197340282Y-88494364D01*
X197338122Y-88479803D01*
X197337400Y-88465100D01*
X197337400Y-86715100D01*
X197338122Y-86700397D01*
X197340282Y-86685836D01*
X197343859Y-86671557D01*
X197348818Y-86657697D01*
X197355112Y-86644390D01*
X197362680Y-86631764D01*
X197371448Y-86619941D01*
X197381334Y-86609034D01*
X197392241Y-86599148D01*
X197404064Y-86590380D01*
X197416690Y-86582812D01*
X197429997Y-86576518D01*
X197443857Y-86571559D01*
X197458136Y-86567982D01*
X197472697Y-86565822D01*
X197487400Y-86565100D01*
X197787400Y-86565100D01*
X197802103Y-86565822D01*
X197802103Y-86565822D01*
G37*
D14*
X197637400Y-87590100D03*
D13*
G36*
X199072103Y-86565822D02*
G01*
X199086664Y-86567982D01*
X199100943Y-86571559D01*
X199114803Y-86576518D01*
X199128110Y-86582812D01*
X199140736Y-86590380D01*
X199152559Y-86599148D01*
X199163466Y-86609034D01*
X199173352Y-86619941D01*
X199182120Y-86631764D01*
X199189688Y-86644390D01*
X199195982Y-86657697D01*
X199200941Y-86671557D01*
X199204518Y-86685836D01*
X199206678Y-86700397D01*
X199207400Y-86715100D01*
X199207400Y-88465100D01*
X199206678Y-88479803D01*
X199204518Y-88494364D01*
X199200941Y-88508643D01*
X199195982Y-88522503D01*
X199189688Y-88535810D01*
X199182120Y-88548436D01*
X199173352Y-88560259D01*
X199163466Y-88571166D01*
X199152559Y-88581052D01*
X199140736Y-88589820D01*
X199128110Y-88597388D01*
X199114803Y-88603682D01*
X199100943Y-88608641D01*
X199086664Y-88612218D01*
X199072103Y-88614378D01*
X199057400Y-88615100D01*
X198757400Y-88615100D01*
X198742697Y-88614378D01*
X198728136Y-88612218D01*
X198713857Y-88608641D01*
X198699997Y-88603682D01*
X198686690Y-88597388D01*
X198674064Y-88589820D01*
X198662241Y-88581052D01*
X198651334Y-88571166D01*
X198641448Y-88560259D01*
X198632680Y-88548436D01*
X198625112Y-88535810D01*
X198618818Y-88522503D01*
X198613859Y-88508643D01*
X198610282Y-88494364D01*
X198608122Y-88479803D01*
X198607400Y-88465100D01*
X198607400Y-86715100D01*
X198608122Y-86700397D01*
X198610282Y-86685836D01*
X198613859Y-86671557D01*
X198618818Y-86657697D01*
X198625112Y-86644390D01*
X198632680Y-86631764D01*
X198641448Y-86619941D01*
X198651334Y-86609034D01*
X198662241Y-86599148D01*
X198674064Y-86590380D01*
X198686690Y-86582812D01*
X198699997Y-86576518D01*
X198713857Y-86571559D01*
X198728136Y-86567982D01*
X198742697Y-86565822D01*
X198757400Y-86565100D01*
X199057400Y-86565100D01*
X199072103Y-86565822D01*
X199072103Y-86565822D01*
G37*
D14*
X198907400Y-87590100D03*
D13*
G36*
X200342103Y-86565822D02*
G01*
X200356664Y-86567982D01*
X200370943Y-86571559D01*
X200384803Y-86576518D01*
X200398110Y-86582812D01*
X200410736Y-86590380D01*
X200422559Y-86599148D01*
X200433466Y-86609034D01*
X200443352Y-86619941D01*
X200452120Y-86631764D01*
X200459688Y-86644390D01*
X200465982Y-86657697D01*
X200470941Y-86671557D01*
X200474518Y-86685836D01*
X200476678Y-86700397D01*
X200477400Y-86715100D01*
X200477400Y-88465100D01*
X200476678Y-88479803D01*
X200474518Y-88494364D01*
X200470941Y-88508643D01*
X200465982Y-88522503D01*
X200459688Y-88535810D01*
X200452120Y-88548436D01*
X200443352Y-88560259D01*
X200433466Y-88571166D01*
X200422559Y-88581052D01*
X200410736Y-88589820D01*
X200398110Y-88597388D01*
X200384803Y-88603682D01*
X200370943Y-88608641D01*
X200356664Y-88612218D01*
X200342103Y-88614378D01*
X200327400Y-88615100D01*
X200027400Y-88615100D01*
X200012697Y-88614378D01*
X199998136Y-88612218D01*
X199983857Y-88608641D01*
X199969997Y-88603682D01*
X199956690Y-88597388D01*
X199944064Y-88589820D01*
X199932241Y-88581052D01*
X199921334Y-88571166D01*
X199911448Y-88560259D01*
X199902680Y-88548436D01*
X199895112Y-88535810D01*
X199888818Y-88522503D01*
X199883859Y-88508643D01*
X199880282Y-88494364D01*
X199878122Y-88479803D01*
X199877400Y-88465100D01*
X199877400Y-86715100D01*
X199878122Y-86700397D01*
X199880282Y-86685836D01*
X199883859Y-86671557D01*
X199888818Y-86657697D01*
X199895112Y-86644390D01*
X199902680Y-86631764D01*
X199911448Y-86619941D01*
X199921334Y-86609034D01*
X199932241Y-86599148D01*
X199944064Y-86590380D01*
X199956690Y-86582812D01*
X199969997Y-86576518D01*
X199983857Y-86571559D01*
X199998136Y-86567982D01*
X200012697Y-86565822D01*
X200027400Y-86565100D01*
X200327400Y-86565100D01*
X200342103Y-86565822D01*
X200342103Y-86565822D01*
G37*
D14*
X200177400Y-87590100D03*
D13*
G36*
X201612103Y-86565822D02*
G01*
X201626664Y-86567982D01*
X201640943Y-86571559D01*
X201654803Y-86576518D01*
X201668110Y-86582812D01*
X201680736Y-86590380D01*
X201692559Y-86599148D01*
X201703466Y-86609034D01*
X201713352Y-86619941D01*
X201722120Y-86631764D01*
X201729688Y-86644390D01*
X201735982Y-86657697D01*
X201740941Y-86671557D01*
X201744518Y-86685836D01*
X201746678Y-86700397D01*
X201747400Y-86715100D01*
X201747400Y-88465100D01*
X201746678Y-88479803D01*
X201744518Y-88494364D01*
X201740941Y-88508643D01*
X201735982Y-88522503D01*
X201729688Y-88535810D01*
X201722120Y-88548436D01*
X201713352Y-88560259D01*
X201703466Y-88571166D01*
X201692559Y-88581052D01*
X201680736Y-88589820D01*
X201668110Y-88597388D01*
X201654803Y-88603682D01*
X201640943Y-88608641D01*
X201626664Y-88612218D01*
X201612103Y-88614378D01*
X201597400Y-88615100D01*
X201297400Y-88615100D01*
X201282697Y-88614378D01*
X201268136Y-88612218D01*
X201253857Y-88608641D01*
X201239997Y-88603682D01*
X201226690Y-88597388D01*
X201214064Y-88589820D01*
X201202241Y-88581052D01*
X201191334Y-88571166D01*
X201181448Y-88560259D01*
X201172680Y-88548436D01*
X201165112Y-88535810D01*
X201158818Y-88522503D01*
X201153859Y-88508643D01*
X201150282Y-88494364D01*
X201148122Y-88479803D01*
X201147400Y-88465100D01*
X201147400Y-86715100D01*
X201148122Y-86700397D01*
X201150282Y-86685836D01*
X201153859Y-86671557D01*
X201158818Y-86657697D01*
X201165112Y-86644390D01*
X201172680Y-86631764D01*
X201181448Y-86619941D01*
X201191334Y-86609034D01*
X201202241Y-86599148D01*
X201214064Y-86590380D01*
X201226690Y-86582812D01*
X201239997Y-86576518D01*
X201253857Y-86571559D01*
X201268136Y-86567982D01*
X201282697Y-86565822D01*
X201297400Y-86565100D01*
X201597400Y-86565100D01*
X201612103Y-86565822D01*
X201612103Y-86565822D01*
G37*
D14*
X201447400Y-87590100D03*
D13*
G36*
X202882103Y-86565822D02*
G01*
X202896664Y-86567982D01*
X202910943Y-86571559D01*
X202924803Y-86576518D01*
X202938110Y-86582812D01*
X202950736Y-86590380D01*
X202962559Y-86599148D01*
X202973466Y-86609034D01*
X202983352Y-86619941D01*
X202992120Y-86631764D01*
X202999688Y-86644390D01*
X203005982Y-86657697D01*
X203010941Y-86671557D01*
X203014518Y-86685836D01*
X203016678Y-86700397D01*
X203017400Y-86715100D01*
X203017400Y-88465100D01*
X203016678Y-88479803D01*
X203014518Y-88494364D01*
X203010941Y-88508643D01*
X203005982Y-88522503D01*
X202999688Y-88535810D01*
X202992120Y-88548436D01*
X202983352Y-88560259D01*
X202973466Y-88571166D01*
X202962559Y-88581052D01*
X202950736Y-88589820D01*
X202938110Y-88597388D01*
X202924803Y-88603682D01*
X202910943Y-88608641D01*
X202896664Y-88612218D01*
X202882103Y-88614378D01*
X202867400Y-88615100D01*
X202567400Y-88615100D01*
X202552697Y-88614378D01*
X202538136Y-88612218D01*
X202523857Y-88608641D01*
X202509997Y-88603682D01*
X202496690Y-88597388D01*
X202484064Y-88589820D01*
X202472241Y-88581052D01*
X202461334Y-88571166D01*
X202451448Y-88560259D01*
X202442680Y-88548436D01*
X202435112Y-88535810D01*
X202428818Y-88522503D01*
X202423859Y-88508643D01*
X202420282Y-88494364D01*
X202418122Y-88479803D01*
X202417400Y-88465100D01*
X202417400Y-86715100D01*
X202418122Y-86700397D01*
X202420282Y-86685836D01*
X202423859Y-86671557D01*
X202428818Y-86657697D01*
X202435112Y-86644390D01*
X202442680Y-86631764D01*
X202451448Y-86619941D01*
X202461334Y-86609034D01*
X202472241Y-86599148D01*
X202484064Y-86590380D01*
X202496690Y-86582812D01*
X202509997Y-86576518D01*
X202523857Y-86571559D01*
X202538136Y-86567982D01*
X202552697Y-86565822D01*
X202567400Y-86565100D01*
X202867400Y-86565100D01*
X202882103Y-86565822D01*
X202882103Y-86565822D01*
G37*
D14*
X202717400Y-87590100D03*
D13*
G36*
X204152103Y-86565822D02*
G01*
X204166664Y-86567982D01*
X204180943Y-86571559D01*
X204194803Y-86576518D01*
X204208110Y-86582812D01*
X204220736Y-86590380D01*
X204232559Y-86599148D01*
X204243466Y-86609034D01*
X204253352Y-86619941D01*
X204262120Y-86631764D01*
X204269688Y-86644390D01*
X204275982Y-86657697D01*
X204280941Y-86671557D01*
X204284518Y-86685836D01*
X204286678Y-86700397D01*
X204287400Y-86715100D01*
X204287400Y-88465100D01*
X204286678Y-88479803D01*
X204284518Y-88494364D01*
X204280941Y-88508643D01*
X204275982Y-88522503D01*
X204269688Y-88535810D01*
X204262120Y-88548436D01*
X204253352Y-88560259D01*
X204243466Y-88571166D01*
X204232559Y-88581052D01*
X204220736Y-88589820D01*
X204208110Y-88597388D01*
X204194803Y-88603682D01*
X204180943Y-88608641D01*
X204166664Y-88612218D01*
X204152103Y-88614378D01*
X204137400Y-88615100D01*
X203837400Y-88615100D01*
X203822697Y-88614378D01*
X203808136Y-88612218D01*
X203793857Y-88608641D01*
X203779997Y-88603682D01*
X203766690Y-88597388D01*
X203754064Y-88589820D01*
X203742241Y-88581052D01*
X203731334Y-88571166D01*
X203721448Y-88560259D01*
X203712680Y-88548436D01*
X203705112Y-88535810D01*
X203698818Y-88522503D01*
X203693859Y-88508643D01*
X203690282Y-88494364D01*
X203688122Y-88479803D01*
X203687400Y-88465100D01*
X203687400Y-86715100D01*
X203688122Y-86700397D01*
X203690282Y-86685836D01*
X203693859Y-86671557D01*
X203698818Y-86657697D01*
X203705112Y-86644390D01*
X203712680Y-86631764D01*
X203721448Y-86619941D01*
X203731334Y-86609034D01*
X203742241Y-86599148D01*
X203754064Y-86590380D01*
X203766690Y-86582812D01*
X203779997Y-86576518D01*
X203793857Y-86571559D01*
X203808136Y-86567982D01*
X203822697Y-86565822D01*
X203837400Y-86565100D01*
X204137400Y-86565100D01*
X204152103Y-86565822D01*
X204152103Y-86565822D01*
G37*
D14*
X203987400Y-87590100D03*
D13*
G36*
X204152103Y-95865822D02*
G01*
X204166664Y-95867982D01*
X204180943Y-95871559D01*
X204194803Y-95876518D01*
X204208110Y-95882812D01*
X204220736Y-95890380D01*
X204232559Y-95899148D01*
X204243466Y-95909034D01*
X204253352Y-95919941D01*
X204262120Y-95931764D01*
X204269688Y-95944390D01*
X204275982Y-95957697D01*
X204280941Y-95971557D01*
X204284518Y-95985836D01*
X204286678Y-96000397D01*
X204287400Y-96015100D01*
X204287400Y-97765100D01*
X204286678Y-97779803D01*
X204284518Y-97794364D01*
X204280941Y-97808643D01*
X204275982Y-97822503D01*
X204269688Y-97835810D01*
X204262120Y-97848436D01*
X204253352Y-97860259D01*
X204243466Y-97871166D01*
X204232559Y-97881052D01*
X204220736Y-97889820D01*
X204208110Y-97897388D01*
X204194803Y-97903682D01*
X204180943Y-97908641D01*
X204166664Y-97912218D01*
X204152103Y-97914378D01*
X204137400Y-97915100D01*
X203837400Y-97915100D01*
X203822697Y-97914378D01*
X203808136Y-97912218D01*
X203793857Y-97908641D01*
X203779997Y-97903682D01*
X203766690Y-97897388D01*
X203754064Y-97889820D01*
X203742241Y-97881052D01*
X203731334Y-97871166D01*
X203721448Y-97860259D01*
X203712680Y-97848436D01*
X203705112Y-97835810D01*
X203698818Y-97822503D01*
X203693859Y-97808643D01*
X203690282Y-97794364D01*
X203688122Y-97779803D01*
X203687400Y-97765100D01*
X203687400Y-96015100D01*
X203688122Y-96000397D01*
X203690282Y-95985836D01*
X203693859Y-95971557D01*
X203698818Y-95957697D01*
X203705112Y-95944390D01*
X203712680Y-95931764D01*
X203721448Y-95919941D01*
X203731334Y-95909034D01*
X203742241Y-95899148D01*
X203754064Y-95890380D01*
X203766690Y-95882812D01*
X203779997Y-95876518D01*
X203793857Y-95871559D01*
X203808136Y-95867982D01*
X203822697Y-95865822D01*
X203837400Y-95865100D01*
X204137400Y-95865100D01*
X204152103Y-95865822D01*
X204152103Y-95865822D01*
G37*
D14*
X203987400Y-96890100D03*
D13*
G36*
X202882103Y-95865822D02*
G01*
X202896664Y-95867982D01*
X202910943Y-95871559D01*
X202924803Y-95876518D01*
X202938110Y-95882812D01*
X202950736Y-95890380D01*
X202962559Y-95899148D01*
X202973466Y-95909034D01*
X202983352Y-95919941D01*
X202992120Y-95931764D01*
X202999688Y-95944390D01*
X203005982Y-95957697D01*
X203010941Y-95971557D01*
X203014518Y-95985836D01*
X203016678Y-96000397D01*
X203017400Y-96015100D01*
X203017400Y-97765100D01*
X203016678Y-97779803D01*
X203014518Y-97794364D01*
X203010941Y-97808643D01*
X203005982Y-97822503D01*
X202999688Y-97835810D01*
X202992120Y-97848436D01*
X202983352Y-97860259D01*
X202973466Y-97871166D01*
X202962559Y-97881052D01*
X202950736Y-97889820D01*
X202938110Y-97897388D01*
X202924803Y-97903682D01*
X202910943Y-97908641D01*
X202896664Y-97912218D01*
X202882103Y-97914378D01*
X202867400Y-97915100D01*
X202567400Y-97915100D01*
X202552697Y-97914378D01*
X202538136Y-97912218D01*
X202523857Y-97908641D01*
X202509997Y-97903682D01*
X202496690Y-97897388D01*
X202484064Y-97889820D01*
X202472241Y-97881052D01*
X202461334Y-97871166D01*
X202451448Y-97860259D01*
X202442680Y-97848436D01*
X202435112Y-97835810D01*
X202428818Y-97822503D01*
X202423859Y-97808643D01*
X202420282Y-97794364D01*
X202418122Y-97779803D01*
X202417400Y-97765100D01*
X202417400Y-96015100D01*
X202418122Y-96000397D01*
X202420282Y-95985836D01*
X202423859Y-95971557D01*
X202428818Y-95957697D01*
X202435112Y-95944390D01*
X202442680Y-95931764D01*
X202451448Y-95919941D01*
X202461334Y-95909034D01*
X202472241Y-95899148D01*
X202484064Y-95890380D01*
X202496690Y-95882812D01*
X202509997Y-95876518D01*
X202523857Y-95871559D01*
X202538136Y-95867982D01*
X202552697Y-95865822D01*
X202567400Y-95865100D01*
X202867400Y-95865100D01*
X202882103Y-95865822D01*
X202882103Y-95865822D01*
G37*
D14*
X202717400Y-96890100D03*
D13*
G36*
X201612103Y-95865822D02*
G01*
X201626664Y-95867982D01*
X201640943Y-95871559D01*
X201654803Y-95876518D01*
X201668110Y-95882812D01*
X201680736Y-95890380D01*
X201692559Y-95899148D01*
X201703466Y-95909034D01*
X201713352Y-95919941D01*
X201722120Y-95931764D01*
X201729688Y-95944390D01*
X201735982Y-95957697D01*
X201740941Y-95971557D01*
X201744518Y-95985836D01*
X201746678Y-96000397D01*
X201747400Y-96015100D01*
X201747400Y-97765100D01*
X201746678Y-97779803D01*
X201744518Y-97794364D01*
X201740941Y-97808643D01*
X201735982Y-97822503D01*
X201729688Y-97835810D01*
X201722120Y-97848436D01*
X201713352Y-97860259D01*
X201703466Y-97871166D01*
X201692559Y-97881052D01*
X201680736Y-97889820D01*
X201668110Y-97897388D01*
X201654803Y-97903682D01*
X201640943Y-97908641D01*
X201626664Y-97912218D01*
X201612103Y-97914378D01*
X201597400Y-97915100D01*
X201297400Y-97915100D01*
X201282697Y-97914378D01*
X201268136Y-97912218D01*
X201253857Y-97908641D01*
X201239997Y-97903682D01*
X201226690Y-97897388D01*
X201214064Y-97889820D01*
X201202241Y-97881052D01*
X201191334Y-97871166D01*
X201181448Y-97860259D01*
X201172680Y-97848436D01*
X201165112Y-97835810D01*
X201158818Y-97822503D01*
X201153859Y-97808643D01*
X201150282Y-97794364D01*
X201148122Y-97779803D01*
X201147400Y-97765100D01*
X201147400Y-96015100D01*
X201148122Y-96000397D01*
X201150282Y-95985836D01*
X201153859Y-95971557D01*
X201158818Y-95957697D01*
X201165112Y-95944390D01*
X201172680Y-95931764D01*
X201181448Y-95919941D01*
X201191334Y-95909034D01*
X201202241Y-95899148D01*
X201214064Y-95890380D01*
X201226690Y-95882812D01*
X201239997Y-95876518D01*
X201253857Y-95871559D01*
X201268136Y-95867982D01*
X201282697Y-95865822D01*
X201297400Y-95865100D01*
X201597400Y-95865100D01*
X201612103Y-95865822D01*
X201612103Y-95865822D01*
G37*
D14*
X201447400Y-96890100D03*
D13*
G36*
X200342103Y-95865822D02*
G01*
X200356664Y-95867982D01*
X200370943Y-95871559D01*
X200384803Y-95876518D01*
X200398110Y-95882812D01*
X200410736Y-95890380D01*
X200422559Y-95899148D01*
X200433466Y-95909034D01*
X200443352Y-95919941D01*
X200452120Y-95931764D01*
X200459688Y-95944390D01*
X200465982Y-95957697D01*
X200470941Y-95971557D01*
X200474518Y-95985836D01*
X200476678Y-96000397D01*
X200477400Y-96015100D01*
X200477400Y-97765100D01*
X200476678Y-97779803D01*
X200474518Y-97794364D01*
X200470941Y-97808643D01*
X200465982Y-97822503D01*
X200459688Y-97835810D01*
X200452120Y-97848436D01*
X200443352Y-97860259D01*
X200433466Y-97871166D01*
X200422559Y-97881052D01*
X200410736Y-97889820D01*
X200398110Y-97897388D01*
X200384803Y-97903682D01*
X200370943Y-97908641D01*
X200356664Y-97912218D01*
X200342103Y-97914378D01*
X200327400Y-97915100D01*
X200027400Y-97915100D01*
X200012697Y-97914378D01*
X199998136Y-97912218D01*
X199983857Y-97908641D01*
X199969997Y-97903682D01*
X199956690Y-97897388D01*
X199944064Y-97889820D01*
X199932241Y-97881052D01*
X199921334Y-97871166D01*
X199911448Y-97860259D01*
X199902680Y-97848436D01*
X199895112Y-97835810D01*
X199888818Y-97822503D01*
X199883859Y-97808643D01*
X199880282Y-97794364D01*
X199878122Y-97779803D01*
X199877400Y-97765100D01*
X199877400Y-96015100D01*
X199878122Y-96000397D01*
X199880282Y-95985836D01*
X199883859Y-95971557D01*
X199888818Y-95957697D01*
X199895112Y-95944390D01*
X199902680Y-95931764D01*
X199911448Y-95919941D01*
X199921334Y-95909034D01*
X199932241Y-95899148D01*
X199944064Y-95890380D01*
X199956690Y-95882812D01*
X199969997Y-95876518D01*
X199983857Y-95871559D01*
X199998136Y-95867982D01*
X200012697Y-95865822D01*
X200027400Y-95865100D01*
X200327400Y-95865100D01*
X200342103Y-95865822D01*
X200342103Y-95865822D01*
G37*
D14*
X200177400Y-96890100D03*
D13*
G36*
X199072103Y-95865822D02*
G01*
X199086664Y-95867982D01*
X199100943Y-95871559D01*
X199114803Y-95876518D01*
X199128110Y-95882812D01*
X199140736Y-95890380D01*
X199152559Y-95899148D01*
X199163466Y-95909034D01*
X199173352Y-95919941D01*
X199182120Y-95931764D01*
X199189688Y-95944390D01*
X199195982Y-95957697D01*
X199200941Y-95971557D01*
X199204518Y-95985836D01*
X199206678Y-96000397D01*
X199207400Y-96015100D01*
X199207400Y-97765100D01*
X199206678Y-97779803D01*
X199204518Y-97794364D01*
X199200941Y-97808643D01*
X199195982Y-97822503D01*
X199189688Y-97835810D01*
X199182120Y-97848436D01*
X199173352Y-97860259D01*
X199163466Y-97871166D01*
X199152559Y-97881052D01*
X199140736Y-97889820D01*
X199128110Y-97897388D01*
X199114803Y-97903682D01*
X199100943Y-97908641D01*
X199086664Y-97912218D01*
X199072103Y-97914378D01*
X199057400Y-97915100D01*
X198757400Y-97915100D01*
X198742697Y-97914378D01*
X198728136Y-97912218D01*
X198713857Y-97908641D01*
X198699997Y-97903682D01*
X198686690Y-97897388D01*
X198674064Y-97889820D01*
X198662241Y-97881052D01*
X198651334Y-97871166D01*
X198641448Y-97860259D01*
X198632680Y-97848436D01*
X198625112Y-97835810D01*
X198618818Y-97822503D01*
X198613859Y-97808643D01*
X198610282Y-97794364D01*
X198608122Y-97779803D01*
X198607400Y-97765100D01*
X198607400Y-96015100D01*
X198608122Y-96000397D01*
X198610282Y-95985836D01*
X198613859Y-95971557D01*
X198618818Y-95957697D01*
X198625112Y-95944390D01*
X198632680Y-95931764D01*
X198641448Y-95919941D01*
X198651334Y-95909034D01*
X198662241Y-95899148D01*
X198674064Y-95890380D01*
X198686690Y-95882812D01*
X198699997Y-95876518D01*
X198713857Y-95871559D01*
X198728136Y-95867982D01*
X198742697Y-95865822D01*
X198757400Y-95865100D01*
X199057400Y-95865100D01*
X199072103Y-95865822D01*
X199072103Y-95865822D01*
G37*
D14*
X198907400Y-96890100D03*
D13*
G36*
X197802103Y-95865822D02*
G01*
X197816664Y-95867982D01*
X197830943Y-95871559D01*
X197844803Y-95876518D01*
X197858110Y-95882812D01*
X197870736Y-95890380D01*
X197882559Y-95899148D01*
X197893466Y-95909034D01*
X197903352Y-95919941D01*
X197912120Y-95931764D01*
X197919688Y-95944390D01*
X197925982Y-95957697D01*
X197930941Y-95971557D01*
X197934518Y-95985836D01*
X197936678Y-96000397D01*
X197937400Y-96015100D01*
X197937400Y-97765100D01*
X197936678Y-97779803D01*
X197934518Y-97794364D01*
X197930941Y-97808643D01*
X197925982Y-97822503D01*
X197919688Y-97835810D01*
X197912120Y-97848436D01*
X197903352Y-97860259D01*
X197893466Y-97871166D01*
X197882559Y-97881052D01*
X197870736Y-97889820D01*
X197858110Y-97897388D01*
X197844803Y-97903682D01*
X197830943Y-97908641D01*
X197816664Y-97912218D01*
X197802103Y-97914378D01*
X197787400Y-97915100D01*
X197487400Y-97915100D01*
X197472697Y-97914378D01*
X197458136Y-97912218D01*
X197443857Y-97908641D01*
X197429997Y-97903682D01*
X197416690Y-97897388D01*
X197404064Y-97889820D01*
X197392241Y-97881052D01*
X197381334Y-97871166D01*
X197371448Y-97860259D01*
X197362680Y-97848436D01*
X197355112Y-97835810D01*
X197348818Y-97822503D01*
X197343859Y-97808643D01*
X197340282Y-97794364D01*
X197338122Y-97779803D01*
X197337400Y-97765100D01*
X197337400Y-96015100D01*
X197338122Y-96000397D01*
X197340282Y-95985836D01*
X197343859Y-95971557D01*
X197348818Y-95957697D01*
X197355112Y-95944390D01*
X197362680Y-95931764D01*
X197371448Y-95919941D01*
X197381334Y-95909034D01*
X197392241Y-95899148D01*
X197404064Y-95890380D01*
X197416690Y-95882812D01*
X197429997Y-95876518D01*
X197443857Y-95871559D01*
X197458136Y-95867982D01*
X197472697Y-95865822D01*
X197487400Y-95865100D01*
X197787400Y-95865100D01*
X197802103Y-95865822D01*
X197802103Y-95865822D01*
G37*
D14*
X197637400Y-96890100D03*
D13*
G36*
X196532103Y-95865822D02*
G01*
X196546664Y-95867982D01*
X196560943Y-95871559D01*
X196574803Y-95876518D01*
X196588110Y-95882812D01*
X196600736Y-95890380D01*
X196612559Y-95899148D01*
X196623466Y-95909034D01*
X196633352Y-95919941D01*
X196642120Y-95931764D01*
X196649688Y-95944390D01*
X196655982Y-95957697D01*
X196660941Y-95971557D01*
X196664518Y-95985836D01*
X196666678Y-96000397D01*
X196667400Y-96015100D01*
X196667400Y-97765100D01*
X196666678Y-97779803D01*
X196664518Y-97794364D01*
X196660941Y-97808643D01*
X196655982Y-97822503D01*
X196649688Y-97835810D01*
X196642120Y-97848436D01*
X196633352Y-97860259D01*
X196623466Y-97871166D01*
X196612559Y-97881052D01*
X196600736Y-97889820D01*
X196588110Y-97897388D01*
X196574803Y-97903682D01*
X196560943Y-97908641D01*
X196546664Y-97912218D01*
X196532103Y-97914378D01*
X196517400Y-97915100D01*
X196217400Y-97915100D01*
X196202697Y-97914378D01*
X196188136Y-97912218D01*
X196173857Y-97908641D01*
X196159997Y-97903682D01*
X196146690Y-97897388D01*
X196134064Y-97889820D01*
X196122241Y-97881052D01*
X196111334Y-97871166D01*
X196101448Y-97860259D01*
X196092680Y-97848436D01*
X196085112Y-97835810D01*
X196078818Y-97822503D01*
X196073859Y-97808643D01*
X196070282Y-97794364D01*
X196068122Y-97779803D01*
X196067400Y-97765100D01*
X196067400Y-96015100D01*
X196068122Y-96000397D01*
X196070282Y-95985836D01*
X196073859Y-95971557D01*
X196078818Y-95957697D01*
X196085112Y-95944390D01*
X196092680Y-95931764D01*
X196101448Y-95919941D01*
X196111334Y-95909034D01*
X196122241Y-95899148D01*
X196134064Y-95890380D01*
X196146690Y-95882812D01*
X196159997Y-95876518D01*
X196173857Y-95871559D01*
X196188136Y-95867982D01*
X196202697Y-95865822D01*
X196217400Y-95865100D01*
X196517400Y-95865100D01*
X196532103Y-95865822D01*
X196532103Y-95865822D01*
G37*
D14*
X196367400Y-96890100D03*
D13*
G36*
X195262103Y-95865822D02*
G01*
X195276664Y-95867982D01*
X195290943Y-95871559D01*
X195304803Y-95876518D01*
X195318110Y-95882812D01*
X195330736Y-95890380D01*
X195342559Y-95899148D01*
X195353466Y-95909034D01*
X195363352Y-95919941D01*
X195372120Y-95931764D01*
X195379688Y-95944390D01*
X195385982Y-95957697D01*
X195390941Y-95971557D01*
X195394518Y-95985836D01*
X195396678Y-96000397D01*
X195397400Y-96015100D01*
X195397400Y-97765100D01*
X195396678Y-97779803D01*
X195394518Y-97794364D01*
X195390941Y-97808643D01*
X195385982Y-97822503D01*
X195379688Y-97835810D01*
X195372120Y-97848436D01*
X195363352Y-97860259D01*
X195353466Y-97871166D01*
X195342559Y-97881052D01*
X195330736Y-97889820D01*
X195318110Y-97897388D01*
X195304803Y-97903682D01*
X195290943Y-97908641D01*
X195276664Y-97912218D01*
X195262103Y-97914378D01*
X195247400Y-97915100D01*
X194947400Y-97915100D01*
X194932697Y-97914378D01*
X194918136Y-97912218D01*
X194903857Y-97908641D01*
X194889997Y-97903682D01*
X194876690Y-97897388D01*
X194864064Y-97889820D01*
X194852241Y-97881052D01*
X194841334Y-97871166D01*
X194831448Y-97860259D01*
X194822680Y-97848436D01*
X194815112Y-97835810D01*
X194808818Y-97822503D01*
X194803859Y-97808643D01*
X194800282Y-97794364D01*
X194798122Y-97779803D01*
X194797400Y-97765100D01*
X194797400Y-96015100D01*
X194798122Y-96000397D01*
X194800282Y-95985836D01*
X194803859Y-95971557D01*
X194808818Y-95957697D01*
X194815112Y-95944390D01*
X194822680Y-95931764D01*
X194831448Y-95919941D01*
X194841334Y-95909034D01*
X194852241Y-95899148D01*
X194864064Y-95890380D01*
X194876690Y-95882812D01*
X194889997Y-95876518D01*
X194903857Y-95871559D01*
X194918136Y-95867982D01*
X194932697Y-95865822D01*
X194947400Y-95865100D01*
X195247400Y-95865100D01*
X195262103Y-95865822D01*
X195262103Y-95865822D01*
G37*
D14*
X195097400Y-96890100D03*
D13*
G36*
X193992103Y-95865822D02*
G01*
X194006664Y-95867982D01*
X194020943Y-95871559D01*
X194034803Y-95876518D01*
X194048110Y-95882812D01*
X194060736Y-95890380D01*
X194072559Y-95899148D01*
X194083466Y-95909034D01*
X194093352Y-95919941D01*
X194102120Y-95931764D01*
X194109688Y-95944390D01*
X194115982Y-95957697D01*
X194120941Y-95971557D01*
X194124518Y-95985836D01*
X194126678Y-96000397D01*
X194127400Y-96015100D01*
X194127400Y-97765100D01*
X194126678Y-97779803D01*
X194124518Y-97794364D01*
X194120941Y-97808643D01*
X194115982Y-97822503D01*
X194109688Y-97835810D01*
X194102120Y-97848436D01*
X194093352Y-97860259D01*
X194083466Y-97871166D01*
X194072559Y-97881052D01*
X194060736Y-97889820D01*
X194048110Y-97897388D01*
X194034803Y-97903682D01*
X194020943Y-97908641D01*
X194006664Y-97912218D01*
X193992103Y-97914378D01*
X193977400Y-97915100D01*
X193677400Y-97915100D01*
X193662697Y-97914378D01*
X193648136Y-97912218D01*
X193633857Y-97908641D01*
X193619997Y-97903682D01*
X193606690Y-97897388D01*
X193594064Y-97889820D01*
X193582241Y-97881052D01*
X193571334Y-97871166D01*
X193561448Y-97860259D01*
X193552680Y-97848436D01*
X193545112Y-97835810D01*
X193538818Y-97822503D01*
X193533859Y-97808643D01*
X193530282Y-97794364D01*
X193528122Y-97779803D01*
X193527400Y-97765100D01*
X193527400Y-96015100D01*
X193528122Y-96000397D01*
X193530282Y-95985836D01*
X193533859Y-95971557D01*
X193538818Y-95957697D01*
X193545112Y-95944390D01*
X193552680Y-95931764D01*
X193561448Y-95919941D01*
X193571334Y-95909034D01*
X193582241Y-95899148D01*
X193594064Y-95890380D01*
X193606690Y-95882812D01*
X193619997Y-95876518D01*
X193633857Y-95871559D01*
X193648136Y-95867982D01*
X193662697Y-95865822D01*
X193677400Y-95865100D01*
X193977400Y-95865100D01*
X193992103Y-95865822D01*
X193992103Y-95865822D01*
G37*
D14*
X193827400Y-96890100D03*
D13*
G36*
X192722103Y-95865822D02*
G01*
X192736664Y-95867982D01*
X192750943Y-95871559D01*
X192764803Y-95876518D01*
X192778110Y-95882812D01*
X192790736Y-95890380D01*
X192802559Y-95899148D01*
X192813466Y-95909034D01*
X192823352Y-95919941D01*
X192832120Y-95931764D01*
X192839688Y-95944390D01*
X192845982Y-95957697D01*
X192850941Y-95971557D01*
X192854518Y-95985836D01*
X192856678Y-96000397D01*
X192857400Y-96015100D01*
X192857400Y-97765100D01*
X192856678Y-97779803D01*
X192854518Y-97794364D01*
X192850941Y-97808643D01*
X192845982Y-97822503D01*
X192839688Y-97835810D01*
X192832120Y-97848436D01*
X192823352Y-97860259D01*
X192813466Y-97871166D01*
X192802559Y-97881052D01*
X192790736Y-97889820D01*
X192778110Y-97897388D01*
X192764803Y-97903682D01*
X192750943Y-97908641D01*
X192736664Y-97912218D01*
X192722103Y-97914378D01*
X192707400Y-97915100D01*
X192407400Y-97915100D01*
X192392697Y-97914378D01*
X192378136Y-97912218D01*
X192363857Y-97908641D01*
X192349997Y-97903682D01*
X192336690Y-97897388D01*
X192324064Y-97889820D01*
X192312241Y-97881052D01*
X192301334Y-97871166D01*
X192291448Y-97860259D01*
X192282680Y-97848436D01*
X192275112Y-97835810D01*
X192268818Y-97822503D01*
X192263859Y-97808643D01*
X192260282Y-97794364D01*
X192258122Y-97779803D01*
X192257400Y-97765100D01*
X192257400Y-96015100D01*
X192258122Y-96000397D01*
X192260282Y-95985836D01*
X192263859Y-95971557D01*
X192268818Y-95957697D01*
X192275112Y-95944390D01*
X192282680Y-95931764D01*
X192291448Y-95919941D01*
X192301334Y-95909034D01*
X192312241Y-95899148D01*
X192324064Y-95890380D01*
X192336690Y-95882812D01*
X192349997Y-95876518D01*
X192363857Y-95871559D01*
X192378136Y-95867982D01*
X192392697Y-95865822D01*
X192407400Y-95865100D01*
X192707400Y-95865100D01*
X192722103Y-95865822D01*
X192722103Y-95865822D01*
G37*
D14*
X192557400Y-96890100D03*
D13*
G36*
X191452103Y-95865822D02*
G01*
X191466664Y-95867982D01*
X191480943Y-95871559D01*
X191494803Y-95876518D01*
X191508110Y-95882812D01*
X191520736Y-95890380D01*
X191532559Y-95899148D01*
X191543466Y-95909034D01*
X191553352Y-95919941D01*
X191562120Y-95931764D01*
X191569688Y-95944390D01*
X191575982Y-95957697D01*
X191580941Y-95971557D01*
X191584518Y-95985836D01*
X191586678Y-96000397D01*
X191587400Y-96015100D01*
X191587400Y-97765100D01*
X191586678Y-97779803D01*
X191584518Y-97794364D01*
X191580941Y-97808643D01*
X191575982Y-97822503D01*
X191569688Y-97835810D01*
X191562120Y-97848436D01*
X191553352Y-97860259D01*
X191543466Y-97871166D01*
X191532559Y-97881052D01*
X191520736Y-97889820D01*
X191508110Y-97897388D01*
X191494803Y-97903682D01*
X191480943Y-97908641D01*
X191466664Y-97912218D01*
X191452103Y-97914378D01*
X191437400Y-97915100D01*
X191137400Y-97915100D01*
X191122697Y-97914378D01*
X191108136Y-97912218D01*
X191093857Y-97908641D01*
X191079997Y-97903682D01*
X191066690Y-97897388D01*
X191054064Y-97889820D01*
X191042241Y-97881052D01*
X191031334Y-97871166D01*
X191021448Y-97860259D01*
X191012680Y-97848436D01*
X191005112Y-97835810D01*
X190998818Y-97822503D01*
X190993859Y-97808643D01*
X190990282Y-97794364D01*
X190988122Y-97779803D01*
X190987400Y-97765100D01*
X190987400Y-96015100D01*
X190988122Y-96000397D01*
X190990282Y-95985836D01*
X190993859Y-95971557D01*
X190998818Y-95957697D01*
X191005112Y-95944390D01*
X191012680Y-95931764D01*
X191021448Y-95919941D01*
X191031334Y-95909034D01*
X191042241Y-95899148D01*
X191054064Y-95890380D01*
X191066690Y-95882812D01*
X191079997Y-95876518D01*
X191093857Y-95871559D01*
X191108136Y-95867982D01*
X191122697Y-95865822D01*
X191137400Y-95865100D01*
X191437400Y-95865100D01*
X191452103Y-95865822D01*
X191452103Y-95865822D01*
G37*
D14*
X191287400Y-96890100D03*
D13*
G36*
X190182103Y-95865822D02*
G01*
X190196664Y-95867982D01*
X190210943Y-95871559D01*
X190224803Y-95876518D01*
X190238110Y-95882812D01*
X190250736Y-95890380D01*
X190262559Y-95899148D01*
X190273466Y-95909034D01*
X190283352Y-95919941D01*
X190292120Y-95931764D01*
X190299688Y-95944390D01*
X190305982Y-95957697D01*
X190310941Y-95971557D01*
X190314518Y-95985836D01*
X190316678Y-96000397D01*
X190317400Y-96015100D01*
X190317400Y-97765100D01*
X190316678Y-97779803D01*
X190314518Y-97794364D01*
X190310941Y-97808643D01*
X190305982Y-97822503D01*
X190299688Y-97835810D01*
X190292120Y-97848436D01*
X190283352Y-97860259D01*
X190273466Y-97871166D01*
X190262559Y-97881052D01*
X190250736Y-97889820D01*
X190238110Y-97897388D01*
X190224803Y-97903682D01*
X190210943Y-97908641D01*
X190196664Y-97912218D01*
X190182103Y-97914378D01*
X190167400Y-97915100D01*
X189867400Y-97915100D01*
X189852697Y-97914378D01*
X189838136Y-97912218D01*
X189823857Y-97908641D01*
X189809997Y-97903682D01*
X189796690Y-97897388D01*
X189784064Y-97889820D01*
X189772241Y-97881052D01*
X189761334Y-97871166D01*
X189751448Y-97860259D01*
X189742680Y-97848436D01*
X189735112Y-97835810D01*
X189728818Y-97822503D01*
X189723859Y-97808643D01*
X189720282Y-97794364D01*
X189718122Y-97779803D01*
X189717400Y-97765100D01*
X189717400Y-96015100D01*
X189718122Y-96000397D01*
X189720282Y-95985836D01*
X189723859Y-95971557D01*
X189728818Y-95957697D01*
X189735112Y-95944390D01*
X189742680Y-95931764D01*
X189751448Y-95919941D01*
X189761334Y-95909034D01*
X189772241Y-95899148D01*
X189784064Y-95890380D01*
X189796690Y-95882812D01*
X189809997Y-95876518D01*
X189823857Y-95871559D01*
X189838136Y-95867982D01*
X189852697Y-95865822D01*
X189867400Y-95865100D01*
X190167400Y-95865100D01*
X190182103Y-95865822D01*
X190182103Y-95865822D01*
G37*
D14*
X190017400Y-96890100D03*
D15*
X193040000Y-60450000D03*
X193040000Y-57150000D03*
D16*
X168910000Y-55920000D03*
X168910000Y-60960000D03*
X171450000Y-55920000D03*
X171450000Y-60960000D03*
X173990000Y-55920000D03*
X173990000Y-60960000D03*
X176530000Y-55920000D03*
X176530000Y-60960000D03*
X179070000Y-55920000D03*
X179070000Y-60960000D03*
X181610000Y-55920000D03*
X181610000Y-60960000D03*
X184150000Y-55920000D03*
X184150000Y-60960000D03*
X186690000Y-55920000D03*
X186690000Y-60960000D03*
D13*
G36*
X198594505Y-59506204D02*
G01*
X198618773Y-59509804D01*
X198642572Y-59515765D01*
X198665671Y-59524030D01*
X198687850Y-59534520D01*
X198708893Y-59547132D01*
X198728599Y-59561747D01*
X198746777Y-59578223D01*
X198763253Y-59596401D01*
X198777868Y-59616107D01*
X198790480Y-59637150D01*
X198800970Y-59659329D01*
X198809235Y-59682428D01*
X198815196Y-59706227D01*
X198818796Y-59730495D01*
X198820000Y-59754999D01*
X198820000Y-60405001D01*
X198818796Y-60429505D01*
X198815196Y-60453773D01*
X198809235Y-60477572D01*
X198800970Y-60500671D01*
X198790480Y-60522850D01*
X198777868Y-60543893D01*
X198763253Y-60563599D01*
X198746777Y-60581777D01*
X198728599Y-60598253D01*
X198708893Y-60612868D01*
X198687850Y-60625480D01*
X198665671Y-60635970D01*
X198642572Y-60644235D01*
X198618773Y-60650196D01*
X198594505Y-60653796D01*
X198570001Y-60655000D01*
X197669999Y-60655000D01*
X197645495Y-60653796D01*
X197621227Y-60650196D01*
X197597428Y-60644235D01*
X197574329Y-60635970D01*
X197552150Y-60625480D01*
X197531107Y-60612868D01*
X197511401Y-60598253D01*
X197493223Y-60581777D01*
X197476747Y-60563599D01*
X197462132Y-60543893D01*
X197449520Y-60522850D01*
X197439030Y-60500671D01*
X197430765Y-60477572D01*
X197424804Y-60453773D01*
X197421204Y-60429505D01*
X197420000Y-60405001D01*
X197420000Y-59754999D01*
X197421204Y-59730495D01*
X197424804Y-59706227D01*
X197430765Y-59682428D01*
X197439030Y-59659329D01*
X197449520Y-59637150D01*
X197462132Y-59616107D01*
X197476747Y-59596401D01*
X197493223Y-59578223D01*
X197511401Y-59561747D01*
X197531107Y-59547132D01*
X197552150Y-59534520D01*
X197574329Y-59524030D01*
X197597428Y-59515765D01*
X197621227Y-59509804D01*
X197645495Y-59506204D01*
X197669999Y-59505000D01*
X198570001Y-59505000D01*
X198594505Y-59506204D01*
X198594505Y-59506204D01*
G37*
D17*
X198120000Y-60080000D03*
D13*
G36*
X198594505Y-57456204D02*
G01*
X198618773Y-57459804D01*
X198642572Y-57465765D01*
X198665671Y-57474030D01*
X198687850Y-57484520D01*
X198708893Y-57497132D01*
X198728599Y-57511747D01*
X198746777Y-57528223D01*
X198763253Y-57546401D01*
X198777868Y-57566107D01*
X198790480Y-57587150D01*
X198800970Y-57609329D01*
X198809235Y-57632428D01*
X198815196Y-57656227D01*
X198818796Y-57680495D01*
X198820000Y-57704999D01*
X198820000Y-58355001D01*
X198818796Y-58379505D01*
X198815196Y-58403773D01*
X198809235Y-58427572D01*
X198800970Y-58450671D01*
X198790480Y-58472850D01*
X198777868Y-58493893D01*
X198763253Y-58513599D01*
X198746777Y-58531777D01*
X198728599Y-58548253D01*
X198708893Y-58562868D01*
X198687850Y-58575480D01*
X198665671Y-58585970D01*
X198642572Y-58594235D01*
X198618773Y-58600196D01*
X198594505Y-58603796D01*
X198570001Y-58605000D01*
X197669999Y-58605000D01*
X197645495Y-58603796D01*
X197621227Y-58600196D01*
X197597428Y-58594235D01*
X197574329Y-58585970D01*
X197552150Y-58575480D01*
X197531107Y-58562868D01*
X197511401Y-58548253D01*
X197493223Y-58531777D01*
X197476747Y-58513599D01*
X197462132Y-58493893D01*
X197449520Y-58472850D01*
X197439030Y-58450671D01*
X197430765Y-58427572D01*
X197424804Y-58403773D01*
X197421204Y-58379505D01*
X197420000Y-58355001D01*
X197420000Y-57704999D01*
X197421204Y-57680495D01*
X197424804Y-57656227D01*
X197430765Y-57632428D01*
X197439030Y-57609329D01*
X197449520Y-57587150D01*
X197462132Y-57566107D01*
X197476747Y-57546401D01*
X197493223Y-57528223D01*
X197511401Y-57511747D01*
X197531107Y-57497132D01*
X197552150Y-57484520D01*
X197574329Y-57474030D01*
X197597428Y-57465765D01*
X197621227Y-57459804D01*
X197645495Y-57456204D01*
X197669999Y-57455000D01*
X198570001Y-57455000D01*
X198594505Y-57456204D01*
X198594505Y-57456204D01*
G37*
D17*
X198120000Y-58030000D03*
D18*
X149809200Y-85598000D03*
X149250400Y-65125600D03*
X168910000Y-65405000D03*
X189865000Y-53340000D03*
X157988000Y-57099200D03*
X189865000Y-53340000D03*
X205400000Y-100600000D03*
X207750000Y-77750000D03*
X181610000Y-50800000D03*
X151765000Y-102870000D03*
X186750000Y-82500000D03*
X152300000Y-51400000D03*
X186690000Y-66675000D03*
X133858000Y-58318400D03*
X146558000Y-53594000D03*
X137312400Y-108712000D03*
X206000000Y-73750000D03*
X184937400Y-96532700D03*
X171450000Y-51435000D03*
X189865000Y-66675000D03*
D19*
X147955000Y-88314000D02*
X147955000Y-87452200D01*
X147955000Y-87452200D02*
X149809200Y-85598000D01*
X147091200Y-62966400D02*
X141750800Y-62966400D01*
X149250400Y-65125600D02*
X147091200Y-62966400D01*
X141750800Y-72180200D02*
X141757400Y-72186800D01*
X141750800Y-62966400D02*
X141750800Y-72180200D01*
X138741200Y-63500000D02*
X138734600Y-63506600D01*
X186690000Y-55920000D02*
X186690000Y-51435000D01*
X168910000Y-60960000D02*
X168910000Y-63060000D01*
X168910000Y-63060000D02*
X168910000Y-65405000D01*
X193040000Y-57150000D02*
X193040000Y-56515000D01*
X137750800Y-69862200D02*
X137750800Y-62966400D01*
X137750800Y-72212200D02*
X137750800Y-69862200D01*
X137750800Y-59366400D02*
X137871200Y-59246000D01*
X137750800Y-62966400D02*
X137750800Y-59366400D01*
X137750800Y-59366400D02*
X137750800Y-58286400D01*
X138938000Y-57099200D02*
X157988000Y-57099200D01*
X137750800Y-58286400D02*
X138938000Y-57099200D01*
X198120000Y-58030000D02*
X198120000Y-55370000D01*
X198120000Y-55370000D02*
X196750000Y-54000000D01*
X193040000Y-54460000D02*
X193040000Y-57150000D01*
X193500000Y-54000000D02*
X193040000Y-54460000D01*
X195250000Y-53000000D02*
X195250000Y-54000000D01*
X193515010Y-51265010D02*
X195250000Y-53000000D01*
X196750000Y-54000000D02*
X195250000Y-54000000D01*
X195250000Y-54000000D02*
X193500000Y-54000000D01*
X186859990Y-51265010D02*
X186690000Y-51435000D01*
X189865000Y-52279340D02*
X190234990Y-51909350D01*
X190234990Y-51909350D02*
X190234990Y-51265010D01*
X189865000Y-53340000D02*
X189865000Y-52279340D01*
X193515010Y-51265010D02*
X190234990Y-51265010D01*
X190234990Y-51265010D02*
X186859990Y-51265010D01*
X133614290Y-87943290D02*
X133614290Y-81310710D01*
X133985000Y-88314000D02*
X133614290Y-87943290D01*
X137750800Y-77174200D02*
X137750800Y-72212200D01*
X133614290Y-81310710D02*
X137750800Y-77174200D01*
X204358110Y-97260810D02*
X204358110Y-100358110D01*
X203987400Y-96890100D02*
X204358110Y-97260810D01*
X204358110Y-100358110D02*
X204600000Y-100600000D01*
X204600000Y-100600000D02*
X205400000Y-100600000D01*
X190061193Y-111772700D02*
X187280704Y-111772700D01*
X198907400Y-102926493D02*
X190061193Y-111772700D01*
X187280704Y-111772700D02*
X171549300Y-111772700D01*
X198907400Y-96890100D02*
X198907400Y-102926493D01*
X138895010Y-97783990D02*
X139065000Y-97614000D01*
X138895010Y-102794552D02*
X138895010Y-97783990D01*
X166499300Y-111772700D02*
X147873158Y-111772700D01*
X147873158Y-111772700D02*
X138895010Y-102794552D01*
X173724300Y-109232700D02*
X171549300Y-109232700D01*
X191045545Y-109232700D02*
X173724300Y-109232700D01*
X197637400Y-102640845D02*
X191045545Y-109232700D01*
X197637400Y-96890100D02*
X197637400Y-102640845D01*
X137795000Y-87189000D02*
X137795000Y-88314000D01*
X137795000Y-84428655D02*
X137795000Y-87189000D01*
X146010955Y-76212700D02*
X137795000Y-84428655D01*
X166499300Y-76212700D02*
X146010955Y-76212700D01*
X140335000Y-102678894D02*
X140335000Y-98739000D01*
X147576157Y-109920051D02*
X140335000Y-102678894D01*
X161668247Y-109920051D02*
X147576157Y-109920051D01*
X140335000Y-98739000D02*
X140335000Y-97614000D01*
X162355597Y-109232700D02*
X161668247Y-109920051D01*
X166499300Y-109232700D02*
X162355597Y-109232700D01*
X200177400Y-80266952D02*
X202500000Y-77944352D01*
X200177400Y-87590100D02*
X200177400Y-80266952D01*
X202500000Y-77944352D02*
X202500000Y-74750000D01*
X198535000Y-70785000D02*
X182215000Y-70785000D01*
X202500000Y-74750000D02*
X198535000Y-70785000D01*
X176787300Y-76212700D02*
X171549300Y-76212700D01*
X182215000Y-70785000D02*
X176787300Y-76212700D01*
X178192700Y-106692700D02*
X171549300Y-106692700D01*
X178300030Y-106800030D02*
X178192700Y-106692700D01*
X191922566Y-106800030D02*
X178300030Y-106800030D01*
X196367400Y-96890100D02*
X196367400Y-102355196D01*
X196367400Y-102355196D02*
X191922566Y-106800030D01*
X166499300Y-78752700D02*
X160538997Y-78752700D01*
X139065000Y-87189000D02*
X139065000Y-88314000D01*
X139065000Y-84714304D02*
X139065000Y-87189000D01*
X146331365Y-77447939D02*
X139065000Y-84714304D01*
X159234237Y-77447939D02*
X146331365Y-77447939D01*
X160538997Y-78752700D02*
X159234237Y-77447939D01*
X141605000Y-98739000D02*
X141605000Y-97614000D01*
X141605000Y-102393245D02*
X141605000Y-98739000D01*
X161212608Y-108820041D02*
X148031796Y-108820041D01*
X148031796Y-108820041D02*
X141605000Y-102393245D01*
X163339948Y-106692700D02*
X161212608Y-108820041D01*
X166499300Y-106692700D02*
X163339948Y-106692700D01*
X198907400Y-87590100D02*
X198907400Y-79742590D01*
X201250000Y-77399990D02*
X201250000Y-75055648D01*
X198907400Y-79742590D02*
X201250000Y-77399990D01*
X201250000Y-75055648D02*
X198194352Y-72000000D01*
X198194352Y-72000000D02*
X183750000Y-72000000D01*
X176997300Y-78752700D02*
X171549300Y-78752700D01*
X183750000Y-72000000D02*
X176997300Y-78752700D01*
X191466927Y-105700020D02*
X183200020Y-105700020D01*
X195097400Y-96890100D02*
X195097400Y-102069546D01*
X195097400Y-102069546D02*
X191466927Y-105700020D01*
X181652700Y-104152700D02*
X171549300Y-104152700D01*
X183200020Y-105700020D02*
X181652700Y-104152700D01*
X166499300Y-81292700D02*
X161523348Y-81292700D01*
X140165010Y-88144010D02*
X140335000Y-88314000D01*
X140165010Y-85169943D02*
X140165010Y-88144010D01*
X146787004Y-78547949D02*
X140165010Y-85169943D01*
X161523348Y-81292700D02*
X158778598Y-78547949D01*
X158778598Y-78547949D02*
X146787004Y-78547949D01*
X142875000Y-98739000D02*
X142875000Y-97614000D01*
X142875000Y-102107596D02*
X142875000Y-98739000D01*
X148487435Y-107720031D02*
X142875000Y-102107596D01*
X160756969Y-107720031D02*
X148487435Y-107720031D01*
X164324300Y-104152700D02*
X160756969Y-107720031D01*
X166499300Y-104152700D02*
X164324300Y-104152700D01*
X176012948Y-81292700D02*
X173724300Y-81292700D01*
X173724300Y-81292700D02*
X171549300Y-81292700D01*
X184205638Y-73100010D02*
X176012948Y-81292700D01*
X197738714Y-73100010D02*
X184205638Y-73100010D01*
X197637400Y-87590100D02*
X197637400Y-86465100D01*
X197637400Y-86465100D02*
X197807390Y-86295110D01*
X197807390Y-86295110D02*
X197807390Y-79286951D01*
X197807390Y-79286951D02*
X200149990Y-76944352D01*
X200149990Y-76944352D02*
X200149990Y-75511286D01*
X200149990Y-75511286D02*
X197738714Y-73100010D01*
X191011288Y-104600010D02*
X186100010Y-104600010D01*
X193827400Y-96890100D02*
X193827400Y-101783898D01*
X193827400Y-101783898D02*
X191011288Y-104600010D01*
X183112700Y-101612700D02*
X171549300Y-101612700D01*
X186100010Y-104600010D02*
X183112700Y-101612700D01*
X166499300Y-83832700D02*
X162507700Y-83832700D01*
X141605000Y-85285602D02*
X141605000Y-87189000D01*
X147242643Y-79647959D02*
X141605000Y-85285602D01*
X141605000Y-87189000D02*
X141605000Y-88314000D01*
X158322959Y-79647959D02*
X147242643Y-79647959D01*
X162507700Y-83832700D02*
X158322959Y-79647959D01*
X144145000Y-101821947D02*
X144145000Y-97614000D01*
X148943074Y-106620021D02*
X144145000Y-101821947D01*
X153420279Y-106620021D02*
X148943074Y-106620021D01*
X166499300Y-101612700D02*
X158427599Y-101612700D01*
X158427599Y-101612700D02*
X153420279Y-106620021D01*
X173724300Y-83832700D02*
X171549300Y-83832700D01*
X175028596Y-83832700D02*
X173724300Y-83832700D01*
X196367400Y-87590100D02*
X196367400Y-79171292D01*
X199000000Y-76538693D02*
X199000000Y-75916944D01*
X196367400Y-79171292D02*
X199000000Y-76538693D01*
X199000000Y-75916944D02*
X197283076Y-74200020D01*
X197283076Y-74200020D02*
X184661276Y-74200020D01*
X184661276Y-74200020D02*
X175028596Y-83832700D01*
X192557400Y-101498249D02*
X190555649Y-103500000D01*
X192557400Y-96890100D02*
X192557400Y-101498249D01*
X173724300Y-99072700D02*
X171549300Y-99072700D01*
X182961404Y-99072700D02*
X173724300Y-99072700D01*
X187388704Y-103500000D02*
X182961404Y-99072700D01*
X190555649Y-103500000D02*
X187388704Y-103500000D01*
X142875000Y-87189000D02*
X142875000Y-88314000D01*
X142875000Y-85571251D02*
X142875000Y-87189000D01*
X147698282Y-80747969D02*
X142875000Y-85571251D01*
X157830867Y-80747969D02*
X147698282Y-80747969D01*
X163455596Y-86372700D02*
X157830867Y-80747969D01*
X166499300Y-86372700D02*
X163455596Y-86372700D01*
X145415000Y-98739000D02*
X145415000Y-97614000D01*
X145415000Y-101536298D02*
X145415000Y-98739000D01*
X149398713Y-105520011D02*
X145415000Y-101536298D01*
X152964640Y-105520011D02*
X149398713Y-105520011D01*
X159411950Y-99072700D02*
X152964640Y-105520011D01*
X166499300Y-99072700D02*
X159411950Y-99072700D01*
X173724300Y-86372700D02*
X171549300Y-86372700D01*
X174044244Y-86372700D02*
X173724300Y-86372700D01*
X195097400Y-87590100D02*
X195097400Y-78885644D01*
X195550030Y-75300030D02*
X185116914Y-75300030D01*
X185116914Y-75300030D02*
X174044244Y-86372700D01*
X195097400Y-78885644D02*
X196500000Y-77483044D01*
X196500000Y-76250000D02*
X195550030Y-75300030D01*
X196500000Y-77483044D02*
X196500000Y-76250000D01*
X191287400Y-96890100D02*
X191287400Y-101212600D01*
X191287400Y-101212600D02*
X190750000Y-101750000D01*
X187194352Y-101750000D02*
X181944352Y-96500000D01*
X190750000Y-101750000D02*
X187194352Y-101750000D01*
X181911652Y-96532700D02*
X171549300Y-96532700D01*
X181944352Y-96500000D02*
X181911652Y-96532700D01*
X143975010Y-88144010D02*
X144145000Y-88314000D01*
X143975010Y-86026890D02*
X143975010Y-88144010D01*
X148153921Y-81847979D02*
X143975010Y-86026890D01*
X157375228Y-81847979D02*
X148153921Y-81847979D01*
X166499300Y-88912700D02*
X164439948Y-88912700D01*
X164439948Y-88912700D02*
X157375228Y-81847979D01*
X146685000Y-98739000D02*
X146685000Y-97614000D01*
X146685000Y-101250649D02*
X146685000Y-98739000D01*
X149854352Y-104420001D02*
X146685000Y-101250649D01*
X152509001Y-104420001D02*
X149854352Y-104420001D01*
X160396302Y-96532700D02*
X152509001Y-104420001D01*
X166499300Y-96532700D02*
X160396302Y-96532700D01*
X193827400Y-78599995D02*
X195000000Y-77427395D01*
X193827400Y-87590100D02*
X193827400Y-78599995D01*
X195000000Y-77250000D02*
X194150040Y-76400040D01*
X195000000Y-77427395D02*
X195000000Y-77250000D01*
X194150040Y-76400040D02*
X185599960Y-76400040D01*
X185599960Y-76400040D02*
X178500000Y-83500000D01*
X178500000Y-83500000D02*
X178500000Y-86750000D01*
X176337300Y-88912700D02*
X171549300Y-88912700D01*
X178500000Y-86750000D02*
X176337300Y-88912700D01*
X191287400Y-87590100D02*
X191287400Y-80287400D01*
X189600060Y-78600060D02*
X186511236Y-78600060D01*
X191287400Y-80287400D02*
X189600060Y-78600060D01*
X186511236Y-78600060D02*
X180700020Y-84411276D01*
X173724300Y-93992700D02*
X171549300Y-93992700D01*
X174368598Y-93992700D02*
X173724300Y-93992700D01*
X180700020Y-87661278D02*
X174368598Y-93992700D01*
X180700020Y-84411276D02*
X180700020Y-87661278D01*
X156919589Y-82947989D02*
X148609560Y-82947989D01*
X145415000Y-87189000D02*
X145415000Y-88314000D01*
X145415000Y-86142549D02*
X145415000Y-87189000D01*
X165424300Y-91452700D02*
X156919589Y-82947989D01*
X148609560Y-82947989D02*
X145415000Y-86142549D01*
X166499300Y-91452700D02*
X165424300Y-91452700D01*
X146685000Y-87189000D02*
X146685000Y-88314000D01*
X146685000Y-86428198D02*
X146685000Y-87189000D01*
X149065199Y-84047999D02*
X146685000Y-86428198D01*
X154379599Y-84047999D02*
X149065199Y-84047999D01*
X164324300Y-93992700D02*
X154379599Y-84047999D01*
X166499300Y-93992700D02*
X164324300Y-93992700D01*
X173724300Y-91452700D02*
X171549300Y-91452700D01*
X175352949Y-91452700D02*
X173724300Y-91452700D01*
X192557400Y-87590100D02*
X192557400Y-79057450D01*
X191000000Y-77500050D02*
X186055598Y-77500050D01*
X186055598Y-77500050D02*
X179600010Y-83955638D01*
X179600010Y-83955638D02*
X179600010Y-87205639D01*
X192557400Y-79057450D02*
X191000000Y-77500050D01*
X179600010Y-87205639D02*
X175352949Y-91452700D01*
X194470648Y-50165000D02*
X201930000Y-57624352D01*
X184150000Y-55920000D02*
X184150000Y-52419351D01*
X186404351Y-50165000D02*
X194470648Y-50165000D01*
X184150000Y-52419351D02*
X186404351Y-50165000D01*
X201930000Y-57624352D02*
X201930000Y-66040000D01*
X204358110Y-87219390D02*
X204358110Y-84891890D01*
X203987400Y-87590100D02*
X204358110Y-87219390D01*
X204358110Y-84891890D02*
X207000000Y-82250000D01*
X207000000Y-82250000D02*
X208750000Y-82250000D01*
X208750000Y-82250000D02*
X209750000Y-81250000D01*
X209750000Y-81250000D02*
X209750000Y-73860000D01*
X209750000Y-73860000D02*
X208070000Y-72180000D01*
X201930000Y-66040000D02*
X208070000Y-72180000D01*
X208070000Y-72180000D02*
X208280000Y-72390000D01*
X202717400Y-87590100D02*
X202717400Y-82782600D01*
X202717400Y-82782600D02*
X207750000Y-77750000D01*
X181610000Y-50800000D02*
X181610000Y-55920000D01*
X181051008Y-49064990D02*
X195364990Y-49064990D01*
X179070000Y-55920000D02*
X179070000Y-51045998D01*
X179070000Y-51045998D02*
X181051008Y-49064990D01*
X203030010Y-56730010D02*
X203030010Y-65584362D01*
X195364990Y-49064990D02*
X203030010Y-56730010D01*
X210850010Y-73404361D02*
X210850010Y-83149990D01*
X203030010Y-65584362D02*
X210850010Y-73404361D01*
X210850010Y-83149990D02*
X206400000Y-87600000D01*
X202717400Y-96890100D02*
X202717400Y-102317400D01*
X202717400Y-102317400D02*
X204300000Y-103900000D01*
X204300000Y-103900000D02*
X206900000Y-103900000D01*
X206900000Y-103900000D02*
X207800000Y-103000000D01*
X207800000Y-103000000D02*
X207800000Y-94500000D01*
X206400000Y-93100000D02*
X206400000Y-87600000D01*
X207800000Y-94500000D02*
X206400000Y-93100000D01*
X176530000Y-53820000D02*
X176530000Y-55920000D01*
X176530000Y-52030349D02*
X176530000Y-53820000D01*
X180595369Y-47964980D02*
X176530000Y-52030349D01*
X195820629Y-47964980D02*
X180595369Y-47964980D01*
X211950020Y-64094372D02*
X195820629Y-47964980D01*
X211950020Y-100405629D02*
X211950020Y-64094372D01*
X207355639Y-105000010D02*
X211950020Y-100405629D01*
X203844361Y-105000010D02*
X207355639Y-105000010D01*
X201447400Y-102603048D02*
X203844361Y-105000010D01*
X201447400Y-96890100D02*
X201447400Y-102603048D01*
X147955000Y-97614000D02*
X147955000Y-100965000D01*
X147955000Y-100965000D02*
X149860000Y-102870000D01*
X149860000Y-102870000D02*
X151765000Y-102870000D01*
X186690000Y-66675000D02*
X186690000Y-66675000D01*
X151765000Y-102870000D02*
X151765000Y-102870000D01*
X190017400Y-87590100D02*
X190017400Y-85767400D01*
X190017400Y-85767400D02*
X186750000Y-82500000D01*
X168910000Y-53820000D02*
X168900000Y-53810000D01*
X168910000Y-55920000D02*
X168910000Y-53820000D01*
X168900000Y-53810000D02*
X168900000Y-53000000D01*
X168900000Y-53000000D02*
X167600000Y-51700000D01*
X167600000Y-51700000D02*
X152600000Y-51700000D01*
X152600000Y-51700000D02*
X152300000Y-51400000D01*
X186690000Y-66675000D02*
X186690000Y-60960000D01*
X179070000Y-68505000D02*
X179070000Y-60960000D01*
X149768006Y-70900000D02*
X176675000Y-70900000D01*
X176675000Y-70900000D02*
X179070000Y-68505000D01*
X136525000Y-88314000D02*
X136525000Y-84143006D01*
X136525000Y-84143006D02*
X149768006Y-70900000D01*
X135255000Y-83857357D02*
X149312367Y-69799990D01*
X135255000Y-88314000D02*
X135255000Y-83857357D01*
X149312367Y-69799990D02*
X174850010Y-69799990D01*
X176530000Y-68120000D02*
X176530000Y-60960000D01*
X174850010Y-69799990D02*
X176530000Y-68120000D01*
X173990000Y-63060000D02*
X173990000Y-60960000D01*
X174000000Y-63070000D02*
X173990000Y-63060000D01*
X131994361Y-104650010D02*
X130000000Y-102655649D01*
X135255000Y-103650649D02*
X134255639Y-104650010D01*
X156667200Y-54762400D02*
X159258000Y-54762400D01*
X130000000Y-79423000D02*
X133477000Y-75946000D01*
X134255639Y-104650010D02*
X131994361Y-104650010D01*
X135255000Y-97614000D02*
X135255000Y-103650649D01*
X133477000Y-64643000D02*
X130000000Y-61166000D01*
X174000000Y-67700000D02*
X174000000Y-63070000D01*
X163899980Y-68699980D02*
X173000020Y-68699980D01*
X130000000Y-58600000D02*
X132770800Y-55829200D01*
X162204400Y-57708800D02*
X162204400Y-67004400D01*
X130000000Y-102655649D02*
X130000000Y-79423000D01*
X130000000Y-61166000D02*
X130000000Y-58600000D01*
X132770800Y-55829200D02*
X155600400Y-55829200D01*
X133477000Y-75946000D02*
X133477000Y-64643000D01*
X155600400Y-55829200D02*
X156667200Y-54762400D01*
X159258000Y-54762400D02*
X162204400Y-57708800D01*
X173000020Y-68699980D02*
X174000000Y-67700000D01*
X162204400Y-67004400D02*
X163899980Y-68699980D01*
X170700000Y-67500000D02*
X171450000Y-66750000D01*
X165913492Y-66513492D02*
X166900000Y-67500000D01*
X171450000Y-66750000D02*
X171450000Y-60960000D01*
X166900000Y-67500000D02*
X170700000Y-67500000D01*
X155500000Y-53100000D02*
X162300000Y-53100000D01*
X154937610Y-53662390D02*
X155500000Y-53100000D01*
X165913492Y-56713492D02*
X165913492Y-66513492D01*
X162300000Y-53100000D02*
X165913492Y-56713492D01*
X147687050Y-53662390D02*
X154937610Y-53662390D01*
X147618660Y-53594000D02*
X147687050Y-53662390D01*
X146558000Y-53594000D02*
X147618660Y-53594000D01*
X134874000Y-59334400D02*
X133858000Y-58318400D01*
X134874000Y-77089000D02*
X134874000Y-59334400D01*
X131445000Y-80518000D02*
X134874000Y-77089000D01*
X131445000Y-86347000D02*
X131445000Y-80518000D01*
X133985000Y-103365000D02*
X133800000Y-103550000D01*
X133985000Y-97614000D02*
X133985000Y-103365000D01*
X132450000Y-103550000D02*
X131375000Y-102475000D01*
X133800000Y-103550000D02*
X132450000Y-103550000D01*
X131375000Y-102475000D02*
X131375000Y-86417000D01*
X131375000Y-86417000D02*
X131445000Y-86347000D01*
X201617390Y-86777410D02*
X201617390Y-80382610D01*
X201447400Y-87590100D02*
X201447400Y-86947400D01*
X201447400Y-86947400D02*
X201617390Y-86777410D01*
X201617390Y-80382610D02*
X206000000Y-76000000D01*
X206000000Y-76000000D02*
X206000000Y-73750000D01*
X181610000Y-60960000D02*
X181610000Y-67794990D01*
X205250001Y-73000001D02*
X206000000Y-73750000D01*
X201934990Y-69684990D02*
X205250001Y-73000001D01*
X183500000Y-69684990D02*
X201934990Y-69684990D01*
X181610000Y-67794990D02*
X183500000Y-69684990D01*
X136525000Y-107924600D02*
X137312400Y-108712000D01*
X136525000Y-97614000D02*
X136525000Y-107924600D01*
X136251740Y-108712000D02*
X137312400Y-108712000D01*
X134500703Y-108712000D02*
X136251740Y-108712000D01*
X173990000Y-49682400D02*
X173672590Y-49364990D01*
X173672590Y-49364990D02*
X135035010Y-49364990D01*
X135035010Y-49364990D02*
X128400000Y-56000000D01*
X173990000Y-55920000D02*
X173990000Y-49682400D01*
X128400000Y-102611297D02*
X134500703Y-108712000D01*
X128400000Y-78737000D02*
X128400000Y-102611297D01*
X128400000Y-56000000D02*
X128400000Y-61217000D01*
X128400000Y-61217000D02*
X132080000Y-64897000D01*
X132080000Y-75057000D02*
X128400000Y-78737000D01*
X132080000Y-64897000D02*
X132080000Y-75057000D01*
X193040000Y-60450000D02*
X193040000Y-63500000D01*
X193040000Y-63500000D02*
X194310000Y-64770000D01*
X196850000Y-64770000D02*
X198120000Y-63500000D01*
X198120000Y-63500000D02*
X198120000Y-60080000D01*
X195580000Y-64770000D02*
X196850000Y-64770000D01*
X194310000Y-64770000D02*
X195580000Y-64770000D01*
X171450000Y-55920000D02*
X171450000Y-51435000D01*
X184937400Y-96532700D02*
X184937400Y-97937400D01*
X184937400Y-97937400D02*
X186750000Y-99750000D01*
X189646690Y-97260810D02*
X189646690Y-99103310D01*
X190017400Y-96890100D02*
X189646690Y-97260810D01*
X189000000Y-99750000D02*
X186750000Y-99750000D01*
X189646690Y-99103310D02*
X189000000Y-99750000D01*
X194310000Y-68580000D02*
X195580000Y-67310000D01*
X195580000Y-67310000D02*
X195580000Y-64770000D01*
X184150000Y-60960000D02*
X184150000Y-66429002D01*
X184150000Y-66429002D02*
X186300998Y-68580000D01*
X189865000Y-66675000D02*
X189865000Y-66675000D01*
X189865000Y-68135000D02*
X189420000Y-68580000D01*
X186300998Y-68580000D02*
X189420000Y-68580000D01*
X189420000Y-68580000D02*
X194310000Y-68580000D01*
X189865000Y-66675000D02*
X189865000Y-66675000D01*
X189865000Y-66675000D02*
X189865000Y-68135000D01*
X137795000Y-98739000D02*
X137795000Y-97614000D01*
X137795000Y-104765629D02*
X137795000Y-98739000D01*
X147342071Y-114312700D02*
X137795000Y-104765629D01*
X166499300Y-114312700D02*
X147342071Y-114312700D01*
X185872088Y-114312700D02*
X171549300Y-114312700D01*
X189076842Y-114312700D02*
X185872088Y-114312700D01*
X200177400Y-103212142D02*
X189076842Y-114312700D01*
X200177400Y-96890100D02*
X200177400Y-103212142D01*
M02*
