M48
; DRILL file {KiCad 5.1.2} date Wed 22 May 2019 09:14:49 AM CEST
; FORMAT={-:-/ absolute / metric / decimal}
; #@! TF.CreationDate,2019-05-22T09:14:49+02:00
; #@! TF.GenerationSoftware,Kicad,Pcbnew,5.1.2
FMAT,2
METRIC
T1C0.600
T2C1.000
%
G90
G05
T1
X146.558Y-53.594
X152.3Y-51.4
X181.61Y-50.8
X186.69Y-66.675
X186.75Y-82.5
X189.865Y-53.34
X189.865Y-66.675
X205.4Y-100.6
X206.0Y-73.75
X207.75Y-77.75
T2
X133.858Y-58.318
X137.312Y-108.712
X149.25Y-65.126
X149.809Y-85.598
X151.765Y-102.87
X157.988Y-57.099
X168.91Y-65.405
X171.45Y-51.435
X184.937Y-96.533
X189.865Y-53.34
T0
M30
