G04 #@! TF.GenerationSoftware,KiCad,Pcbnew,5.1.2*
G04 #@! TF.CreationDate,2019-05-22T09:14:52+02:00*
G04 #@! TF.ProjectId,polythene_sensor,706f6c79-7468-4656-9e65-5f73656e736f,rev?*
G04 #@! TF.SameCoordinates,Original*
G04 #@! TF.FileFunction,Copper,L2,Bot*
G04 #@! TF.FilePolarity,Positive*
%FSLAX46Y46*%
G04 Gerber Fmt 4.6, Leading zero omitted, Abs format (unit mm)*
G04 Created by KiCad (PCBNEW 5.1.2) date 2019-05-22 09:14:52*
%MOMM*%
%LPD*%
G04 APERTURE LIST*
%ADD10C,1.500000*%
%ADD11C,0.600000*%
G04 APERTURE END LIST*
D10*
X149809200Y-85598000D03*
X149250400Y-65125600D03*
X168910000Y-65405000D03*
X189865000Y-53340000D03*
X157988000Y-57099200D03*
X189865000Y-53340000D03*
X205400000Y-100600000D03*
X207750000Y-77750000D03*
X181610000Y-50800000D03*
X151765000Y-102870000D03*
X186750000Y-82500000D03*
X152300000Y-51400000D03*
X186690000Y-66675000D03*
X133858000Y-58318400D03*
X146558000Y-53594000D03*
X137312400Y-108712000D03*
X206000000Y-73750000D03*
X184937400Y-96532700D03*
X171450000Y-51435000D03*
X189865000Y-66675000D03*
D11*
X149809200Y-85598000D02*
X149809200Y-65684400D01*
X149809200Y-65684400D02*
X149250400Y-65125600D01*
X166100000Y-65400000D02*
X163677600Y-62977600D01*
X163677600Y-62977600D02*
X163677600Y-57099200D01*
X167844340Y-65400000D02*
X166100000Y-65400000D01*
X168910000Y-65405000D02*
X167849340Y-65405000D01*
X167849340Y-65405000D02*
X167844340Y-65400000D01*
X157988000Y-57099200D02*
X163677600Y-57099200D01*
X189865000Y-53340000D02*
X183775000Y-47250000D01*
X183775000Y-47250000D02*
X167500000Y-47250000D01*
X163677600Y-51072400D02*
X163677600Y-57099200D01*
X167500000Y-47250000D02*
X163677600Y-51072400D01*
X206460660Y-100600000D02*
X209400000Y-97660660D01*
X205400000Y-100600000D02*
X206460660Y-100600000D01*
X209400000Y-97660660D02*
X209400000Y-68100000D01*
X194640000Y-53340000D02*
X209400000Y-68100000D01*
X189865000Y-53340000D02*
X194640000Y-53340000D01*
X207750000Y-73205998D02*
X191544002Y-57000000D01*
X207750000Y-77750000D02*
X207750000Y-73205998D01*
X191544002Y-57000000D02*
X188750000Y-57000000D01*
X188750000Y-57000000D02*
X187810000Y-57000000D01*
X187810000Y-57000000D02*
X181610000Y-50800000D01*
X152400000Y-73660000D02*
X151765000Y-74295000D01*
X186690000Y-81379340D02*
X186690000Y-73660000D01*
X186750000Y-81439340D02*
X186690000Y-81379340D01*
X186750000Y-82500000D02*
X186750000Y-81439340D01*
X152400000Y-52560660D02*
X152400000Y-73660000D01*
X152300000Y-52460660D02*
X152400000Y-52560660D01*
X152300000Y-51400000D02*
X152300000Y-52460660D01*
X152400000Y-73660000D02*
X155956000Y-73660000D01*
X155956000Y-73660000D02*
X159385000Y-70231000D01*
X159385000Y-70231000D02*
X168656000Y-70231000D01*
X168656000Y-70231000D02*
X173990000Y-75565000D01*
X173990000Y-75565000D02*
X179578000Y-75565000D01*
X183642000Y-71501000D02*
X186690000Y-71501000D01*
X179578000Y-75565000D02*
X183642000Y-71501000D01*
X186690000Y-73660000D02*
X186690000Y-71501000D01*
X186690000Y-71501000D02*
X186690000Y-66675000D01*
X151765000Y-102870000D02*
X155448000Y-99187000D01*
X155448000Y-99187000D02*
X155448000Y-94488000D01*
X155448000Y-94488000D02*
X153035000Y-92075000D01*
X153035000Y-92075000D02*
X153035000Y-88519000D01*
X153035000Y-88519000D02*
X155702000Y-85852000D01*
X155702000Y-85852000D02*
X155702000Y-82296000D01*
X151765000Y-78359000D02*
X151765000Y-74295000D01*
X155702000Y-82296000D02*
X151765000Y-78359000D01*
X134620000Y-54508400D02*
X134620000Y-57556400D01*
X134620000Y-57556400D02*
X133858000Y-58318400D01*
X134620000Y-54508400D02*
X134620000Y-54102000D01*
X134620000Y-54102000D02*
X135890000Y-52832000D01*
X135890000Y-52832000D02*
X145796000Y-52832000D01*
X145796000Y-52832000D02*
X146558000Y-53594000D01*
X139039600Y-110439200D02*
X137312400Y-108712000D01*
X198983600Y-96570800D02*
X198807600Y-96570800D01*
X139039600Y-110439200D02*
X146507200Y-110439200D01*
X146507200Y-110439200D02*
X150114000Y-114046000D01*
X150114000Y-114046000D02*
X159004000Y-114046000D01*
X159004000Y-114046000D02*
X165989000Y-107061000D01*
X165989000Y-107061000D02*
X180721000Y-107061000D01*
X180721000Y-107061000D02*
X183134000Y-109474000D01*
X183134000Y-109474000D02*
X189992000Y-109474000D01*
X189992000Y-109474000D02*
X197612000Y-101854000D01*
X197612000Y-101854000D02*
X197612000Y-97536000D01*
X197612000Y-97536000D02*
X205994000Y-89154000D01*
X205994000Y-89154000D02*
X205994000Y-85598000D01*
X205994000Y-85598000D02*
X201295000Y-80899000D01*
X201295000Y-78455000D02*
X206000000Y-73750000D01*
X201295000Y-80899000D02*
X201295000Y-78455000D01*
X171450000Y-51435000D02*
X174625000Y-51435000D01*
X174625000Y-51435000D02*
X189865000Y-66675000D01*
X184937400Y-96532700D02*
X184937400Y-91312600D01*
X189865000Y-86385000D02*
X189865000Y-66675000D01*
X184937400Y-91312600D02*
X189865000Y-86385000D01*
M02*
